<svg xmlns="http://www.w3.org/2000/svg" xmlns:xlink="http://www.w3.org/1999/xlink" viewBox="0 0 1643.31 2144.78"><defs><style>.cls-1{fill:none;}.cls-2{clip-path:url(#clip-path);}.cls-3{font-size:353.56px;font-family:Dosis-Medium, Dosis;}.cls-4{letter-spacing:-0.02em;}.cls-5{letter-spacing:-0.01em;}.cls-6{letter-spacing:0em;}</style><clipPath id="clip-path"><rect class="cls-1" x="173.67" width="1230.6" height="1230.6"/></clipPath></defs><title>investor</title><g id="Layer_2" data-name="Layer 2"><g id="Logo"><g id="Artwork_6" data-name="Artwork 6"><g class="cls-2"><g class="cls-2"><path d="M1071,640.94q0,9.61-8,19.23L807.39,915.74q-8.81,7.21-18.43,7.21t-18.43-7.21L514.17,659.36q-12-12.82-5.61-28,6.41-16,24-16H686.42v-282q0-11.22,7.21-18.43t18.43-7.21H865.88q11.22,0,18.43,7.21t7.21,18.43v282h153.82q11.22,0,18.43,7.21t7.21,18.43M789,179.46q-118.57,0-218.72,58.49T411.62,396.58Q353.13,496.73,353.13,615.3T411.62,834Q470.1,934.16,570.25,992.65T789,1051.14q118.57,0,218.72-58.49T1166.32,834q58.49-100.15,58.49-218.72t-58.49-218.72q-58.49-100.15-158.63-158.63T789,179.46m615.3,435.84q0,167.44-82.52,308.85t-223.93,223.93Q956.41,1230.6,789,1230.6t-308.85-82.52q-141.41-82.52-223.93-223.93T173.67,615.3q0-167.44,82.52-308.85T480.12,82.52Q621.52,0,789,0t308.85,82.52Q1239.23,165,1321.75,306.45t82.52,308.85"/></g></g></g></g><g id="Name"><text class="cls-3" transform="translate(122.86 1636.71)">INVES<tspan class="cls-4" x="838.63" y="0">T</tspan><tspan x="1007.98" y="0">OR</tspan><tspan x="-122.86" y="424.27">DOWN</tspan><tspan class="cls-5" x="767.74" y="424.27">L</tspan><tspan class="cls-6" x="928.26" y="424.27">OAD</tspan></text></g></g></svg>