<svg xmlns="http://www.w3.org/2000/svg" viewBox="0 0 379.54 91.01"><defs><style>.cls-1,.cls-2{fill:#fff;}.cls-2{font-size:82.55px;font-family:Dosis-Regular, Dosis;}</style></defs><title>perdiem-white</title><g id="Layer_2" data-name="Layer 2"><g id="Layer_1-2" data-name="Layer 1"><path class="cls-1" d="M65.1,41c0,7.56,0,15.12,0,22.68a5.27,5.27,0,0,1-1.54,4,42.67,42.67,0,0,1-13.32,9.66,41.32,41.32,0,0,1-9.74,3.05,40.11,40.11,0,0,1-9.39.71q-2.77-.16-5.53-.58a43.65,43.65,0,0,1-6.79-1.62,42.8,42.8,0,0,1-5.56-2.32,48.25,48.25,0,0,1-4.79-2.81C7.6,73.19,6.81,72.49,6,71.85a44.18,44.18,0,0,1-5.25-5.1A2.94,2.94,0,0,1,0,64.69Q0,41,0,17.3c0-1.79,1-2.75,3-2.77s4-.08,5.92,0a3.32,3.32,0,0,0,2.61-1c1.82-1.7,3.71-3.32,5.59-5,2.35-2,4.65-4.16,7.07-6.13a3.11,3.11,0,0,1,3.67,0Q30,4.36,32,6.22c.34.31.51.38.91,0C34.36,5,35.82,3.76,37.29,2.56a3,3,0,0,1,3.8.19c2.08,1.86,4.19,3.67,6.29,5.5,1.94,1.7,3.91,3.37,5.8,5.12a3.7,3.7,0,0,0,2.92,1.19c1.95-.11,3.9,0,5.85,0a3.69,3.69,0,0,1,.61,0c1.91.32,2.54,1.08,2.54,3Q65.1,29.32,65.1,41Zm-32.67-9.5H10.72c-1.63,0-3.27,0-4.9,0A1.36,1.36,0,0,0,4.36,33c0,.45,0,.91,0,1.36q0,14.4,0,28.8a1.83,1.83,0,0,0,.4,1.39,36.42,36.42,0,0,0,6.49,5.57c10.32,6.65,21.39,8.07,33.08,4.48A35.29,35.29,0,0,0,59.62,65a2.85,2.85,0,0,0,.86-2.16q0-14.74,0-29.48c0-1.4-.43-1.83-1.82-1.83Zm0-5H58.69c1.34,0,1.78-.45,1.78-1.8s0-2.54,0-3.81c0-1.45-.42-1.87-1.85-1.87H6.14c-1.34,0-1.78.45-1.78,1.81s0,2.59,0,3.88.45,1.8,1.78,1.8ZM15.94,14.22c-.29.69-.21.83.52.83H36.67s.73-.08.18-.54l-.84-.8L28.56,7.17a3.34,3.34,0,0,0-4.29-.08M41.8,15h3.78c1,0,2,0,2.92,0h0a.77.77,0,0,0,.64-1l-.06-.21a2.66,2.66,0,0,0-.41-.45Q44.83,9.87,41,6.34a2.29,2.29,0,0,0-3.3,0c-.78.69-1.53,1.42-2.32,2.1-.37.32-.37.5,0,.82"/><text class="cls-2" transform="translate(89.13 71.45)">PERDIEM</text></g></g></svg>