<svg id="White" xmlns="http://www.w3.org/2000/svg" viewBox="0 0 1000 1000"><defs><style>.cls-1,.cls-2,.cls-4{stroke:#fff;stroke-miterlimit:10;}.cls-2{fill:#fff;}.cls-2,.cls-4{stroke-width:8.88px;}.cls-3,.cls-4{fill:none;}.cls-5{fill:#e21700;}</style></defs><title>perdiem-avatar-2</title><rect class="cls-1" width="1000" height="1000"/><path class="cls-2" d="M159.73,597.71a5.82,5.82,0,0,1-.27-.78c-.64-3.52-1.7-4.16-5-3.07a1.9,1.9,0,0,1-1.34,0c-3.24-1.74-6.46-3.5-9.65-5.32a4.2,4.2,0,0,1-1.86-2.64c-.81-2.65-1.58-5.4-4-7.22-.81-.62-1.66-1.19-2.46-1.76.51-2.53.4-3.3-1.14-4-2-.89-2.45-2.3-2.07-4.24a3.08,3.08,0,0,0-1.34-3.58,5,5,0,0,1-2.62-3.7c2.81-3,.5-5.7-.6-8.28a18.09,18.09,0,0,0,3.38-2.44,14.07,14.07,0,0,0,1.7-3.22,29.36,29.36,0,0,0,3.91-2.15,4,4,0,0,0,1.8-4.17c-.4-1.65-1.76-2.14-3.25-2.39-.06,0-.11-.11-.27-.29.18-.9.41-1.9.59-2.91a6,6,0,0,0-6.22-7.24,3.32,3.32,0,0,0-2.05,6.06c.48.37,1,.72,1.6,1.18a11.93,11.93,0,0,0-3.24,7,2.87,2.87,0,0,1-.93,1.62c-1.71,1.54-2.78,3.28-2.13,5.32a31.45,31.45,0,0,0-3,2.81,8.4,8.4,0,0,0-2.24,6.34c.13,1.46-.56,3.1.62,4.29,1.34,1.35-.22,3,.69,4.3a2.53,2.53,0,0,1,.34.63,9.25,9.25,0,0,1,.73,2.48,14.42,14.42,0,0,0,5.66,11.18,8.8,8.8,0,0,1,1.45,1.83c.72,1,1.4,2.12,2.1,3.17.52.79,1,1.59,1.57,2.38a31.92,31.92,0,0,0,3,4.3,43,43,0,0,0,12,8.59,28.4,28.4,0,0,1,6,3.91,14.11,14.11,0,0,0,7.36,3.74,75.45,75.45,0,0,0,9.05.94c10.4.25,20.8.35,31.19.52a6.21,6.21,0,0,1,2.34.28c2.91,1.29,5.77,2.7,8.75,4.11-.4,3.15,1.38,4.49,4,5.13a4.57,4.57,0,0,1,.47.11c1.8.64,3.65,1.2,4.1,3.48a2.29,2.29,0,0,0,.59,1c-.29,1.92-.54,3.4-.71,4.88-.12,1-.16,2.07-.19,3.11,0,1.71-1,2.52-2.58,3a14.26,14.26,0,0,1-8-.29c-4.59-1.39-9.15-2.85-13.72-4.29-3.38-1.07-6.82-1.89-10.38-1.33a15.6,15.6,0,0,1-9.92-1.89c-5.67-2.94-11.43-5.72-17.13-8.62a14.56,14.56,0,0,1-2.76-1.88c-2.56-2.17-5.07-4.39-7.6-6.6-4.83-4.21-10.19-3.32-15.31-1.05-4.69,2.08-5.21,7.67-1.18,10.76,2.17,1.67,4.26,3.29,5.67,5.68a14.17,14.17,0,0,0,1.27,1.43,29.28,29.28,0,0,1,2.31,3.05,42.86,42.86,0,0,0,11,11.93,6.37,6.37,0,0,1,2.11,2.5,5.81,5.81,0,0,0,2.15,2.07c1.38.92,3,1.53,4.28,2.53a29.12,29.12,0,0,0,13.87,6.15c2.61.37,5.25.55,7.86.89,4.76.61,9.52,1.15,14.25,1.93,3.58.59,3.73.94,4.08,4.46.6,6,1.12,11.94,1.85,17.89a106.93,106.93,0,0,0,3.62,18.33,37.55,37.55,0,0,1,1.18,5.87c.79,5.7,1.26,11.45,2.27,17.11a237.33,237.33,0,0,1,3.33,28.81c.13,2.29-.2,4.6-.3,6.91a10.59,10.59,0,0,0,.42,4.77c1,.14,2.25-.05,2.64.42,1.39,1.73,3.46,3,3.46,5.73,0,2.33,1.78,3.53,4.08,3.19l1.15,1.58c2.65-2.27,2.57-3.5,0-5.86l-.57-4.46c1.7-2.42,2.35-3.8-1.12-6,1.09-1.42.54-3.25,1-4.7a5.68,5.68,0,0,0-1-5.5,3.67,3.67,0,0,1,.07-4.31c2-2.71,1.88-5.7.69-8.44a26,26,0,0,1-1.73-9.34,33.13,33.13,0,0,0-1.54-9.43,4.17,4.17,0,0,1,0-2.06,9.23,9.23,0,0,0-.56-6.11,11.67,11.67,0,0,1-1.13-7.2,4.87,4.87,0,0,0-1.32-4.2,2.47,2.47,0,0,1-.65-1.64,24,24,0,0,0-1.12-7.79,27.76,27.76,0,0,1-.85-4.95c-.23-2.63-.21-5.28-.46-7.9a6.07,6.07,0,0,0-1-3.36c-1.36-1.48-1.44-3.11-1.42-4.87a15.1,15.1,0,0,0-1.9-8.3,2.49,2.49,0,0,1-.38-1.35c.14-2.49-1.31-3.95-3.36-4.72a54.34,54.34,0,0,0-6.45-1.74,4.36,4.36,0,0,1-2.74-1.23c-1.56-1.88-3.74-2.28-6.07-2.21a42.06,42.06,0,0,1-6.43,0c-3.64-.45-7.25-1.16-10.84-1.89a4.9,4.9,0,0,1-2.47-1.34,51.86,51.86,0,0,1-3.28-4.28l.4-1.62c3.26.92,6.4,1.81,9.53,2.71a3.25,3.25,0,0,1,1.06.52,3.79,3.79,0,0,0,3.41.56,2.13,2.13,0,0,1,1.51.22,6.86,6.86,0,0,0,6.63.65,3.58,3.58,0,0,1,3.85.51,4.77,4.77,0,0,0,3.95,1.41c1.29,3,3.77,3.74,6.71,3.56,1.12-.07,2.24-.1,3.35-.2,2.95-.24,5.89-.53,8.84-.74a13.81,13.81,0,0,0,7.2-2.33c.45-.32.94-.56,1.35-.81,3.5,1.51,4.46,1.14,6.61-2.41a3.36,3.36,0,0,1,.45-.13c.24,0,.48,0,.72-.07,2-.37,3.13-1.39,3.28-3a3.74,3.74,0,0,0-2.5-3.72c-.7-.32-1.45-.55-2.32-.88.17-1.91.31-3.74.49-5.56a4.76,4.76,0,0,1,.38-1.86c1.4-2.41-1.42-4.29-.76-6.61.1-.36-.25-.91-.5-1.3a2.92,2.92,0,0,0-1-1,7.07,7.07,0,0,1-3.21-3.07c-.27-.53-.94-.84-1.4-1.28a6.35,6.35,0,0,1-1.3-1.37,10.85,10.85,0,0,0-5.39-4.56,40,40,0,0,1-4.91-2.5c-3.94-2.5-8.44-3.24-12.84-4.32a4.5,4.5,0,0,0-2.82.21c-2.6,1.26-4.89.14-7-.94-4.51-2.3-9.46-2.18-14.33-3l2.53,2.88-6.17,1.77c-1.3-1.45-3.38-1.8-5.43-2.14S161.76,598,159.73,597.71ZM519.9,667.34l.89-3.51a11.74,11.74,0,0,0,.62-2.54,11.06,11.06,0,0,1,2-5.81,18.4,18.4,0,0,0,1.22-2.06c1.31-2.81.26-5-2.82-5.43a3.81,3.81,0,0,1-2.66-1.67c-1.51-1.89-3.2-3.77-5.75-4-4.76-.5-9.5-.23-13.64,2.51a20.35,20.35,0,0,1-8,3c-1.34.23-2.65.64-4,.83a6.67,6.67,0,0,0-5.64,4.88c-1.85,5.28-3.75,10.54-5.58,15.82a13,13,0,0,0-.6,2.81,5,5,0,0,0,2.54,5.28,17.17,17.17,0,0,0,3.23,1.57,108.41,108.41,0,0,0,11,3.31,108.08,108.08,0,0,1,17.9,5.27,76.47,76.47,0,0,0,12.15,3.62c7.74,1.68,15.45,1.44,22.83-1.76a97.55,97.55,0,0,1,15.18-5.17,20.9,20.9,0,0,0,8.24-3.75c3.92-3.16,7.82-6.36,11.5-9.79a19.53,19.53,0,0,0,5.93-10.23c.77-3.54.34-6.82-2.14-9.67a13.17,13.17,0,0,1-2.14-3.17,9.18,9.18,0,0,0-6.9-5.38c-1.4-.31-2.83-.47-4.24-.75a6.42,6.42,0,0,1-2-.57,17.71,17.71,0,0,0-10.18-2.11,7.1,7.1,0,0,0-3.62,1.06,61.23,61.23,0,0,0-6,5.14,4,4,0,0,0-1,4.62,9.05,9.05,0,0,0,4.22,5.3,15.52,15.52,0,0,1,4.42,4c-2.45.68-3.5,2.37-4.47,4.27a6.48,6.48,0,0,1-4.23,3,9.45,9.45,0,0,0-4.31,2.39c-1,1-2,2.11-3,3.07a2.65,2.65,0,0,1-1.65.7c-2.69-.08-5.38-.3-8.3-.48C528.32,668.81,524.55,667.57,519.9,667.34Z"/><path class="cls-2" d="M894.51,224.34c-1.25,1.38-1.7,3.09-2.31,4.82a28.45,28.45,0,0,1-12.38,15.29,104.38,104.38,0,0,1-10.53,5.18,3.85,3.85,0,0,1-2.5-.07c-3.2-1-6.36-2.14-9.54-3.22-.44-.15-.9-.27-1.47-.44-.58.7-1.14,1.36-1.69,2-4.82,6-9.61,12-14.45,17.93a321.83,321.83,0,0,0-23.82,34.26c-4.19,6.81-8,13.85-12.09,20.72-2.74,4.6-5.68,9.08-8.5,13.63-.52.84-.89,1.78-1.36,2.75a13.13,13.13,0,0,0,1.29.7c6.28,2.42,11.3,6.57,15.72,11.51a14,14,0,0,1,3.64,6.65,11.7,11.7,0,0,0,1.45,2.72,50.79,50.79,0,0,1,2.75,5.56c1.18,3.21.69,4.29-2.19,6.09-.12.08-.19.25-.08.09.1,2.65.11,5,.31,7.38a10.51,10.51,0,0,0,.91,2.7c.71,1.86,1.45,3.71,2.19,5.55a30.35,30.35,0,0,0,1.47,3.54,33.55,33.55,0,0,1,4.27,15.58c.14,4.87.44,9.76.28,14.62-.08,2.24-.27,4.35.55,6.5a12.43,12.43,0,0,1,.53,3.3,34.05,34.05,0,0,0,1.36,7,60.37,60.37,0,0,1,1.26,7.55c.67,3.94,1.35,7.88,2.08,11.81a7.9,7.9,0,0,0,5.46,5.94c4.19,1.51,5.3,4.79,6,8.49a7.24,7.24,0,0,1-1,5.54,3.19,3.19,0,0,0-.38,1.82,22.42,22.42,0,0,0,1.49,6.72A64.25,64.25,0,0,1,846,495a144.75,144.75,0,0,1,2.54,25.51c0,5.38,1.33,10.61,2.48,15.85,1,4.52,1.81,9.09,2.49,13.67a16.71,16.71,0,0,1-.15,5.7c-.63,3.07-3.35,4-5.85,2.16a9.44,9.44,0,0,1-4-6.54,52.92,52.92,0,0,0-2.56-10,6.5,6.5,0,0,0-2.92-3c-2.75-1.56-4.24-3.89-5.49-6.69a105.22,105.22,0,0,0-5.45-10.11c-1.82-3.1-3.87-6.07-5.73-9.15-1.76-2.9-3.12-5.89-2.59-9.51.19-1.26-.45-2.65-.71-4q-.74-3.75-1.47-7.5c-.14-.71-.17-1.44-.37-2.12-1-3.44-2.08-6.87-3.13-10.31-.28-.92-.54-1.84-.82-2.76a7.64,7.64,0,0,0-6.09-5.77c-1.56-.32-3-1-4.6-1.32s-3-.32-4.47-.49c-1.79-.2-3.59-.43-5.74-.7a10.82,10.82,0,0,1-5.53,6.58c.94,2.06.07,3.76-.79,5.51a43.64,43.64,0,0,0-3.85,11c-.9,4.74-3.27,9-6.06,12.94a6.6,6.6,0,0,1-1.59,1.44,232.64,232.64,0,0,0-22.68,18.87c-1.29,1.19-2.43,2.54-3.66,3.8a17.33,17.33,0,0,1-1.91,1.81c-2.21,1.66-4.78,1.92-6.71.59a6.41,6.41,0,0,1-2.81-6.46,18.9,18.9,0,0,1,1-3.43c.58-1.74,1.1-3.5,1.79-5.2a14.77,14.77,0,0,1,1.6-2.62c.35-.52,1-.91,1.16-1.45.73-2.78,1.44-5.57,1.92-8.4a4.45,4.45,0,0,0-.79-2.68c-1.4-2.34-2.87-4.6-3.37-7.36-.13-.74-.85-1.36-1.11-2.1a10.79,10.79,0,0,1-.92-3.62,4.2,4.2,0,0,0-.76-2.82,25.33,25.33,0,0,1-3.44-7.59c-.68-2.29-1.63-4.61-4-6a6.39,6.39,0,0,1-2-2.32c-1.61-2.68-3.65-4.63-7-4.66a1.77,1.77,0,0,1-.94-.15c-2.92-2.05-6.64-1.63-9.77-3.32-2.22,2.14-4.51,1.55-6.78.13a12.29,12.29,0,0,0-7.06-1.67,106.24,106.24,0,0,1-11.46-1c-10.67-1-21.2-3-31.91-3.77-9.09-.63-18.1-1.91-26.82-4.89a40.27,40.27,0,0,0-18-2.16c-4.11.5-8.17,1.48-12.22,2.36-3.27.71-6.51,1.62-9.77,2.38-1.56.36-3,.63-4.05,2.17-.57.86-1.87,1.19-2.7,1.92-3.23,2.87-6.38,5.82-9.6,8.7a36.86,36.86,0,0,1-3,2.28c-.25.18-.73.2-.84.42-1.54,3.09-4.95,3.28-7.5,4.75a17.26,17.26,0,0,1-5.7,1.66,4.26,4.26,0,0,1-4.48-2.19,23.4,23.4,0,0,0-4.63-5.12,59.87,59.87,0,0,1-5.36-5.82,26.46,26.46,0,0,0-8-6.43c-4-2.1-7.84-4.31-11.71-6.56a12.71,12.71,0,0,0-6-1.42c-9.67-.43-19.34-.74-29-1.08a8.82,8.82,0,0,0-5,1.25,5,5,0,0,1-3.65.47c-2.43-.8-4.73-.41-7.1-.06-3.34.5-6.67.73-10.08-.52-1.26,2-3.24,2.29-5.43,2.15a5,5,0,0,0-2.55.41,11.25,11.25,0,0,1-6,1.14,14.14,14.14,0,0,0-4.43.74c-4.39,1.17-8.84,2.19-13.3,3-7.93,1.52-15.9,2.79-23.82,4.33a34.1,34.1,0,0,0-15,6.71c-2.06,1.64-4.38,2.65-7.13,2a1.93,1.93,0,0,0-.71.08c-.07,0-.13.09-.36.26a12.09,12.09,0,0,1,.77,1.49,2.36,2.36,0,0,1-1.92,3.39,8.15,8.15,0,0,0-4.46,2.13c-1.66,1.38-3.23,2.87-4.83,4.32a13.22,13.22,0,0,1-2.29,2.1c-2.32,1.24-3.54,3.39-5,5.4a47.76,47.76,0,0,1-9.82,10.78,2.33,2.33,0,0,0-.85,3c1.67,3.79.82,7.53,0,11.28-.16.77-.43,1.51-.71,2.47,2.88.26,4.86,2,7,3.55A40.23,40.23,0,0,0,367.39,523a11.84,11.84,0,0,0,4.24.45c8.55-.44,16.7-2.68,24.7-5.57,2.18-.78,4.29-1.75,6.4-2.7a8.89,8.89,0,0,0,2.66-1.6c2-2,4.52-2.88,7.18-3.6a40,40,0,0,0,5.59-2.13c6.51-2.87,12.94-5.95,19.88-7.67,7.23-1.79,14.51-3.36,22-2.67,3.5.32,7,.74,10.49,1.14a22.24,22.24,0,0,0,9.7-1c1.51-.5,3.09-.83,4.61-1.3a5.11,5.11,0,0,1,4.58.69c2,1.39,4.06,2.84,6.06,4.3,3.42,2.5,6.8,5.06,10.22,7.56,4.53,3.3,9.34,3.27,14.32,1.16a3.47,3.47,0,0,0,2.15-1.76,2.19,2.19,0,0,1,.87-1.11c2-.94,2.8-2.9,4-4.55.9-1.23,2.39-2,3.61-3a12,12,0,0,0,1.93-1.66c1.62-2.07,3.09-4.25,4.74-6.3a17.93,17.93,0,0,0,3-4.55,7.82,7.82,0,0,1,2.86-3.09,14.13,14.13,0,0,1,7.45-2.38c2-.11,3.86-.33,5.44-1.94,1.35-1.38,3.09-1.19,4.5.21a3.26,3.26,0,0,0,2.47,1.06,23.43,23.43,0,0,1,4.22.74,26.57,26.57,0,0,0,3.72.88,10.4,10.4,0,0,1,6.3,2.62,48.82,48.82,0,0,1,7.35,7.86,49.71,49.71,0,0,0,10.52,10.79,15.52,15.52,0,0,0,3.57,1.92,4.93,4.93,0,0,0,2.8.3c3.91-1,7.91-1.09,11.9-1.27a59.7,59.7,0,0,0,7.53-1.17c4.25-.74,7.79-2.81,11.36-4.9a15,15,0,0,1,9.4-2.21q7.15.78,14.28,1.64c2.32.28,4.59.49,6.84-.49a5.7,5.7,0,0,1,2.37-.24c3.44.1,6.88.3,10.06,1.84a1.63,1.63,0,0,0,.69.19c3.38,0,6.11,1.63,8.82,3.37a39.19,39.19,0,0,0,4.18,2.35c4.44,2.12,6.71,5.82,7.57,10.45a33.88,33.88,0,0,1,.23,5.47c0,2.47,0,4.94.08,7.4,0,.88.19,1.75.17,2.63a9.11,9.11,0,0,0,1.24,5.73c1.77,3.68,5.33,5.38,9.46,4.77,3.07-.46,6.18-.7,9.29-.93a9.29,9.29,0,0,1,6.12,1.68,13.91,13.91,0,0,0,3.94,1.69,7.42,7.42,0,0,1,5.77,6.61c.46,3.57.92,7.14,1.12,10.73.47,8.39.77,16.78,1.15,25.17.11,2.48.24,5,.49,7.42a10.62,10.62,0,0,0,.89,3.46,66.54,66.54,0,0,0,7.59,12.47c4.72,6,11.11,6.69,18,5.69a3.32,3.32,0,0,0,1.81-1.37,15.39,15.39,0,0,0,1.11-2.38c1.56-3.14,3.06-6.33,4.76-9.4a11.67,11.67,0,0,1,5.33-5.31c1.63-.75,2.95-2.16,4.37-3.25-.77-6-3.94-7.59-8.7-8.38a38.44,38.44,0,0,1-10.65-3.45,9.86,9.86,0,0,1-5.82-9,51,51,0,0,1,.44-7.17c.59-6.37,1.23-12.73,1.84-19.1a12,12,0,0,1,4.16-8.13A45.68,45.68,0,0,1,771,531.58a12.18,12.18,0,0,1,8.79-1c3.06.78,6.35.66,9.52,1.06s6.33.9,9.47,1.44a5.66,5.66,0,0,1,4.94,5.15,79.79,79.79,0,0,1,1,8.56c.43,10.31.73,20.63,1.07,30.94.35,10.47.71,20.95,1,31.42a31.28,31.28,0,0,1-4.65,17.08c-3.47,5.91-8.73,9.7-14.2,13.26a63.43,63.43,0,0,1-6.89,3.7c-11.63,5.65-23.54,10.7-34.77,17.15-4.08,2.34-3.69,1.22-3.74,6.26,0,4.7.37,9.42.77,14.11a17.75,17.75,0,0,0,1.33,4c3,.19,5.68.33,8.38.53,1.67.13,3.35.28,5,.54a7.44,7.44,0,0,1,6.15,4.77,25.84,25.84,0,0,1,1.58,15.51,19.44,19.44,0,0,1-1.8,3.77c.29,1.22.77,2.75,1,4.32.49,3.34-.66,4.53-3.85,4.39a19.27,19.27,0,0,1-1.25,4.46c-.9,1.61-2.72,1.38-4,1.13l-2.73,3.51c2.18,2.88,2.22,3.48.38,6.44,2.24,3,2.22,4.95-.52,7.44-1.3,1.18-1.85,2.29-1.4,4a4.73,4.73,0,0,1,0,1.43c-.14,2.4-.16,2.43-2.56,3.22a28,28,0,0,1-.36,3.21,27.19,27.19,0,0,1-1,2.85c-.2.57-.66,1.33-.46,1.73,1.44,2.85.12,5.25-1.07,7.68-.51,1-1.13,2-1.69,3.07a.74.74,0,0,0-.12.45c.46,2.18-.77,3.55-2.09,5.05a3.51,3.51,0,0,0-.32,2.93c1.26,3.64-.18,6.36-2.58,8.89-1.15,1.22-2.21,2.52-3.5,4-.89-1.18-1.77-2.19-2.46-3.32a4.17,4.17,0,0,0-4-2.1q-21.72-.13-43.44-.43c-9.6-.13-19.2-.36-28.79-.58-2.08,0-4.15-.32-6.23-.3-2.77,0-3.27.62-4.24,3.27a29,29,0,0,1-12.33,14.85,7.83,7.83,0,0,1-6.72.63c-3.79-1.2-5.54-4.09-4.67-8,.67-3,1.68-5.85,4.1-8a4.83,4.83,0,0,0,.72-1.2,7,7,0,0,1,1.13-1.81c3.39-2.9,5-7.13,7.88-10.44a89.28,89.28,0,0,0,7.56-10.5c1.84-2.88,3.27-6,4.92-9.12a7.37,7.37,0,0,0-6-3,25.94,25.94,0,0,0-12.08,2.52c-1.6.79-3.54.88-5.31,1.32a10.13,10.13,0,0,0-3.4,1c-2.84,2-5.91,1.86-9,1.18a47.35,47.35,0,0,1-6.83-2.19c-4.85-1.88-9.7-3.69-14.94-4.19-2.27-.21-5.34-3.11-5.65-5.31a4.51,4.51,0,0,1,.52-2.73,10.44,10.44,0,0,1,7.27-5.4,8,8,0,0,0,2.07-.56,52.28,52.28,0,0,1,12.27-4,12.92,12.92,0,0,0,1.63-.58,5.3,5.3,0,0,0-2.26-3.8,11.41,11.41,0,0,1-4.48-12,6.07,6.07,0,0,1,4.21-4.8,4.89,4.89,0,0,0,1.71-.83,8.11,8.11,0,0,1,5.07-1.88,3,3,0,0,0,1.4-.23c2.15-1.35,4.56-1.32,7-1.46a28.74,28.74,0,0,0,10-2.43,4.77,4.77,0,0,0,2.57-2.33,10.58,10.58,0,0,1,2.51-2.83c1.38-1.25,1.46-1.26.7-3-.41-1-.86-1.89-1.34-2.81a118,118,0,0,0-13-19.85c-4.61-5.63-8.94-11.49-13.45-17.21A11.36,11.36,0,0,0,607.6,653c-2.84-1.78-5.78-3.41-8.69-5.09-1.59-.92-3.25-1.72-4.79-2.72-.92-.6-2.2-1.35-2.39-2.24-.58-2.67-3-3.84-4.29-5.89a3,3,0,0,0-1.68-1.09c-3.76-1-5.08-2.7-4.8-6.52.12-1.6.38-3.16-.62-4.63a4.82,4.82,0,0,1-.38-1.85c-.26-1.56-.5-3.13-.77-4.77a21.23,21.23,0,0,1-2.93-.68c-1.33-.51-2.61-1.18-3.89-1.81-.49-.25-.94-.84-1.41-.85-2.49-.05-4.34-1.34-6.19-2.8a22.54,22.54,0,0,0-3.31-1.81,11.39,11.39,0,0,1-6.18,3.36.57.57,0,0,0-.22.09c-3.16,2.51-7.16,3.42-10.52,5.57-2.15,1.38-4.34,2.72-6.59,3.91a5.87,5.87,0,0,1-6.77-.35,4.89,4.89,0,0,0-1.26-.68,5.5,5.5,0,0,1-3.9-4.94,7.63,7.63,0,0,0-3.48-5.26A7.75,7.75,0,0,1,519,606c-2.17-.12-3.74-1-4.37-3.3a3.19,3.19,0,0,0-2-1.82,9,9,0,0,1-4.44-2.66,2.68,2.68,0,0,0-1.83-.78,76.6,76.6,0,0,0-16.15,2c-1.67.44-3.16,1.53-4.79,2.16a18.48,18.48,0,0,0-6.3,3.65,14.83,14.83,0,0,1-7,3.37c-3.47.78-5.81,3.35-7.59,6.24a52.31,52.31,0,0,1-5.22,7.72,20.25,20.25,0,0,0-2.25,3.95c-1.31,2.41-2.69,4.69-5.36,5.92a6.36,6.36,0,0,0-2.2,2.16c-7.63,10.67-15.26,21.34-21.87,32.7a32.63,32.63,0,0,0-2.21,4,5.38,5.38,0,0,1-4,3.37c-3.5.82-7,1.59-10.52,2.36a17.87,17.87,0,0,1-2.59.47,3.21,3.21,0,0,0-3.12,2.77c-2.22,8.42-4.67,16.78-6.66,25.26-1.76,7.48-1.46,15.1-.28,22.66a25,25,0,0,0,3.77,9,3.89,3.89,0,0,0,3,1.82c4,.5,7.93,1,11.9,1.35,4.62.37,9.26.53,13.9.79a12.73,12.73,0,0,0,6.26-1.14,17.84,17.84,0,0,1,6-1.41,42.26,42.26,0,0,1,16.62,1.67c6.95,2.3,14.07,2.82,21.28,3,11,.3,21.91.57,32.86,1a43.87,43.87,0,0,1,6.85,1,7.21,7.21,0,0,1,2.6,1.19,4,4,0,0,1-.2,6.81,8.27,8.27,0,0,1-3.62,1.1c-6.31.3-12.62.62-18.94.61-6.64,0-13.28-.28-19.91-.61-2.78-.14-5.52-.83-8.3-1.07-3.9-.34-7.81-.67-11.72-.72-10.32-.12-20.64,0-31-.17a6.52,6.52,0,0,0-5.78,2.44c-3.31,4-6.9,7.78-10.32,11.69a30.56,30.56,0,0,0-2.71,3.66,12.68,12.68,0,0,0-.6,13.23c1,1.93,2.11,3.77,3,5.73,1.83,4,.09,7.17-4.24,7.91a12.17,12.17,0,0,1-2.39.09c-5.27-.16-10.55-.52-15.82-.49-14.4.07-28.8.29-43.2.46h-2.64c0-1.71-.06-3.28-.09-4.85,0-.84.39-1.72-.42-2.48-.19-.18-.06-.89.12-1.26.47-1,1-2,1.57-2.91,2.41.19,4.7.45,7,.53a16.32,16.32,0,0,0,7.31-.92c1.88-.81,3.59-.12,5,1.41a8.46,8.46,0,0,1,5.54-1.44c3,.13,6.08.24,9.11.44a11.44,11.44,0,0,0,4.46-.25c.9-.29,2.17.22,3.18.63a5.2,5.2,0,0,0,5.26-.41c1.85-1.33,3.72-2.36,6.34-1.79a5,5,0,0,0-.51-1.11c-1.78-1.92-1.85-4-1.17-6.48a16.63,16.63,0,0,0,.44-5c-.06-1.89.21-3.37,2-4.5a7.37,7.37,0,0,0,2.15-2.78,42,42,0,0,0,1.69-3.93c.06-.15.09-.36.21-.43,2.06-1.25,2.62-3.64,4.07-5.35.71-.84,1.28-1.79,2-2.82a12.56,12.56,0,0,1-1.86-1.1,3,3,0,0,0-3.1-.55c-2.08.59-4.1.66-5.63-1.39a3.34,3.34,0,0,0-1.69-.8,7.25,7.25,0,0,1-4.16-3.05,63.88,63.88,0,0,1-6.51-13.06,14.56,14.56,0,0,1-.44-3.53c0-.31.1-.63.07-.94-.32-2.6-.66-5.2-1-8.12-.23-.13-.79-.4-1.32-.71-1.68-1-2.42-2.33-2.16-3.92s1.09-2.37,3.17-2.68a2.41,2.41,0,0,0,1.91-1.32c-1.32-2.42-2.59-4.53-3.64-6.74a5.45,5.45,0,0,1,.67-6.09,3.2,3.2,0,0,0,.73-2.65,4,4,0,0,1,1.77-4.16c.42-.29.51-1,.78-1.56.43-.83.68-2,1.37-2.39,1.2-.69,1.49-1.7,2-2.8,1.23-2.93,2.38-5.93,4.52-8.38a4.18,4.18,0,0,0,.68-1.49,6.16,6.16,0,0,1,4.39-4.37,4.81,4.81,0,0,0,2.32-1.48,10.83,10.83,0,0,1,7.6-3.09c3.75-.19,5.74-2.54,7.58-5.31,1-1.46,2-2.92,3.07-4.28a28.24,28.24,0,0,0,4.15-6.11,17.07,17.07,0,0,1,3.33-4.36,13.32,13.32,0,0,0,3.71-6.31,5,5,0,0,1,3.8-4,14.17,14.17,0,0,1-.62-1.41,2.48,2.48,0,0,1,2.38-3.49c2.19-.14,2.87-.47,3.25-2.3a6.56,6.56,0,0,1,3.81-4.65,9,9,0,0,0,4.33-4.85,32.37,32.37,0,0,1,3.57-5.65,12.29,12.29,0,0,0,2.47-5.1,6.09,6.09,0,0,1,6.38-5c.79,0,1.58.15,2.57.26,1.45-1.95,3.92-2.9,5.48-5a7.61,7.61,0,0,1,5.39-2.84,3.65,3.65,0,0,0,2.51-1.11,2.44,2.44,0,0,1,1.24-.69,3.37,3.37,0,0,0,2.36-1.71c.94-1.5,2.33-1.75,4-.88.72.38,1.32.82,2.19.39a20.08,20.08,0,0,1,9.16-1.9,9.07,9.07,0,0,1,.57-1c1.08-1.44,2.25-1.74,3.68-.68a3.66,3.66,0,0,0,2.41.64,21.88,21.88,0,0,1,3.7.62c.85.17,1.68.45,2.53.54a10.43,10.43,0,0,1,4.9,1.65,16.24,16.24,0,0,0,5.35,2c2.58.58,4.14,1.9,4.5,4.58a4,4,0,0,0,2.66,3.15c2.67,1.14,2.82,1.36,2.51,4.45a14.86,14.86,0,0,0,2.09.82,3.22,3.22,0,0,1,2.77,3.14,10.34,10.34,0,0,0,.75,2.27l.46-.1c.12-.76.22-1.53.38-2.29.59-2.86,2.95-3.83,5.4-2.31a3.25,3.25,0,0,0,1.92.66,62.08,62.08,0,0,0,6.31-1.38,7.46,7.46,0,0,0,1.78-1.15c.53-.34,1.1-.95,1.63-.93,1.82.07,2.86-1.23,4.18-2.06a12.7,12.7,0,0,1,2.78-1.36,2.61,2.61,0,0,1,3,.86c.66.92,1.55.91,2.45,1.2,4.7,1.55,9.37,3.2,14.05,4.82,1.05.37,2.08.82,3.16,1.11,2.7.72,3.48,1.92,2.94,4.71a5.73,5.73,0,0,0,0,.75c.66.44,1.35.84,2,1.32a5.82,5.82,0,0,1,2.42,4.49c.14,2.71.67,3.32,3.36,4a6.54,6.54,0,0,1,1.78.64c2.18,1.34,2.49,3.51.82,5.46a9.72,9.72,0,0,1-.8.73c3.14,1.24,3.15,4.94,5.86,6.46.47-.17,1-.4,1.51-.55,2.15-.59,3.46,0,4.69,1.83a3.31,3.31,0,0,0,1.26,1.29,5.09,5.09,0,0,1,3.12,3.71,5.14,5.14,0,0,0,2.18,3c1.28.95,2.36,2.15,3.55,3.22,1,.85,1.94,1.65,2.92,2.46s2.19,1.78,3.59,2.91c-.25,0,0,.05.19,0,2.63-.74,3.92-.34,5.27,1.91.89,1.49,1.49,3.14,3.17,4.05a2.39,2.39,0,0,1,.92,1.62,7.57,7.57,0,0,0,2.33,4.09c1.41,1.55,2.72,3.15,2.87,5.39a4.44,4.44,0,0,0,.47,1.26c5.54,1.53,6.26,3.38,2.83,7.26l2.9,5.32c1.34.14,3.18-.36,4,1.48.74,1.65-.22,2.91-1.44,4.29l3.66,4.32c-2.22,2.28-5.09,4-5.59,7.67,1.9,2.68,1.47,4.69-1.76,6.22a9.28,9.28,0,0,0-4,2.9,3.39,3.39,0,0,1-3.65,1.3,3.17,3.17,0,0,0-2.63.51,31.29,31.29,0,0,1-4.34,1.68c-2.14,2.77-2.14,2.77-5.6,3,.29.85.58,1.67.84,2.5s.43,1.48.77,2.68l-6.44-3.18a2.6,2.6,0,0,0,.18,4c1.8,1.79,1.82,3.82.77,5.95q-1.17,2.36-2.51,4.64a10,10,0,0,0-1.64,3.67c-.25,1.66-1.4,2.46-3.27,2.58-1.22.08-2.45,0-4.19,0a4.7,4.7,0,0,0,3.68,1.51,18.59,18.59,0,0,0,3.11-.22,4.43,4.43,0,0,1,4.35,1.18,12.8,12.8,0,0,0,6.74-2.79c1.86-1.53,4.14-2.11,6.29-.06a2,2,0,0,0,1.54.34,9.12,9.12,0,0,0,2.91-1c2.2-1.36,4.74-1.28,7.11-1.78,2-.43,3.1,1.26,3.57,2.51,1.85,1.16,3.34,2.05,4.79,3,1,.65,2,1.33,2.9,2.06a5.59,5.59,0,0,1,1.47,1.52c.65,1.16,1.14,2.42,1.7,3.64a2.72,2.72,0,0,1-.52,3.13,3.89,3.89,0,0,0-1,3.75,8.26,8.26,0,0,1-1.89,7.81,14.38,14.38,0,0,0-2.28,3.82,5.89,5.89,0,0,0,0,2.25h4.1c1.81-2.44,4.5-3,6.09,1.75a2.72,2.72,0,0,0,3-.67,5.13,5.13,0,0,1,5.4-.65A10.88,10.88,0,0,0,675,773c2.34-.14,4.63-.29,6.81.78.21.1.52.27.67.19,1.75-.94,4-.29,5.59-1.79a2.92,2.92,0,0,1,2.93-.49c.81.21,1.67.2,2.49.38,1,.21,1.94.52,3.18.85,3.71-1.43,5.25-1.37,8.39.5a7.44,7.44,0,0,1,6.57.35,6.53,6.53,0,0,0,4.63.17,5.7,5.7,0,0,1,4.81,0,17.9,17.9,0,0,1,3.39-2.59c.7-.31,1.79.26,3,.49.75-.66,1.7-2.06,3.32-1.57a31.88,31.88,0,0,1,4,1.83l1-1.38c-2.48-3.92-.65-5.77,3.26-6.41a21.72,21.72,0,0,0-.15-2.73,8.84,8.84,0,0,1,.55-5.17c.29-.66.58-1.32.84-2,1.17-2.9,1.19-2.94,3.53-4.26-.39-2.32-.74-4.57-1.15-6.8a3,3,0,0,0-.57-1c-2-3.06-.87-5.61,2.79-6.08a1,1,0,0,0,.28-.08l2.23-3.3c-1.7-3.66-1.58-4.65.89-6.76-1.37-3.37-1-4.41,2.23-6.52l-.75-2.42c-2.58-.81-3.57-1.83-3.47-3.6s1.34-3,3.68-3.56a35,35,0,0,1,3.71-.52l2.31-5.87a3.78,3.78,0,0,1-2.35-3.52c0-.29-.7-.6-.92-.77l-3.67,5.24a14.42,14.42,0,0,1-.09,3.61c-.17.66-1.15,1.32-1.9,1.6-2.09.77-4.53-.62-5.34-2.87s-.07-3.44,2.38-4.43l2.4-5.07c-.34,0-.83,0-1.31,0a3.46,3.46,0,0,1-3.46-2.49c-.51-1.93-1.92-2.4-3.54-2.52-3-.22-3.92-1.11-4.07-4.11-.05-1-.09-2.08-.23-3.11a3.77,3.77,0,0,0-1.54-2.81c-1.68-1.2-1.64-3.17-1.68-5.06l-.76-.57c-1.8-1.36-2.21-2.82-.78-4.45a5.67,5.67,0,0,0,1.36-5,20.74,20.74,0,0,1,.36-5.47,3.11,3.11,0,0,1,1-2.1c2.15-1.21,2.94-3.68,5-5.05-.3-2.51,1.24-3.75,3.41-4.43a2.21,2.21,0,0,0,1.73-1.41,3.08,3.08,0,0,1,3.23-2c1.46,0,2.88.13,3.76-1.39a1.06,1.06,0,0,1,.59-.39c2.92-.87,5.34-2.71,8-4.11a14.43,14.43,0,0,1,7-1.46c2,0,3.73-.3,5.12-2a4.51,4.51,0,0,1,2.68-1.43c2.59-.33,4.13-2,5.42-3.94,1.5-2.28,2.24-2.67,4.71-2a5.18,5.18,0,0,0,5.28-1.8c.92-1.24,2-2.37,3.11-3.68-.24-.7-1-1.81-.87-2.83s1.08-1.83,1.8-2.95c-.75-1.71-.43-3.26,1.53-4.64.81-.57,1-2,1.42-3-2.3-3.59-2.09-4.62,1.1-6-1.21-2.87-1.16-3.14,1-5.24-1.36-2.58-.92-5.38-.67-8.15a5.35,5.35,0,0,0-.42-3,7.8,7.8,0,0,1-.28-4.23c-.48-.53-1-1-1.42-1.58a3.13,3.13,0,0,1-.36-3.78c1.54-2.71,1.4-5.68,1.2-8.63-.09-1.4-.38-2.78-.6-4.35-3.49-1.88-3.88-5.55.36-7.69-.25-.32-.46-.65-.72-.93-1.63-1.8-1.87-3.06-.6-5.17a5.23,5.23,0,0,0,.36-4.91c-1.86-.26-3.54-.85-4.07-3-.07-.28-.57-.51-.91-.66-1.09-.5-2.19-.95-3.12-1.35a22.37,22.37,0,0,1-4.06,1.74c-1.51.32-2.45-.87-3.14-2.3-2.54,1.09-5,2-7.29,3.18a4.7,4.7,0,0,0-2.57,4.79,14.23,14.23,0,0,1-1.71,8.08,5.41,5.41,0,0,0-.38,4.83c.35.9,0,2.17-.3,3.21a6.24,6.24,0,0,1-1,1.69l2,4.62c1,.51,2.14,1.09,3.29,1.65.35.17.76.47,1.1.41,2.71-.43,4.34,1.19,6,3.14,1.76-.63,3.59-1.19,5.39.05s2.05,3.14,2.62,5c.68.16,1.3.28,1.9.47,1.5.47,2.52,1.31,2.49,3.08a2.41,2.41,0,0,0,.56,1.45c2.26,2.7,2,4.31-1,6.1-.14.08-.25.19-.67.53,0,.79.06,1.81,0,2.83-.11,1.68-.25,3.36-1.74,4.55a1.72,1.72,0,0,0-.54,1.2,3.21,3.21,0,0,1-2.52,3.39c-3.91.94-5.62,3.57-6.29,7.27a5.58,5.58,0,0,1-3.85,4.34c.09,1.82-.35,3.35-2.08,4.25a1.74,1.74,0,0,0-.59,1c-.92,2.63-1.82,3.08-4.47,2.15l-1.07-.38c-.34.41-.66.86-1.05,1.25a4.12,4.12,0,0,1-4.39,1.16,21.19,21.19,0,0,1-2.05-.64,3.09,3.09,0,0,0-2.93.17c-3,1.57-4.47,1.17-7-1.17a18.47,18.47,0,0,0-3.27-2l-5.36-3.14a3.11,3.11,0,0,0-1-.52c-2.35-.3-3.54-2-4.62-3.79-1.33-2.27-2.67-4.54-4.07-6.77a19.43,19.43,0,0,1-2.74-6.07c-.45-2-1.51-3.88-2-5.88a43.61,43.61,0,0,1-1.39-12.35,78.21,78.21,0,0,0-.29-8.39,30.23,30.23,0,0,1,.56-9.29,8.07,8.07,0,0,0-1.88-7.18c-1.22-1.48-2.38-3.15-4.61-3.55-.71-.13-1.33-1.25-1.81-2a13.42,13.42,0,0,1-.89-2.52c-1.16.59-2.1,1.11-3.08,1.57a18,18,0,0,1-3.26,1.42,2.88,2.88,0,0,1-3.68-2.48,7.79,7.79,0,0,0-.24-1,18.21,18.21,0,0,0-1.85-.33,19.59,19.59,0,0,1-8-3,4.38,4.38,0,0,1-2.22-3.53,2.65,2.65,0,0,0-1-2.06,3.73,3.73,0,0,1-.9-1.11c-1.14-2-2.24-4-3.37-6-2-.28-4.29-.21-4.84-2.74-.5-2.28,1.3-3.18,3.17-4.15-2.07-2.32-3.38-4.66-.84-7.28-1-1.85-2-3.63-3-5.4a2.73,2.73,0,0,0-.69-.92c-1.95-1.36-3.93-2.67-6.09-4.12l-1,.43a4.3,4.3,0,0,1-5.25-1.06,3.19,3.19,0,0,0-2.45-1.18,5.26,5.26,0,0,1-1.87-.38,3.21,3.21,0,0,0-2.76.13,5.69,5.69,0,0,1-5.08-.06,6.22,6.22,0,0,0-3-.32c-2.57.16-5.1.33-7.54-.82a3.23,3.23,0,0,0-1.84,0c-2.5.51-5,1.14-7.49,1.6a19.61,19.61,0,0,0-7.18,2.55,17.17,17.17,0,0,1-7,2.27c-1.5.21-3,.41-4.53.49a4.31,4.31,0,0,0-3.72,1.65,3.38,3.38,0,0,1-4.16.88,20.28,20.28,0,0,1-1.89-1,21.76,21.76,0,0,1-2.57.69,5.77,5.77,0,0,1-2.36,0c-2.28-.65-4.51-1.47-6.78-2.17a18.59,18.59,0,0,0-2.56-.55,19.52,19.52,0,0,1-7.91-3.26,7,7,0,0,1-1.42-1.58c-.73-.94-1.42-1.92-2.12-2.88a2,2,0,0,0-2.07-.8c-2.5.24-3.54-.46-3.75-2.88s-1.57-4-2.85-5.68a1.54,1.54,0,0,0-.49-.52c-1.93-.87-3.89-1.7-5.81-2.59-1.3-.6-2.57-1.26-3.85-1.91a26.09,26.09,0,0,0-2.32-1.21,1.71,1.71,0,0,0-1.92.51c-2.38,2.25-3.53,2.37-6.55.85a10,10,0,0,0-3.82,4,5.69,5.69,0,0,1-2.59,2.72,4.36,4.36,0,0,0-1.41,1.22,40.36,40.36,0,0,1-9,8.62,4,4,0,0,0-1.36,1.85,7.08,7.08,0,0,1-3.37,3.89,10.54,10.54,0,0,0-1.45,1.17c-.06,0-.08.14-.14.2-1.55,1.55-3.81,2-5.29,3.85-1.34,1.68-3.74,2-5.88,2.42a10.72,10.72,0,0,1-6.15-.29,2.87,2.87,0,0,0-2.27.17c-3.37,1.13-6,.31-8.29-2.48a5,5,0,0,0-1.22-1.1c-1.9-1.16-3.83-2.26-6.05-3.57-2.21.88-3.94-.29-5-2.56a4.08,4.08,0,0,0-3.75-2.55c-3.83-.1-7.66-.12-11.49-.11-2.24,0-4.55.5-6.69.09a27.83,27.83,0,0,0-8.25-.41,3.35,3.35,0,0,1-1.19-.08c-2.29-.62-3.68.69-4.66,2.39a3.89,3.89,0,0,1-3.7,2.14c-.72,0-1.44,0-2.16,0-3.5-.06-4.29-.67-5.2-4.17-1.68,1.18-3.89,1.21-5.25,3.07-.44.61-1.68.73-2.59.87a9.15,9.15,0,0,1-2.26-.25,5.75,5.75,0,0,1-4.85,2.47,4.39,4.39,0,0,0-2,1.05c-.85.58-1.53,1.53-2.45,1.85a48.46,48.46,0,0,1-7.76,2.16,9.14,9.14,0,0,0-4.71,2.1,25.44,25.44,0,0,1-3.67,3.08,92.91,92.91,0,0,1-8.92,4.53,8,8,0,0,1-3.54.16,6.14,6.14,0,0,0-3.18.59c-1.73.8-3.29,1.84-4.95,2.72a17.57,17.57,0,0,1-9.58,1.59c-.47,0-.94-.13-1.54-.22-.17.37-.32.71-.49,1-1,2-2.82,2.52-4.53,1.07-2-1.69-4.45-2-6.79-2.55a12.36,12.36,0,0,1-5-2c-1.53-1.16-3-2.4-4.42-3.69a48.27,48.27,0,0,0-10.08-7.29,35.15,35.15,0,0,1-2.92-2.05,6.3,6.3,0,0,0-1.65-.79c-2.49-.74-3.16-2.7-1.51-4.77.64-.81,1.49-1.45,2.17-2.23s1.12-1.52,1.67-2.28c-2.58-3.14-2.42-6.65-1.91-10.19a3.62,3.62,0,0,1,3-3.09c2.18-.55,2.17-.57,2.38-2.68a3.19,3.19,0,0,1,.26-1.16,9,9,0,0,0,1.19-4.91c-.08-1.43,1.37-2.52,3.12-2.84.93-.17,1.87-.26,2.95-.4.17-1.08.26-2,.46-2.95.54-2.51.92-5.13,4-6a.6.6,0,0,0,.37-.28c1-2.49,3.22-2.87,5.72-2.95.68-3.47,3.07-4.86,6.43-4.93.28-1.46.49-2.78.81-4.09a4.94,4.94,0,0,1,2.88-3.54,7.64,7.64,0,0,0,3.9-5.19c.66-2.57,1.38-3,4.09-2.44a3.69,3.69,0,0,0,2-.41c2.38-1,4.75-2,7.43-.84.64-.91,1.18-1.79,1.83-2.58,1.35-1.66,2.58-2.05,4.61-1.26a2,2,0,0,0,2-.2,20.47,20.47,0,0,0,2.65-2c1.77-1.66,3-1.89,4.84-.5a3,3,0,0,0,2.44.63c3.16-.49,6.3-1.12,9.53-.63.48.07,1-.31,1.55-.48,2.24-.76,4.59-1.12,6.77-2.13a5.66,5.66,0,0,1,2.84-.28,5.2,5.2,0,0,0,4.15-1.14c.82-.66,2.24-.57,3.52-.85,1.84-2.85,3.58-3.34,6.93-1.95a3.32,3.32,0,0,0,1.77,0c3.6-.67,7.19-1.56,10.9-1.11,2.52.31,5,.69,7.81,1.07a12.88,12.88,0,0,1,5.15-4.31c2.69-1.47,3.7-1.31,6,.85a5.26,5.26,0,0,1,4.78.23,3,3,0,0,0,1.6.17c1.11-.08,2.21-.33,3.32-.37s2.06.1,3.25.18c.19-.44.38-.94.61-1.42a3.41,3.41,0,0,1,5.74-1.05,14.24,14.24,0,0,1,1.23,1.47c1.26,1.53,2.49,1.7,4.07.54,1.94-1.42,3.32-1.48,5.21,0a2.08,2.08,0,0,0,1.91.55,12.39,12.39,0,0,1,2.4,0c2.32-2,3.35-1.95,5.81-.09a12.13,12.13,0,0,0,3.34,1.75,9.93,9.93,0,0,1,4.59,2.89,7.49,7.49,0,0,0,2.31,1.56c3.69,1.9,7.44,3.68,11.08,5.68a11.42,11.42,0,0,1,2.7,2.62c1.19,1.34,2.44,2.54,4.35,2.65a3.88,3.88,0,0,1,3.65,2.66,12,12,0,0,0,5.34,5.8c2.17-.71,4.08-1.25,5.92-2a7.92,7.92,0,0,0,2.08-1.53q2.43-2.11,4.79-4.3a3.76,3.76,0,0,0,1.13-1.43,5.56,5.56,0,0,1,3-3.31c1.27-.67,2.66-1.12,3.9-1.84a21.57,21.57,0,0,0,4.74-3.18c1.68-1.72,3.3-2.06,5.35-1a4.68,4.68,0,0,0,.77.22,13.52,13.52,0,0,1,6.83-2.52,4.59,4.59,0,0,0,3.13-1.55,5,5,0,0,1,5.22-1.58c.94.21,1.88.39,2.81.61a5.58,5.58,0,0,0,4.12-.32c1.5-.75,3.23-1,4.66-2.1,1-.76,2.17-.35,3.09.44a7.94,7.94,0,0,1,1,1.21l4.95-1.15a2.67,2.67,0,0,1,3.14-1.24c2.13.74,1.83,2.76,2.13,4.56,2.08.41,3.83,1.8,6.13,1.64.82-.06,1.67,1,2.57,1.13,2.66.47,5.35.75,8,1.1,1.41.19,2.84.29,4.22.58,2.57.55,5.11,1.26,7.68,1.82a2.11,2.11,0,0,0,1.5-.36c2.64-1.93,3.5-1.91,6,.3.29.25.61.47,1,.78.52-.61.93-1.18,1.44-1.67,1.15-1.1,2.64-1.3,3.63-.14,1.12,1.31,2.62,1.32,4,1.91.61-.57,1.17-1.15,1.78-1.65a2.78,2.78,0,0,1,3.33-.43,2.82,2.82,0,0,1,1.29,2.9c-.06.67-.15,1.34-.23,2,.28.08.4.14.43.12,2.11-2.33,4.38-2.4,7.06-.84a5.93,5.93,0,0,0,5.28.51c1.16-.43,2.66-.06,4,.1,2,.24,3.94.56,5.9.95,1.4.28,2.76.73,4.45,1.18a3.11,3.11,0,0,1,1.1-.63c.83-.16,2.1-.48,2.48-.08,1.94,2.09,4.93,1.66,7.07,3.19a6,6,0,0,0,1.82.57c3.69,1.07,7.32,2.26,10.48,4.57a4.94,4.94,0,0,0,2,.68,12.23,12.23,0,0,1,8.39,5.85,4.47,4.47,0,0,1,.85,2.2c0,2.08,1.17,3.55,2.06,5.24,1.86,3.54,3.64,7.12,5.3,10.75a8.66,8.66,0,0,1,1,5.8c-.11.45.39,1.14.74,1.61,2.08,2.75,3.55,5.67,3.12,9.28a5.6,5.6,0,0,0,.44,2.08c.4,1.37.79,2.76,1.31,4.09a11,11,0,0,0,1.35,2c1.48-1.52,2.8-2.7,3.9-4.06a8.57,8.57,0,0,0,1.64-3.11c.84-3.25,1.93-3.83,5-2.31,1.24-.78,2.21-1.66,2-3.41a2.47,2.47,0,0,1,.82-1.89c2.35-1.79,2.43-4.67,3.51-7.05a13.72,13.72,0,0,0,.56-3.06c.32-1.66.57-3.35,2.32-4.23a1.27,1.27,0,0,0,.55-.71c.67-2.27,1.83-4.37,1.81-6.89a9.89,9.89,0,0,1,1.16-4.07,3.68,3.68,0,0,1,3.26-2.16c2.25,0,3.94-1.17,5.69-2.27a12.55,12.55,0,0,0,2.5-1.85c1.66-1.75,4.11-1.56,6-2.65,1.95.78,4,.16,6,.52,1,.19,1.88,1.31,3.06,2.19a4.21,4.21,0,0,1,4.65,2,1.86,1.86,0,0,0,1,.58,9.29,9.29,0,0,1,1.6.46A7.89,7.89,0,0,0,817,464.4c1.52-.2,2.58,1.15,2.53,2.85a7,7,0,0,0,1,3.68c1.14,2.16,1.59,4.68,2.91,6.83.26.42.12,1.08.18,1.79l1.12.15a3.19,3.19,0,0,1,3,2.93,5.38,5.38,0,0,1-.11,3.06c-1.19,2.26-.48,4.3.16,6.46.54,1.82.81,3.65,2.12,5.23.6.72.5,2.09.53,3.18A11.91,11.91,0,0,1,830,503c1.51.88,2.89,1.87,2.26,3.92,1.64,2.14.91,5.52,4,7.16a20.83,20.83,0,0,0,.46-3.47c-.17-5.12-.51-10.19-2.44-15.06-.78-2-.85-4.21-1.21-6.33-.21-1.26-.38-2.53-.48-3.8a3.32,3.32,0,0,0-1.94-3c-2.28-1.24-2.34-3.42-.52-5.75-.2-1.32-.36-2.58-.6-3.81a6.77,6.77,0,0,0-.56-1.49c-.23-.5-.78-1-.72-1.45.25-1.79-.85-2.77-1.94-3.87a11.17,11.17,0,0,1-3-5.92c-.21-1.08-.44-2.15-.63-3.09a22,22,0,0,1-3.64.28,2,2,0,0,1-1.37-1.19c-1.22-3.5-1.91-4.44.93-6.69l-.63-10.06c-1.48-.92-2.05-2.6-1.84-4.83a16.32,16.32,0,0,0-.71-4.47c-.4-2-.91-4.07-.06-6.26l-6.34-6.5,7-1.56c-1.42-1.54-2.18-3.09-1.34-5.08.16-.39-.29-1-.46-1.56a10.6,10.6,0,0,1-.52-6.12,4.39,4.39,0,0,0-.06-2.34c-.76-2.35-1.66-4.65-2.55-7.09a9.56,9.56,0,0,1-1.06-.3c-2.36-.93-3.16-2.64-2.2-5a2.36,2.36,0,0,0,.12-2.22,11.4,11.4,0,0,1-.45-10.18,1.29,1.29,0,0,0,0-.47c-3.55-4.38-3.56-4.48-.94-8.24l-1.57-5.59c-.31-.14-.74-.32-1.16-.52a2.88,2.88,0,0,1-1.76-2.88c.07-2.48-.85-4.24-3.35-5.11a9.15,9.15,0,0,1-3-1.9c-1.51-1.38-2.73-3.1-4.84-3.7a1.11,1.11,0,0,1-.55-.45c-1.21-1.85-2.38-3.69-4.37-4.9a3.09,3.09,0,0,1-.89-2.37c.09-3.59.3-7.17.58-10.75.16-2,1.55-3.24,3.36-4.25-1.12-1.73-1.64-3.57-.1-5.07a33.4,33.4,0,0,1,4.5-3.13c-.54-2.73.84-4.88,3.32-6.48a5.5,5.5,0,0,0,1.76-2.7c.91-2,.2-3.86.41-6l-2.6.89c-.41,2.46-2.07,3.76-4.13,4.66-1.87.82-3.55,1.83-4.44,3.79-.28.63-.47,1.3-.75,1.93a29.44,29.44,0,0,1-2.38,5.15,8.14,8.14,0,0,1-3.35,2.45c-2.88,1.29-5.62,3.09-9,3a5.62,5.62,0,0,1-1.43.05c-2.54-.82-5.07-1.69-7.59-2.58a1.93,1.93,0,0,1-.7-.64c-1.31-1.57-2.6-3.16-3.93-4.78-1.73.5-3.35,1.65-5.1.58s-1.54-3-1.49-4.66c-3.24-2.9-3.07-4.78.71-8.82-2.26-2.6-2.31-3-.56-5.71l-1,.26c-2.65.65-4.39-.19-5.29-2.7-.31-.86-.5-1.66-1.55-1.87a1.2,1.2,0,0,1-.77-.54c-.95-2-2.78-2.86-4.73-3.59a1.8,1.8,0,0,1-1-1c-.45-1.52-1.9-2.09-2.82-3.16a2.13,2.13,0,0,0-1.18-.73c-2.37-.34-4-1.44-4.37-4.18-1.33.74-2.41,1.4-3.53,2-2.42,1.2-4.06.26-4.28-2.46-.07-.87,0-1.75,0-2.44-1.37-1-2.52-2-3.77-2.83-.57-.37-1.44-.29-2-.65-2.26-1.44-4.91-1.82-7.33-2.8a4,4,0,0,1-1.43-.85,3.82,3.82,0,0,0-3-1.14,4.31,4.31,0,0,1-4.58-3.43c-.15-.55-.87-1-1.4-1.39-1.13-.86-2.3-1.66-3.44-2.5-.26-.19-.46-.56-.72-.61-2.39-.4-3.51-2.62-5.38-3.77-.49-.3-.75-1-1.08-1.53-.52-.84-1.26-1.32-2.19-.88-1.22.59-2.51,1.12-3.56.07a16,16,0,0,1-2-3.37,3.5,3.5,0,0,1-2.34-4.08c-1.05-.78-2-1.51-2.95-2.15a16.39,16.39,0,0,0-1.87-.89c-.91-.44-2.2-.66-2.64-1.39a3.56,3.56,0,0,0-3.11-1.82,3.88,3.88,0,0,1-3.65-2.59c-.74-1.73-2.46-2.19-4.15-2.3-3.23-.22-3.82-.66-4.51-3.94-1.75-.66-4.28.26-5.26-2.25-2.59.5-4.7,0-6.33-2.1a3.63,3.63,0,0,0-1.64-.83c-.52-.19-1.13-.15-1.62-.38a5.23,5.23,0,0,0-4.51-.25c-.91.37-2.29-.25-3.41-.57-.67-.19-1.22-.8-1.89-1a4,4,0,0,0-3.86.42c-1.76,1.26-2.34,1.12-4-.28-.24-.2-.48-.59-.7-.58-2.16.1-3.57-1.14-4.76-2.85l-1.69,1a2.39,2.39,0,0,0,.16.58c1.6,2.36,3.24,4.7,4.78,7.09a2.93,2.93,0,0,0,1.67,1.54c4.28,1.28,6.46,4.2,6.54,8.6,0,.24,0,.48,0,.87a14.65,14.65,0,0,1,5.73,6.43,3.06,3.06,0,0,0,1.18,1,13,13,0,0,1,2,1.19,3.3,3.3,0,0,0,2.08.93c1.86.23,2.38.86,2.79,2.72a2.43,2.43,0,0,0,.67,1.39c2.65,1.89,4.8,4.48,8,5.58a3.94,3.94,0,0,1,2.57,3.25,6.06,6.06,0,0,0,1.7,3.09,36,36,0,0,1,3,3.75,4.87,4.87,0,0,1,.07,5.84,2.85,2.85,0,0,0-.45,1.73c.15,1.42-.05,2.56-1.72,3,.27.76.48,1.35.68,1.95a3.28,3.28,0,0,1-1.6,4.27,5.15,5.15,0,0,0-1.75,1.43,4.25,4.25,0,0,1-4.94,2c-2.89-.58-5.79-1.15-8.62-1.71-2.16,2.72-4.14,3.17-7.18-.69a5.48,5.48,0,0,1-4.74-.75c-.41-.31-1.21-.18-1.82-.12-2,.17-4,.46-5.5-1.46a1.16,1.16,0,0,0-.83-.36c-3.14,0-5.14-1.89-7.07-4a2.3,2.3,0,0,0-.38-.28c-1.82.37-2.62,1.87-3.57,3.21,1.5,3.69-.77,6.19-5.42,7.06a29.73,29.73,0,0,1-1.24,3.88,4.19,4.19,0,0,1-4.15,2.73,2.14,2.14,0,0,0-2,1,6.89,6.89,0,0,0-1.58,6.32,6.54,6.54,0,0,1-1.1,6.33,4.89,4.89,0,0,0-.72,3.07c.07,2.08-.58,3.19-2.57,3.63A3.94,3.94,0,0,1,588,318c-1.87-.44-2.94.85-4.12,1.85a1.92,1.92,0,0,0-.43,1.24c-.06.91-.45,1.66-1.33,1.73a3.37,3.37,0,0,1-1.87-.66c-.79-.5-1.48-1.17-2.23-1.75-1.58-1.21-3.28-2.31-3.79-4.2a22.44,22.44,0,0,1-3.56,1.42,2.87,2.87,0,0,1-1.95-.73c-1.77-1.35-1.81-3.3-.25-6.15-4.91-2.5-6.65-6.32-5.6-12.17l-2.24-3.7c-2.18,2.53-3.92,3-5.62,1.53s-1.51-3.89.51-6.34c-1-1.15-2.13-2.63-1.23-4.18.71-1.24,2.06-2.11,3.16-3.17a8.85,8.85,0,0,1-2.07-1.63,10,10,0,0,1-1-2.67c-4.15-1.17-5.42-4.87-2.87-8.5.41-.59.8-1.2,1.2-1.81l-.44-.33c-.48.56-.91,1.17-1.44,1.68A11.24,11.24,0,0,1,549,271a2.65,2.65,0,0,1-3.15-.22,2.4,2.4,0,0,1-.88-3c1.13-2.41,2.47-4.73,3.87-7.36a7.41,7.41,0,0,1-.93-1.86A9.69,9.69,0,0,1,548,256c-1.44,0-2.88.06-4.31,0a3.84,3.84,0,0,1-3.57-2.06c-1-2.15-2.83-3.06-4.84-3.83l-1.21-.46c-1.83,2.28-4,1.84-6.22.68-1-.52-2-1-3.12-1.58-1.8,1.61-3.74,2.52-5.82.22a11.61,11.61,0,0,0-1.57.56,9.17,9.17,0,0,1-6.41.85c-2.47-.47-5-.49-7.5-1.3a2.93,2.93,0,0,0-1.8.31,5.46,5.46,0,0,1-4.18.18,6.33,6.33,0,0,0-2.59-.22q-7.77.63-15.53,1.37c-1.75.17-3.49.41-5.22.72a5.3,5.3,0,0,0-1.87.85c-1.71,1.13-3.33,2.39-5.07,3.46a9,9,0,0,1-5.53,1.26,3,3,0,0,0-2.63.75,7,7,0,0,1-6,1.82,10.23,10.23,0,0,0-4.42.58c-3.55,1.17-7.28.91-10.94.48a4.6,4.6,0,0,1-3.64-2.83c-.34-.72-.67-1.44-1.1-2.39l-3.62,3c0-4.31-.38-8.18,0-12a4.46,4.46,0,0,1,2.83-3.59,2.43,2.43,0,0,0-2-2.67c-3.29-.87-3.83-1.61-3.75-5,0-.24,0-.48,0-.81-1.36-.88-2.76-1.75-4.12-2.68a3.8,3.8,0,0,1-1.65-3.29c0-.62.06-1.24.11-2-1.73.78-3.53,1-4.65,2.56a1.81,1.81,0,0,1-1.24.66c-2.06.08-3.56,1.28-5.16,2.34a16.32,16.32,0,0,1-2.37,1.14c-1.08.48-2.18.94-3.26,1.42a14.49,14.49,0,0,1-2,.9,17.25,17.25,0,0,0-7.7,4.41c-2.39,2.34-3.46,2.42-6.28,1.08-2,.69-4,1.3-6,2a3.57,3.57,0,0,0-1.4,1.17,5.79,5.79,0,0,1-4.58,2.21c-1.49.08-3,.32-4.45.54a1.23,1.23,0,0,0-.77.47c-1.49,2.3-3.84,2.83-6.28,2.83a4.86,4.86,0,0,0-4.08,2,11.52,11.52,0,0,1-2.72,2.32c-2,1.25-4.05,1.42-5.85.1-1.81.62-3.47,1.15-5.08,1.77a2.75,2.75,0,0,0-1.45,1,4.85,4.85,0,0,1-4.08,2.57c-2.55.35-5.07.65-7.24,2.24a8.31,8.31,0,0,1-1.81.59,18.14,18.14,0,0,0-2.34,1.08c-1.17.68-2.31,1.41-3.42,2.17a5,5,0,0,0-1.34,1.24,6.53,6.53,0,0,1-3.16,2.41,30.82,30.82,0,0,0-4.77,2.64c-.37.24-.45,1-.64,1.47-.73,2-1.57,2.63-3.73,2.66-1.7,0-3.07.4-3.93,2.12-.73,1.44-1.51,1.8-4,2.71-.13.34-.29.78-.47,1.21-.92,2.18-2.09,2.77-4.35,2-.86-.3-1.51-.44-2.19.48.9,1.86,2.66,4,.11,5.81-2.12,1.51-3.91.07-5.26-1.22l-5.44,1.53a4.66,4.66,0,0,1-3.29,2.83c-.22,0-.56.2-.6.35-.42,1.9-2.06,2.31-3.45,3.23a40.51,40.51,0,0,1-4.2,2.1,20.7,20.7,0,0,0-4.78,3.54c-2.39,2.32-2.31,2.41-5.38,2.64-.48.58-1,1.21-1.51,1.78a2.68,2.68,0,0,1-3.05.83,4.23,4.23,0,0,0-2.78-.06,6,6,0,0,1-5-1.07,4,4,0,0,0-3.36-.79,10.31,10.31,0,0,1-3.34.13,8.13,8.13,0,0,1-2.76-1.2c-.94-.57-1.71-1.43-2.66-2-2.08-1.18-4.28-2.17-6.34-3.39a42,42,0,0,1-3.61-2.72c-.43-.32-.91-.58-1.35-.89a13.62,13.62,0,0,1-1.7-1.28c-1.3-1.27-2.55-2.6-3.48-3.56l-5,.32a3.84,3.84,0,0,0,1,.73,6.3,6.3,0,0,1,4.53,5.07,13.78,13.78,0,0,0,3,6.13c1.29,1.43,2.64,2.79,3.89,4.25a11.59,11.59,0,0,1,1.9,2.74,3.58,3.58,0,0,1,.19,2.51c-.46,1.15-1.22,2.14-.59,3.47a1.06,1.06,0,0,1-.23.89,6.13,6.13,0,0,0-1.3,4.2A4.34,4.34,0,0,1,231,324.4a2.86,2.86,0,0,0-1,2.72,3.85,3.85,0,0,1-2.16,4.2c-2.29,1.13-3,3.1-3,5.33a13.16,13.16,0,0,1-3.33,9c-1.25,1.39-2,3.14-.75,5a2.3,2.3,0,0,1,.17.45c1.21,3.19.32,4.62-3.21,5a7.94,7.94,0,0,0-1.57,4.34,6.42,6.42,0,0,1-3.32,5.5,2,2,0,0,0-1,2.22,5.8,5.8,0,0,1-1.72,5,2.31,2.31,0,0,0-.64,1.47c-.07,3.08-1.59,5.47-3.47,7.71-.41.49-.78,1-1.18,1.51,1,1.58,2,3.09,3,4.64.82,1.36.42,3.3-1,3.63-2.33.53-2.61,2.24-3.22,4.22,4.07.79,5.33,3.49,4.86,7.22a11,11,0,0,1,3.24.29,14.2,14.2,0,0,1,2.61,2,4.8,4.8,0,0,0,1.63.9c4.6,1.1,5.27,1.86,5.62,6.67,1.85.86,3.46,2,3.35,4.4,1.9,2,1,4.9,2.43,7.09.57.86.42,2.32.3,3.48a10.27,10.27,0,0,0,1,5.57c2,4.17,1.19,8.28-.59,12.25A3.56,3.56,0,0,1,225.6,448a3.65,3.65,0,0,0-3.1,2.58c-.38,1-1,1.2-2,1.36-2.39.38-4.8.53-7.1,1.68a9.87,9.87,0,0,1-7.72.12c-.93-.33-1.46-1.64-2.36-2.2s-2.41-.43-3-1.14c-1.66-1.89-4.23-2.21-6-3.85a1.77,1.77,0,0,0-1.52-.14,4.08,4.08,0,0,1-4.14-.61,4.63,4.63,0,0,1-5.16.9,3.07,3.07,0,0,0-.95-.13c-2.37,0-4-.93-4.14-3.65-3.49-.4-7.06.33-10.2-1.82a9.17,9.17,0,0,0-.82.91,3.21,3.21,0,0,1-4,1.4,19.18,19.18,0,0,0-8.08-.42,3.57,3.57,0,0,0-3.06,2,4.82,4.82,0,0,1-3.26,2.63,50.57,50.57,0,0,1-7,1.37c-1.48.16-2.57.48-3.33,1.85a7.16,7.16,0,0,1-4.15,3.43,8.6,8.6,0,0,0-2.21,1.38c-.58.43-1,1-1.62,1.42a12.73,12.73,0,0,0-4.62,4.91c-1.17,2.26-2.58,2.43-5.72,1.51a11.22,11.22,0,0,1-5.09,5.45c-.36.17-.51.76-.76,1.16a10.83,10.83,0,0,1-1.28,2,3.73,3.73,0,0,0-1.15,3.65c.39,2.21-.55,3.13-2.82,3.49a11.67,11.67,0,0,0-2.14.86c-.74.28-1.49.52-2.4.83.06,1.15.15,2.34.17,3.53,0,2.08-.18,4-2.59,4.87a2.08,2.08,0,0,0-.88,1.71,4.85,4.85,0,0,1-1.4,3.93,2.16,2.16,0,0,0-.63,1c-.46,2.73-2.25,4.33-4.79,5.49.85,2.95-1.15,5.17-1.94,7.7-.28.89-1.51,1.49-2.51,2.41.43.41.93.86,1.4,1.33.89.89,1.77,1.79,2.65,2.69a13.15,13.15,0,0,0,1.65,1.61c1.7,1.2,1.73,2.38.88,4.3-2.2,4.93-6.32,8.37-9.39,12.61a13.12,13.12,0,0,1-2.55,2.51,3.28,3.28,0,0,1-4,.19,13.72,13.72,0,0,1-4.87-5.51,3.19,3.19,0,0,1,.26-3.63c1.85-2.15,2-4.83,2.54-7.38.14-.62.17-1.28.35-1.88.64-2.12,1.2-4.13.63-6.47a6.76,6.76,0,0,1,1.77-5.79,8.84,8.84,0,0,0,1.78-3.57,11.72,11.72,0,0,1,5.93-7.31,7.71,7.71,0,0,1,1.89-5.49,4.65,4.65,0,0,0,.77-2,5.45,5.45,0,0,1,3.29-4.27c-.14-.48-.26-.92-.4-1.35a4,4,0,0,1,1.08-4.41,35.17,35.17,0,0,0,3.93-5.07,38.22,38.22,0,0,1,6.06-6.08,4,4,0,0,0,1.71-2.66,5.59,5.59,0,0,1,2.37-3.75,4.5,4.5,0,0,0,1.35-1.32,12.34,12.34,0,0,1,5-4.75,6,6,0,0,0,2.94-3,3.87,3.87,0,0,1,1.69-1.58c1.71-1,3.47-2,5.23-2.9,2.11-1.13,4.23-2.24,6.34-3.35.21-.11.55-.11.65-.27,1.83-3.16,5.95-3,8.18-5.54a3.07,3.07,0,0,1,1.68-.88c3.45-.63,6.41-2.42,9.51-3.88.87-.41,1.75-.78,2.65-1.12.44-.17,1-.44,1.38-.31,2.6.87,5.18-.76,7.81.16,2.14-3.44,5.13-3.48,8.44-2.3a29.46,29.46,0,0,1,9.19,5.07,8.18,8.18,0,0,0,2.52,1.22c1.4.5,2.83.89,4.64,1.44a5.45,5.45,0,0,1,5.21-.46,6.27,6.27,0,0,0,2.61.08,8.47,8.47,0,0,1,4.86,1,28.09,28.09,0,0,1,8.84,6.87,4,4,0,0,0,1.07.87c1,.62,2,1.19,3.13,1.83,1.6-2,4.63-.67,6.64-2.52a12.32,12.32,0,0,0-1.7-4.55,5.62,5.62,0,0,1-.76-4.58,2.9,2.9,0,0,0-.17-1.83,23,23,0,0,1-1.72-7.93,8.06,8.06,0,0,0-.39-2.11c-.83-2.49-1.71-5-2.63-7.58-2.5.19-4.31-.88-4.72-3.5l-6-2.66c-.83,1.81-2.14,3.15-4.51,2.75-2.18-.37-3.3-1.76-3.77-3.94-6-.34-12.08.26-17.92-2.27-3.68,2.24-6.69.44-9.47-2.25a12.29,12.29,0,0,0-1.32.8,32.53,32.53,0,0,1-11.64,6c-1.07.3-2.06.85-3.12,1.21-2.33.78-4.67,1.58-7,2.24a2.89,2.89,0,0,0-1.75,1,15.31,15.31,0,0,1-2.63,2.39c-1.32,1-2.72,2-4.07,3a10.23,10.23,0,0,1-2.11,1.57c-3.83,1.44-6.35,4.71-9.65,6.89s-6.17,4.82-9.21,7.29c-1.86,1.51-3.6,3.09-6.15,3.51a7.06,7.06,0,0,0-3,1.9c-1.09.94-2,2.07-3,3.08a6.52,6.52,0,0,1-5.12,2.19,4.12,4.12,0,0,0-1.86.79,18.46,18.46,0,0,1-3.32,1.84,7.59,7.59,0,0,0-4.5,3.24c-.84,1.26-1.85,2.35-1.82,4a2.4,2.4,0,0,1-.56,1.3,5.78,5.78,0,0,0-1.34,5.22c.43,1.75-.93,3.15-2.81,3.56a5.46,5.46,0,0,1-2.14.11,2.64,2.64,0,0,0-3.23,1.68,4.42,4.42,0,0,1-4.4,2.36,3.84,3.84,0,0,0-2,.42,5.71,5.71,0,0,1-7.39-.94L61,469.21v-2.4c1.51-.58,1.84-1.95,2.41-3.28,2.28-5.35,4-7.2,8.73-6.91,1-3.87,4.83-4.32,7.63-6.12.51-.33,1.4,0,2.09-.16a4.42,4.42,0,0,0,2.12-.81,30.81,30.81,0,0,0,2.41-3.08c1.73-2.18,3.48-4.35,5.21-6.53.28-.36.52-.75.9-1.31L88,435.57c1.47-2.64,2.75-5.12,4.2-7.5a11.23,11.23,0,0,1,2.4-2.64c2.75-2.3,5.57-4.53,8.38-6.77s5.53-4.34,8.27-6.54a2.75,2.75,0,0,0,1.08-1.38,4.06,4.06,0,0,1,2.89-3.23c1.26-.49,2.6-.75,3.89-1.18a5.67,5.67,0,0,0,2.35-1.05c1.7-1.84,3.85-2.15,6.12-2.21,1.43,0,2.87,0,4.33,0,.85-1.8,1.89-3.34,3.87-3.77,2.84-.62,5.7-1,8.09.56a28.33,28.33,0,0,1,4.84-1.85c2.56-.47,5-.75,7.37-2.23,1.93-1.22,4.33-.71,6.47-.08.71-.53,1.33-1,2-1.49a4.62,4.62,0,0,1,4.33-.76c2.26.83,4.24.19,6.25-.68,1.54-.66,3-1.43,4.63-2a7,7,0,0,1,7.13,1.66,3.83,3.83,0,0,1,1.34,4.5,2.58,2.58,0,0,0,1.79,3.62c.73.25,1.47.47,2.4.77-.15-1.45.86-1.66,1.73-2.1,1.75-.9,1.82-2.33.25-3.64a2.69,2.69,0,0,1-1-3.59c.35-1,.83-1.89,1.24-2.83-2-2.88-1.94-4.48.05-7.38a22.07,22.07,0,0,0,2.18-4c.74-1.76,1.25-3.62,1.87-5.44.95-2.81,1.9-5.6,4-7.84a5.65,5.65,0,0,0,1.2-2.31,21.36,21.36,0,0,1,3.85-7.13c.67-.9,1.37-1.77,2.06-2.65a4.35,4.35,0,0,0,1-3.55,5,5,0,0,1,1.33-4.43,6.63,6.63,0,0,0,1.77-4.61,9.53,9.53,0,0,1,2.88-6.64,2.4,2.4,0,0,0,.84-2.1,10.22,10.22,0,0,1,2.48-7.55c1.43-1.84,3.34-3.25,4.87-5.06a4.33,4.33,0,0,0,1.32-3.28c-.06-1.11-.16-2.21-.24-3.26a8.23,8.23,0,0,0-1-.5,7.17,7.17,0,0,1-5.18-4.88,4.38,4.38,0,0,0-1.19-1.43,34.39,34.39,0,0,1-3.47-3.59c-1.67-2.34-3.11-4.84-4.62-7.29a5.53,5.53,0,0,0-2.95-2.67,4.7,4.7,0,0,1-2.83-2.77c-.22-.5-.43-1.25-.82-1.39-2.33-.82-3.07-2.59-3.07-4.85-1.86-.27-2.87-1.43-3.83-2.79a11.39,11.39,0,0,0-2.74-2.89,10.8,10.8,0,0,1-4.15-5.13,8,8,0,0,0-3.61-4.63,2.53,2.53,0,0,1-.7-.66,3.8,3.8,0,0,0-2.3-1.52,5.3,5.3,0,0,1-2.26-1.61,30.58,30.58,0,0,1-2.55-3.12,49.35,49.35,0,0,1-3.11-4.51,3.11,3.11,0,0,0-1.83-1.7,4.85,4.85,0,0,1-3.41-4.23,5.25,5.25,0,0,0-1-2.38,49.22,49.22,0,0,0-3.53-3.58,2.18,2.18,0,0,0-2.45-.39c-1.73.61-3.5,1.12-5.22,1.75-8.71,3.17-17,1.72-25.05-2.25a8.57,8.57,0,0,1-4-3.38c-1.2-2.15-2.32-4.36-3.68-6.41-4.52-6.8-4.62-13.94-1.79-21.31,1.34-3.48,2.56-4.14,6.21-3.88.79.06,1.58.21,2.37.34,1.31.22-.83-1.65.48-1.42,0-.47,1.06.07.87-.06-2.18-1.47-.73-1.6-.09-3.51s2.47-3,5.06-2.64a25.58,25.58,0,0,1,3.11.76c1.16-4,2.71-4.93,6.77-4.22l.47.1a1.86,1.86,0,0,0,1.89-.61,6.23,6.23,0,0,1,7.73-.4,4.45,4.45,0,0,0,1.48.62c1.69.37,6.27,2.59,7.56,3.88a31.86,31.86,0,0,1,8.7,14.41,9.12,9.12,0,0,1-.25,6.11A4.67,4.67,0,0,0,176,224a10.91,10.91,0,0,1-1.08,6.75c-.62,1.37-1.32,2.7-1.94,4a3.05,3.05,0,0,0,.3.55c9.62,10.11,20.44,18.86,31.4,27.44a8.22,8.22,0,0,0,.78.55c2.58,1.57,5.4,2.8,7.24,5.37.18.24.53.36.77.56,3.31,2.64,6.6,5.3,9.92,7.92q3.85,3,7.77,6c1,.77,2.13,1.43,3.15,2.19q7,5.25,14,10.55a8.28,8.28,0,0,0,7,1.79c3.11-.69,6.17-1.64,9.2-2.61a7.41,7.41,0,0,0,4.34-3.57,8.79,8.79,0,0,1,4.44-3.85,24.56,24.56,0,0,0,3.72-2.15c2.82-1.83,5.57-3.76,8.41-5.54,1.34-.84,2.89-1.35,4.27-2.14,2.77-1.59,5.49-3.27,8.24-4.9a101.77,101.77,0,0,0,16-11.36c4.56-4.05,9.61-7.43,15.68-8.94a3.79,3.79,0,0,0,1.62-.94,12.16,12.16,0,0,1,5.28-2.7c1.76-.51,3.55-1,5.26-1.61,6.63-2.55,13.21-5.26,19.86-7.75,8.45-3.16,17-6.2,25.46-9.21a103.68,103.68,0,0,0,19.18-8.7c2.72-1.64,5.11-3.85,8.45-4.27a4.07,4.07,0,0,0,1.3-.6c2-1.07,3.9-2.2,5.9-3.2a48.75,48.75,0,0,1,7.17-3.29,73.84,73.84,0,0,0,18.28-8.81,15.2,15.2,0,0,1,6.12-2.58c7.91-1.13,15.83-2.23,23.74-3.38,2.5-.36,5.08-.45,7.32-1.87h4.8a23.21,23.21,0,0,1,3.06,1.24c3,1.72,3.06,5.1.2,7a7.47,7.47,0,0,1-1.48.77c-6.27,2.38-12.52,4.85-18.85,7.07a37.38,37.38,0,0,0-13.63,8.69,16.44,16.44,0,0,1-5.92,3.91,150.73,150.73,0,0,1-22.82,6.4,4.33,4.33,0,0,0-.92.43,30.06,30.06,0,0,1,4.83.57,49.16,49.16,0,0,1,8.57,3c3.66,1.83,4.58,5.24,2.85,9a12.61,12.61,0,0,1-1.75,2.85c-1.55,1.82-3.23,3.54-4.85,5.31l-1.39,1.52a5,5,0,0,0,2.88-.09,56.71,56.71,0,0,1,13.07-2.91c4.18-.56,8.12-1.57,11.57-4.19a18.38,18.38,0,0,1,4.07-2,50.13,50.13,0,0,1,22.51-3.7c12.63.69,25.26.57,37.9.09,6.6-.25,12.9.84,18.49,4.73,2.11,1.47,3.91,3.08,3.94,5.93,2,.71,3.48,1.81,3.58,4,3.65.21,4.78,2.11,3.16,5.83,1.22,2.21,1.22,2.21.37,4.68,2.11,3.36,1.91,4.48-1.28,7.22a1.49,1.49,0,0,0-.1,2.28c.52.69,1.09,1.34,1.65,2l.69.07c3,.25,3.77,1,4.54,3.87a40.8,40.8,0,0,0,1.3,4.47,7.19,7.19,0,0,1,.59,4.32c2.2,2.34,4.3,4.31,6.08,6.54,1.56,1.95,1,3.86-1,5.32l-1.34.95c.3,1,.29,2.31.93,2.86a5,5,0,0,1,1.71,5.08,4.44,4.44,0,0,1,5.33,1.58c1.38,1.84,1,3.74-.08,5.61l5.23.56c.37-1.12.5-2.59,1.28-3.54s2.28-1.56,3.7-2.47c-1.45-2.55-1.79-5.19.4-7.56-4-4.71-3.11-7.92,2.69-10.56.36-3.68,1.8-5,5.54-5.09,1.16,0,2.33,0,3.55,0v-3c-3.71-1.88-4.2-3-3-6.66-.34-.48-.71-1-1.07-1.52-1.69-2.5-1.41-3.82,1-5.64a6.07,6.07,0,0,0,1.67-1.94,4.69,4.69,0,0,1,4.86-2.81,15.43,15.43,0,0,1,5.28,1.35c5,2.55,9.85,5.29,14.7,8.09a11.35,11.35,0,0,0,4.91,1.67,37.52,37.52,0,0,1,4.66,1c.53.11,1.08.17,1.61.29,1.54.33,3.11.61,4.62,1s3,1,4.53,1.55c2.67,1,5.26,1.15,7.64-.78.12-.1.23-.21.37-.34l.45-3.67c-2.47-2.31-4.87-4.66-7.39-6.87a19.17,19.17,0,0,0-4.13-2.81,65.19,65.19,0,0,1-14.15-9.39,16,16,0,0,1-3.29-4,85.88,85.88,0,0,0-9.76-13.92c-3.59-4.09-7.13-8.22-10.82-12.22-1.67-1.81-3.63-3.34-5.45-5a12.72,12.72,0,0,1-1.19-1.17c-1-1.15-1.89-2.35-2.86-3.5-1.27-1.5-2.33-3.08-2.19-5.15s1.58-3.56,3.64-3.19a48.81,48.81,0,0,1,8.32,2.18,17.85,17.85,0,0,0,4.61,1.06c3.57.35,7.14.79,10.7,1.19a92.32,92.32,0,0,1,9.75,1.17c3.47.77,6.82,2,10.46,1.79a8.79,8.79,0,0,0,2.78-.11,4.29,4.29,0,0,1,4.48.93,6,6,0,0,0,3.8,1.75,4.08,4.08,0,0,1,1.36.43c3.29,1.46,6.63,2.81,9.82,4.45a29.45,29.45,0,0,1,5.27,3.67,4.15,4.15,0,0,0,2.13,1.29,4.43,4.43,0,0,1,3.41,2.38c.18.34.42.8.73.89a4.74,4.74,0,0,1,3.48,3.32c.06.18.34.34.55.41,2.77.89,4.12,3.12,5,5.34,2.4-.05,4.62-.21,6.83-.12a2.93,2.93,0,0,1,2.82,2.52,3.16,3.16,0,0,0,.65,1.48c1.43,1.45,2.5,3.2,4.38,4.28,1.34.78,2.43,2,4,2.53a6,6,0,0,1,1.73,1.26c2.36,2,4.77,4,7,6.15a8.85,8.85,0,0,0,5.55,2.9,7.29,7.29,0,0,1,2.25.78q4.61,2,9.19,4.1a23,23,0,0,1,7.63,4.87,5.15,5.15,0,0,0,1.61,1,41,41,0,0,1,5.62,2.58c8.36,5.55,16.14,11.75,21.74,20.29a4.4,4.4,0,0,1-2.24,6.81,27.66,27.66,0,0,1-3.34.68c.56,1.37.8,3,1.74,4,1.63,1.76,3.28,3.7,6,4,1.92.19,2.8,1.24,3,3.13.06.45.08.91.11,1.23l4.67,2.14,3.69-3c-1.34-4-1-5,2.4-7.08.44-1.17.55-2.39,1.21-3a13.21,13.21,0,0,1,3.38-1.68c0-3.2.65-3.83,3.95-4a2.22,2.22,0,0,0,1.38-.63c1.46-1.59,2.89-3.21,4.24-4.9s2.61-2.81,4.19-2.79c1.17-1.8,1.8-3.68,3.1-4.58,2-1.37,2.85-3.55,4.61-5,1.44-1.22,2.49-2.88,3.83-4.24,1.74-1.76,3.74-3.28,5.37-5.13,4.75-5.41,9.53-10.78,14.77-15.74,6-5.71,11.94-11.57,17.92-17.35A11.86,11.86,0,0,1,848,237c-1.27-2.43-2.38-4.46-3.4-6.53a25.42,25.42,0,0,1-2.9-9.83c-.52-9,4.13-15.29,10.86-20.45a7,7,0,0,1,2.36-1.15c3.39-.92,6.77-1.93,10.21-2.55a17.21,17.21,0,0,1,5.7.18,8.67,8.67,0,0,1,3.42,1.58,2.59,2.59,0,0,1,.9,3,2.38,2.38,0,0,1-2.2,1.94c-2.3,0-3.39,1.36-4.42,3.08s-2.13,1.89-3.9,1.23a11.71,11.71,0,0,1-1.08-.53,3.27,3.27,0,0,0-.39.66,3.38,3.38,0,0,1-3.45,2.74,4,4,0,0,0-2.12.91,16.78,16.78,0,0,0-5.33,6.93c.31.54.77,1,.82,1.5a42.17,42.17,0,0,0,.25,4.49c.31,1.44,1.51,2.76,1.54,4.15,0,2,1.6,3.49,1.45,5.46,0,.17.29.36.45.54l2.11,2.33h11.84c0-2.52,1.44-3.64,3.43-4.26,1.21-.37,2.18-.94,2.39-2.35a1.72,1.72,0,0,1,.55-1c1.53-1.15,1.11-2.63.89-4a6.69,6.69,0,0,0-.7-.45c-1.69-.77-2.77-2-2.48-3.93a4.89,4.89,0,0,1,3.26-3.84,3.14,3.14,0,0,1,4.38,1.77c.54,1.66,1.68,2.57,3.06,3.71a23.88,23.88,0,0,0,2.57-1.95c2.37-2.33,4.16-2.16,6,.66a3.43,3.43,0,0,0,.46.49ZM176.1,217.85c-2.83,2.81-3.06-7.34-6.64-6.92-.62.07-3.24-4.16-3.55-4.64-.92-1.42-12.52-5.74-13.56-6.1-1.43.85-13.93,2.66-15.2,3.28-1.59.77-6.82,11.44-8.38,11.28.14.43,4.53,9.91,4.66,10.07,1.09,1.38,2.25,1.83,1.33,3.4s.35,1.66-1.26,1.41c-1.34-.21,3.1.9,1.78,2,1.77.79-1.09,2,.42,2.64,2.44-1.67,2.7.23,4.73,2.46.86.94,6,2.46,7,1.46s3.41-.56,4.88-.64c.87,0,5-2.47,6-2.47.56-2.72,3.7-1,6.1-1.63.54-.15,1.83-3.42,2.34-3.65C170.39,228.18,178.54,221,176.1,217.85Zm626.32,80.69c1.74-1.47,1.74-1.47.76-2.45Z"/><path class="cls-2" d="M524.81,898.44c-1.36-1.32-2.87-2.48-3-4.68,0-.43-1.05-.83-1.58-1.22-.35.38-.51.47-.56.61-1.09,3.36-3.58,4.21-6.33,2a6.5,6.5,0,0,0-3.69-1.82,2.93,2.93,0,0,1-2.4-2.41c-.22-.76-.37-1.54-.6-2.5-3.49.48-5.89-1.29-7.83-4.11-2.34,1.81-4.93,1.92-7.59,1.54a3,3,0,0,1-1.36-.43c-2.3-1.77-5-1.83-7.73-2a23.07,23.07,0,0,1-4.67-1c-2.83-.83-5.65-1.68-8.42-2.67a12.4,12.4,0,0,1-3.58-1.91c-4.24-3.4-8.45-6.83-12.54-10.41a9.81,9.81,0,0,1-3.55-9.44,3.09,3.09,0,0,0-.3-2c-1.71-2.55-1.3-5.15.11-7.47a8.72,8.72,0,0,0,1.22-6.29c-.58-3.78-.84-7.62-1.17-11.44a4.6,4.6,0,0,1,.24-2.34c1.57-3.13,2-6.55,2.86-9.87.55-2.17,1.19-4.31,1.91-6.42,1.12-3.23-.06-7.67-2.85-9.62-2.35-1.65-4.84-3.1-7.27-4.65-.81-.52-1.58-1.09-2.41-1.58-5.58-3.3-8.55-8.49-10.4-14.45-1-3.35-.15-5.34,3.32-6.15a9.82,9.82,0,0,0,6.56-5c1.77-2.93,3.51-3.34,7-2.45,5.65,1.44,11.3,2.85,17,4.15a7.23,7.23,0,0,0,3.53-.11,40.73,40.73,0,0,1,12.33-1.48c7.51.1,15,.28,22.54.46a6.38,6.38,0,0,1,2.33.48c5.39,2.34,11.27,2.93,16.82,4.72a6,6,0,0,0,4.63-.62A46.93,46.93,0,0,1,541.2,771a101,101,0,0,1,11.92-1.14c5.64-.15,11.16-.67,16.39-3a10.91,10.91,0,0,1,7.27-.51c5.57,1.39,11.28,1,16.95,1.27,2.32.1,4.64,0,7,.11a3.27,3.27,0,0,1,2,.61,52.54,52.54,0,0,1,5.25,5.25c3.22,3.92,2.89,7.83-.92,11.21a34.19,34.19,0,0,1-5.09,3.57,105.93,105.93,0,0,0-14.26,10.74c1.11,2.24,2.15,4.38,3.21,6.51a22.27,22.27,0,0,1,1.85,6.15A56.78,56.78,0,0,0,595,819.3c.17.53.68,1,.68,1.51,0,3.09,1.47,5.82,2,8.78,0,.16,0,.39,0,.46,1.7,1.53,1.77,3.85,2.75,5.74,2.11,4.07,2.4,8.2-.21,12.26a5,5,0,0,0-.72,2,7.73,7.73,0,0,1-2.55,4.76c-1.05,1-2.13,1.95-3.26,2.82-4.17,3.23-8.27,6.58-12.61,9.58a73.23,73.23,0,0,0-9.13,7.34c-1.72,1.65-3.54,3.24-6,3.83-.57.14-1,.75-1.54,1.09-1.12.74-2.26,1.45-3.41,2.16a7.54,7.54,0,0,0-.85.41c-3.95,3.25-8.6,5.17-13.25,7.12a6,6,0,0,0-1.48,1.06c-.54.46-.95,1.19-1.56,1.44a43.07,43.07,0,0,1-7.7,2.87c-1.67.35-3.58-.41-5.38-.67-.38-.06-.76-.14-1.33-.25a6.37,6.37,0,0,1-2.25,4.83ZM526,787.29c-2.43,1.68-3.45,1.74-5.21.44-.39-.28-.71-.65-1.11-.92a7.9,7.9,0,0,0-5.9-1.35,49.22,49.22,0,0,1-6,.81,4.51,4.51,0,0,1-2.43-1.25,4.94,4.94,0,0,1-.93-1.54c-1.66-.21-3.18-.69-4.78-.29a2.34,2.34,0,0,1-1.39-.22c-1.38-.62-2.69-1.69-4.11-1.87s-3.11.59-4.68.64a62.6,62.6,0,0,1-7.91-.17c-3.38-.32-6.35,1.37-9.59,1.69-.35,0-.66.44-1,.6-1.07.48-2.15,1.26-3.23,1.27s-2.13-.77-3.3-1.25c-2.51,1.69-2.9,1.68-5.36-.06a3.88,3.88,0,0,0-1.49-.56c-1.48-.28-3-.47-4.46-.75a7.87,7.87,0,0,0-5.37.38,23.27,23.27,0,0,0,1.46,2.24c1.53,1.84,3.09,3.67,4.72,5.42a5.55,5.55,0,0,0,2,1.24,24.56,24.56,0,0,0,2.55.65c3.32.92,4.06,1.95,4,5.54,2,1.1,2.33,3,2.15,5.08,1.39.78,3,1.24,3,3.16s-1.42,2.3-2.73,2.77c0,.86-.06,1.58,0,2.28a18.82,18.82,0,0,1-1.46,10.07,9.85,9.85,0,0,0-1.09,4.14c.05,3.23-1.1,6.2-1.46,9.41,2.06,2.2,2.14,2.86.67,5.79a3.83,3.83,0,0,0-.32,1.1c-.17,1.06-.3,2.14-.48,3.39a7.71,7.71,0,0,1-1.27,11.34c0,1.67,1.26,2.65,2,3.94a37.12,37.12,0,0,1,1.86,4.46c1.65-.65,3.17-.89,4.47.19s2.31,2.18,3.25,3.08c1.33-.13,2.58-.62,3.41-.22s1.49,1.67,2.34,2.73a3.9,3.9,0,0,1,3.72,2.08c.52,1,1.64,1.07,2.61.26,1.56-1.31,3.23-1.19,5-.66,1.15.35,2.24.9,3.4,1.17,2.75.63,4.64,2.4,6.3,4.52.48.61.91,1.27,1.49,2.1,1.43-1.78,3.24-1.65,5.12-1.35a6.93,6.93,0,0,1,4.67,3c.84-.13,1.54-.28,2.25-.34a11.82,11.82,0,0,1,2.15-.06c2.57.24,3.46,1.13,3.59,3.77,0,1,.36,1.39,1.4,1.54,0-.81,0-1.45,0-2.09.09-2.23,1.25-3.38,3.43-3.45a3.45,3.45,0,0,1,3.62,2.21,7.5,7.5,0,0,0,2.86,3.21c.89-2,1.38-4.17,4-4.44a5,5,0,0,1,5.14,2.75c.41,0,.72-.06,1-.12s.61-.17.88-.26c.73-2.78,1.36-3.28,4.15-3.36,1,0,1.92,0,2.87-.14a2.09,2.09,0,0,0,1.29-.53,43.33,43.33,0,0,0,3-4,4.57,4.57,0,0,1,2.82-2.06c1.08-.27,2.18-.45,3.25-.66,1.8-5.74,1.85-5.8,5.3-5.39a35.14,35.14,0,0,1,3.43-3.45c1.83-1.41,4.1-2.07,5.69-4,1.2-1.48,3.18-2.34,4.88-3.38a14.25,14.25,0,0,1,3-1.35,4.66,4.66,0,0,0,3.42-3,4.87,4.87,0,0,1,3.27-3.24c.51-.18,1.2-.39,1.39-.79,1.2-2.5,2.28-5.07,3.41-7.63-1.72-1.82-2.12-4-2.47-6.24a14.65,14.65,0,0,0-1-4.17,13.54,13.54,0,0,1-1.29-5.31,2.19,2.19,0,0,0-.92-2,4.25,4.25,0,0,1-1.62-3.34,4,4,0,0,0-.51-2,8,8,0,0,1-1.66-5.4c.06-3.16-1.26-5.87-2.48-8.61a10.38,10.38,0,0,1-.93-6.07,6.74,6.74,0,0,1,1.37-3c1.53-1.9,2.48-4.34,4.89-5.46a31.06,31.06,0,0,1,8.27-8.36l-.46-1.77c-.31,0-.53,0-.61.06-2.11,2.24-4.57,2-6.68.37-2.29-1.8-5.23-1.62-7.46-3.24l-.59.7c-2.19,2.67-4.17,3.24-7.37,1.88a2.72,2.72,0,0,0-2.47.18c-1.61.75-3.35,1.56-5.06.79s-2.88-.14-4.1.91a4.34,4.34,0,0,1-5.11.84,6.85,6.85,0,0,0-4.89-.32c-2.81.61-5.63,1.18-8.44,1.8a14.15,14.15,0,0,0-3,.87c-1.34.63-2.59,1.46-4.22,2.41v7.61l-.4.08Z"/><path class="cls-2" d="M159.73,597.71c2,.24,4.1.4,6.14.74s4.13.68,5.43,2.14l6.17-1.77-2.53-2.88c4.87.78,9.82.65,14.33,3,2.12,1.08,4.4,2.2,7,.94a4.5,4.5,0,0,1,2.82-.21c4.39,1.08,8.9,1.82,12.84,4.32a40,40,0,0,0,4.91,2.5,10.85,10.85,0,0,1,5.39,4.56,6.35,6.35,0,0,0,1.3,1.37c.46.44,1.13.75,1.4,1.28a7.07,7.07,0,0,0,3.21,3.07,2.92,2.92,0,0,1,1,1c.25.39.6.94.5,1.3-.66,2.32,2.15,4.21.76,6.61a4.76,4.76,0,0,0-.38,1.86c-.18,1.82-.33,3.65-.49,5.56.87.33,1.61.56,2.32.88a3.74,3.74,0,0,1,2.5,3.72c-.16,1.57-1.28,2.59-3.28,3-.23,0-.48,0-.72.07a3.36,3.36,0,0,0-.45.13c-2.15,3.55-3.11,3.92-6.61,2.41-.41.24-.9.49-1.35.81a13.81,13.81,0,0,1-7.2,2.33c-2.95.22-5.89.5-8.84.74-1.12.09-2.24.13-3.35.2-2.94.17-5.42-.56-6.71-3.56a4.77,4.77,0,0,1-3.95-1.41,3.58,3.58,0,0,0-3.85-.51,6.86,6.86,0,0,1-6.63-.65,2.13,2.13,0,0,0-1.51-.22,3.79,3.79,0,0,1-3.41-.56,3.25,3.25,0,0,0-1.06-.52c-3.13-.9-6.27-1.79-9.53-2.71l-.4,1.62a51.86,51.86,0,0,0,3.28,4.28,4.9,4.9,0,0,0,2.47,1.34c3.6.73,7.21,1.44,10.84,1.89a42.06,42.06,0,0,0,6.43,0c2.33-.07,4.51.33,6.07,2.21a4.36,4.36,0,0,0,2.74,1.23,54.34,54.34,0,0,1,6.45,1.74c2,.77,3.5,2.23,3.36,4.72a2.49,2.49,0,0,0,.38,1.35,15.1,15.1,0,0,1,1.9,8.3c0,1.76.06,3.39,1.42,4.87a6.07,6.07,0,0,1,1,3.36c.25,2.63.23,5.27.46,7.9a27.76,27.76,0,0,0,.85,4.95,24,24,0,0,1,1.12,7.79,2.47,2.47,0,0,0,.65,1.64,4.87,4.87,0,0,1,1.32,4.2,11.67,11.67,0,0,0,1.13,7.2,9.23,9.23,0,0,1,.56,6.11,4.17,4.17,0,0,0,0,2.06,33.13,33.13,0,0,1,1.54,9.43,26,26,0,0,0,1.73,9.34c1.19,2.74,1.35,5.73-.69,8.44a3.67,3.67,0,0,0-.07,4.31,5.68,5.68,0,0,1,1,5.5c-.45,1.45.09,3.28-1,4.7,3.47,2.17,2.82,3.54,1.12,6l.57,4.46c2.57,2.37,2.65,3.59,0,5.86L221,772.37c-2.3.34-4.08-.86-4.08-3.19,0-2.74-2.07-4-3.46-5.73-.38-.48-1.6-.28-2.64-.42a10.59,10.59,0,0,1-.42-4.77c.1-2.3.42-4.62.3-6.91a237.33,237.33,0,0,0-3.33-28.81c-1-5.66-1.49-11.41-2.27-17.11a37.55,37.55,0,0,0-1.18-5.87,106.93,106.93,0,0,1-3.62-18.33c-.74-6-1.26-11.93-1.85-17.89-.35-3.52-.5-3.87-4.08-4.46-4.73-.78-9.5-1.33-14.25-1.93-2.62-.33-5.25-.52-7.86-.89a29.12,29.12,0,0,1-13.87-6.15c-1.3-1-2.9-1.61-4.28-2.53a5.81,5.81,0,0,1-2.15-2.07,6.37,6.37,0,0,0-2.11-2.5,42.86,42.86,0,0,1-11-11.93,29.28,29.28,0,0,0-2.31-3.05,14.17,14.17,0,0,1-1.27-1.43c-1.41-2.39-3.5-4-5.67-5.68-4-3.1-3.51-8.68,1.18-10.76,5.12-2.27,10.48-3.16,15.31,1.05,2.53,2.2,5,4.43,7.6,6.6a14.56,14.56,0,0,0,2.76,1.88c5.7,2.9,11.46,5.68,17.13,8.62a15.6,15.6,0,0,0,9.92,1.89c3.56-.56,7,.26,10.38,1.33,4.57,1.44,9.14,2.9,13.72,4.29a14.26,14.26,0,0,0,8,.29c1.6-.43,2.53-1.25,2.58-3,0-1,.07-2.08.19-3.11.17-1.48.43-3,.71-4.88a2.29,2.29,0,0,1-.59-1c-.46-2.28-2.3-2.83-4.1-3.48a4.57,4.57,0,0,0-.47-.11c-2.62-.63-4.4-2-4-5.13-3-1.41-5.83-2.82-8.75-4.11a6.21,6.21,0,0,0-2.34-.28c-10.4-.17-20.8-.26-31.19-.52a75.45,75.45,0,0,1-9.05-.94,14.11,14.11,0,0,1-7.36-3.74,28.4,28.4,0,0,0-6-3.91,43,43,0,0,1-12-8.59,31.92,31.92,0,0,1-3-4.3c-.53-.79-1-1.58-1.57-2.38-.7-1.06-1.38-2.13-2.1-3.17a8.8,8.8,0,0,0-1.45-1.83,14.42,14.42,0,0,1-5.66-11.18,9.25,9.25,0,0,0-.73-2.48,2.53,2.53,0,0,0-.34-.63c-.91-1.31.65-2.95-.69-4.3-1.18-1.19-.49-2.83-.62-4.29a8.4,8.4,0,0,1,2.24-6.34,31.45,31.45,0,0,1,3-2.81c-.65-2,.42-3.78,2.13-5.32a2.87,2.87,0,0,0,.93-1.62,11.93,11.93,0,0,1,3.24-7c-.63-.46-1.13-.81-1.6-1.18a3.32,3.32,0,0,1,2.05-6.06,6,6,0,0,1,6.22,7.24c-.18,1-.41,2-.59,2.91.16.18.21.28.27.29,1.49.25,2.86.74,3.25,2.39a4,4,0,0,1-1.8,4.17,29.36,29.36,0,0,1-3.91,2.15,14.07,14.07,0,0,1-1.7,3.22,18.09,18.09,0,0,1-3.38,2.44c1.1,2.58,3.41,5.29.6,8.28a5,5,0,0,0,2.62,3.7,3.08,3.08,0,0,1,1.34,3.58c-.39,1.94.1,3.35,2.07,4.24,1.55.7,1.66,1.46,1.14,4,.8.57,1.65,1.14,2.46,1.76,2.38,1.81,3.15,4.57,4,7.22a4.2,4.2,0,0,0,1.86,2.64c3.19,1.82,6.41,3.59,9.65,5.32a1.9,1.9,0,0,0,1.34,0c3.32-1.09,4.38-.45,5,3.07A5.82,5.82,0,0,0,159.73,597.71Z"/><path class="cls-2" d="M519.9,667.34c4.65.22,8.42,1.47,10.94,4.69,2.92.18,5.61.39,8.3.48a2.65,2.65,0,0,0,1.65-.7c1.07-1,2-2.08,3-3.07a9.45,9.45,0,0,1,4.31-2.39,6.48,6.48,0,0,0,4.23-3c1-1.9,2-3.59,4.47-4.27a15.52,15.52,0,0,0-4.42-4,9.05,9.05,0,0,1-4.22-5.3,4,4,0,0,1,1-4.62,61.23,61.23,0,0,1,6-5.14,7.1,7.1,0,0,1,3.62-1.06A17.71,17.71,0,0,1,569,641a6.42,6.42,0,0,0,2,.57c1.41.27,2.84.44,4.24.75a9.18,9.18,0,0,1,6.9,5.38,13.17,13.17,0,0,0,2.14,3.17c2.48,2.86,2.91,6.13,2.14,9.67a19.53,19.53,0,0,1-5.93,10.23c-3.68,3.43-7.59,6.62-11.5,9.79a20.9,20.9,0,0,1-8.24,3.75,97.55,97.55,0,0,0-15.18,5.17c-7.38,3.2-15.09,3.44-22.83,1.76a76.47,76.47,0,0,1-12.15-3.62,108.08,108.08,0,0,0-17.9-5.27,108.41,108.41,0,0,1-11-3.31,17.17,17.17,0,0,1-3.23-1.57,5,5,0,0,1-2.54-5.28,13,13,0,0,1,.6-2.81c1.84-5.28,3.73-10.55,5.58-15.82a6.67,6.67,0,0,1,5.64-4.88c1.34-.19,2.65-.6,4-.83a20.35,20.35,0,0,0,8-3c4.14-2.74,8.88-3,13.64-2.51,2.55.27,4.24,2.14,5.75,4a3.81,3.81,0,0,0,2.66,1.67c3.08.44,4.13,2.62,2.82,5.43a18.4,18.4,0,0,1-1.22,2.06,11.06,11.06,0,0,0-2,5.81,11.74,11.74,0,0,1-.62,2.54Zm-28.66-2.21.8,3.17,4.86,2.37a8.14,8.14,0,0,0,1.29.55c4.83,1.36,9.65,2.72,14.5,4,1.1.3,2.26.4,3.58.63A6.47,6.47,0,0,0,512.6,672c-2.86-1.32-3.32-2.85-2.23-5.83-2.33-3.54-2.71-7,.32-10.27H505c-1.48,4.19-5.44,3.19-8.82,3.44C495.37,662,494.23,664.37,491.24,665.13Zm83.25-2.38.28-5.52a11.82,11.82,0,0,1-9.24-2.29c.3,2.22,1.51,4,.37,5.87a6,6,0,0,1-4.62,3.15c2.58,1.41,4.68,1,6.36-1s2.81-2.14,5-1.1Z"/><path class="cls-3" d="M169.91,215.76c2.44,3.17-2.63,10.34-6.23,11.93-.51.22,4.46,2.61,3.92,2.76-2.4.67-3.93-1.4-4.48,1.32-1.05,0-1.9,4.7-2.77,4.75-1.47.08-3.5,1.43-4.62,2.51s-8.37,2.13-9.23,1.19c-2-2.23-4-8.15-6.46-6.48-1.51-.68-6.59-1.26-8.36-2,1.32-1-1.34-3.21,0-3,1.61.25-3.72-.64-2.82-2.18s.83-.87,1.37-2.55c1-3.1,11-24.13,19.42-23.75C157.59,200.55,168.54,217.12,169.91,215.76Z"/><path class="cls-2" d="M802.43,298.54l.76-2.45C804.17,297.07,804.17,297.07,802.43,298.54Z"/><path class="cls-4" d="M526,787.29l5.44,7.4.4-.08V787c1.63-.95,2.88-1.78,4.22-2.41a14.15,14.15,0,0,1,3-.87c2.81-.62,5.63-1.19,8.44-1.8a6.85,6.85,0,0,1,4.89.32,4.34,4.34,0,0,0,5.11-.84c1.22-1,2.35-1.69,4.1-.91s3.45,0,5.06-.79a2.72,2.72,0,0,1,2.47-.18c3.2,1.36,5.18.8,7.37-1.88l.59-.7c2.23,1.62,5.17,1.44,7.46,3.24,2.1,1.65,4.56,1.87,6.68-.37.08-.09.3,0,.61-.06l.46,1.77A31.06,31.06,0,0,0,584,789.9c-2.41,1.12-3.36,3.56-4.89,5.46a6.74,6.74,0,0,0-1.37,3,10.38,10.38,0,0,0,.93,6.07c1.22,2.74,2.54,5.45,2.48,8.61a8,8,0,0,0,1.66,5.4,4,4,0,0,1,.51,2,4.25,4.25,0,0,0,1.62,3.34,2.19,2.19,0,0,1,.92,2,13.54,13.54,0,0,0,1.29,5.31,14.65,14.65,0,0,1,1,4.17c.34,2.23.75,4.42,2.47,6.24-1.13,2.57-2.21,5.13-3.41,7.63-.19.4-.89.61-1.39.79a4.87,4.87,0,0,0-3.27,3.24,4.66,4.66,0,0,1-3.42,3,14.25,14.25,0,0,0-3,1.35c-1.7,1-3.68,1.9-4.88,3.38-1.59,2-3.86,2.63-5.69,4a35.14,35.14,0,0,0-3.43,3.45c-3.45-.41-3.5-.36-5.3,5.39-1.08.21-2.18.39-3.25.66a4.57,4.57,0,0,0-2.82,2.06,43.33,43.33,0,0,1-3,4,2.09,2.09,0,0,1-1.29.53c-1,.11-1.91.12-2.87.14-2.79.08-3.42.58-4.15,3.36-.27.08-.57.19-.88.26s-.62.07-1,.12a5,5,0,0,0-5.14-2.75c-2.6.27-3.09,2.43-4,4.44a7.5,7.5,0,0,1-2.86-3.21,3.45,3.45,0,0,0-3.62-2.21c-2.18.06-3.34,1.22-3.43,3.45,0,.64,0,1.27,0,2.09-1-.15-1.36-.58-1.4-1.54-.12-2.63-1-3.53-3.59-3.77a11.82,11.82,0,0,0-2.15.06c-.71.07-1.42.21-2.25.34a6.93,6.93,0,0,0-4.67-3c-1.88-.3-3.69-.43-5.12,1.35-.58-.82-1-1.49-1.49-2.1-1.66-2.11-3.55-3.88-6.3-4.52-1.16-.27-2.25-.82-3.4-1.17-1.74-.53-3.41-.65-5,.66-1,.81-2.08.72-2.61-.26a3.9,3.9,0,0,0-3.72-2.08c-.85-1.05-1.41-2.29-2.34-2.73s-2.09.1-3.41.22c-.95-.91-2-2.07-3.25-3.08s-2.82-.85-4.47-.19a37.12,37.12,0,0,0-1.86-4.46c-.74-1.29-2-2.27-2-3.94a7.71,7.71,0,0,0,1.27-11.34c.17-1.25.31-2.32.48-3.39a3.83,3.83,0,0,1,.32-1.1c1.47-2.94,1.39-3.59-.67-5.79.36-3.22,1.51-6.19,1.46-9.41a9.85,9.85,0,0,1,1.09-4.14,18.82,18.82,0,0,0,1.46-10.07c-.07-.71,0-1.43,0-2.28,1.31-.47,2.73-1,2.73-2.77s-1.62-2.37-3-3.16c.17-2.07-.18-4-2.15-5.08.11-3.59-.63-4.62-4-5.54a24.56,24.56,0,0,1-2.55-.65,5.55,5.55,0,0,1-2-1.24c-1.63-1.75-3.19-3.58-4.72-5.42a23.27,23.27,0,0,1-1.46-2.24,7.87,7.87,0,0,1,5.37-.38c1.48.27,3,.47,4.46.75a3.88,3.88,0,0,1,1.49.56c2.45,1.74,2.85,1.75,5.36.06,1.17.48,2.24,1.26,3.3,1.25s2.16-.8,3.23-1.27c.36-.16.66-.56,1-.6,3.24-.32,6.2-2,9.59-1.69a62.6,62.6,0,0,0,7.91.17c1.57-.05,3.17-.84,4.68-.64s2.73,1.25,4.11,1.87a2.34,2.34,0,0,0,1.39.22c1.6-.4,3.12.08,4.78.29a4.94,4.94,0,0,0,.93,1.54,4.51,4.51,0,0,0,2.43,1.25,49.22,49.22,0,0,0,6-.81,7.9,7.9,0,0,1,5.9,1.35c.39.27.72.63,1.11.92C522.58,789,523.6,789,526,787.29Z"/><path class="cls-2" d="M491.24,665.13c3-.76,4.12-3.1,5-5.79,3.39-.25,7.34.75,8.82-3.44h5.65c-3,3.22-2.65,6.72-.32,10.27-1.09,3-.62,4.51,2.23,5.83a6.47,6.47,0,0,1,3.67,3.89c-1.32-.23-2.48-.33-3.58-.63-4.84-1.31-9.67-2.68-14.5-4a8.14,8.14,0,0,1-1.29-.55L492,668.31Z"/><path class="cls-2" d="M574.49,662.76l-1.83-.83c-2.21-1-3.43-.78-5,1.1s-3.78,2.37-6.36,1a6,6,0,0,0,4.62-3.15c1.14-1.87-.07-3.66-.37-5.87a11.82,11.82,0,0,0,9.24,2.29Z"/><rect class="cls-5" x="184.43" y="447.91" width="663.67" height="73.58"/></svg>