<svg id="Layer_1" data-name="Layer 1" xmlns="http://www.w3.org/2000/svg" viewBox="0 0 50.02 50.04"><defs><style>.cls-1{fill:#fdfdfd;}.cls-2{fill:#020202;}.cls-3{fill:#fb9b09;}.cls-4{fill:#fa9d10;}.cls-5{fill:#fcfcfc;}</style></defs><title>amazon</title><path class="cls-1" d="M453.2,492.2v-50q24.61,0,49.22,0c0.67,0,.8.13,0.8,0.8q0,24.22,0,48.44c0,0.67-.13.8-0.8,0.8Q477.8,492.18,453.2,492.2Zm35.56-30.88h0c0-2.25,0-4.49,0-6.74-0.06-4.55-2.31-7.69-6.6-9a18.35,18.35,0,0,0-11.85.29,10.48,10.48,0,0,0-7.07,7.89c-0.27,1.13.13,1.64,1.29,1.76q2.37,0.24,4.74.53c1.21,0.15,1.6-.08,1.89-1.25a4.23,4.23,0,0,1,3.34-3.29c2.85-.67,5.67.38,5.67,4.29a9.45,9.45,0,0,0,0,1.37,0.83,0.83,0,0,1-.92,1.08c-1.81.17-3.62,0.35-5.42,0.61a15.68,15.68,0,0,0-7.66,2.82c-3.5,2.75-4.48,6.47-3.85,10.7a8,8,0,0,0,6.19,7.07,13.81,13.81,0,0,0,6.56,0,11.84,11.84,0,0,0,5.8-3.56c0.41-.41.61-0.42,0.9,0.09a13.3,13.3,0,0,0,2.71,3.18,1.37,1.37,0,0,0,2.07,0q1.87-1.64,3.76-3.26c1.36-1.15,1.42-1.48.32-2.87a8.24,8.24,0,0,1-1.88-5.58C488.81,465.35,488.76,463.33,488.76,461.31Zm-13.84,25.82a32.53,32.53,0,0,0,8.69-1.1,28.92,28.92,0,0,0,12.87-7.13c0.35-.33.78-0.71,0.36-1.24s-0.86-.17-1.28.08a39.86,39.86,0,0,1-18.94,5.85,41.63,41.63,0,0,1-19.31-3.75c-0.27-.12-0.59-0.49-0.85-0.1s0.12,0.67.4,0.87c0.93,0.65,1.86,1.31,2.83,1.91A30,30,0,0,0,474.92,487.13Zm25.73-10.92c0-2.3-.27-2.69-1.87-2.72a8.43,8.43,0,0,0-5.88,1.89c-0.21.18-.56,0.35-0.37,0.7s0.47,0.14.71,0.08a28.48,28.48,0,0,1,3.73-.66c1.32-.13,1.77.23,1.79,1.57a27,27,0,0,1-.66,4.62c0,0.25-.38.58,0,0.76s0.5-.19.67-0.43A10.9,10.9,0,0,0,500.65,476.21Z" transform="translate(-453.2 -442.18)"/><path class="cls-2" d="M488.76,461.31c0,2,.05,4,0,6.05a8.24,8.24,0,0,0,1.88,5.58c1.1,1.4,1,1.72-.32,2.87s-2.51,2.16-3.76,3.26a1.37,1.37,0,0,1-2.07,0,13.3,13.3,0,0,1-2.71-3.18c-0.29-.51-0.49-0.51-0.9-0.09a11.84,11.84,0,0,1-5.8,3.56,13.81,13.81,0,0,1-6.56,0,8,8,0,0,1-6.19-7.07c-0.64-4.23.35-7.95,3.85-10.7a15.68,15.68,0,0,1,7.66-2.82c1.8-.27,3.61-0.44,5.42-0.61a0.83,0.83,0,0,0,.92-1.08,9.45,9.45,0,0,1,0-1.37c0-3.91-2.82-5-5.67-4.29a4.23,4.23,0,0,0-3.34,3.29c-0.29,1.17-.68,1.4-1.89,1.25q-2.37-.29-4.74-0.53c-1.16-.12-1.56-0.63-1.29-1.76a10.48,10.48,0,0,1,7.07-7.89,18.35,18.35,0,0,1,11.85-.29c4.29,1.33,6.54,4.46,6.6,9,0,2.25,0,4.49,0,6.74h0Zm-8.61,4.17c0-.78,0-1.39,0-2,0-.34-0.05-0.55-0.48-0.5-1.13.13-2.27,0.16-3.38,0.36-3.31.59-5,2.39-5.2,5.57-0.18,2.49,1.11,4.38,3.27,4.63a4.38,4.38,0,0,0,4.11-1.94A9.37,9.37,0,0,0,480.15,465.48Z" transform="translate(-453.2 -442.18)"/><path class="cls-3" d="M474.92,487.13a30,30,0,0,1-15.24-4.63c-1-.6-1.9-1.25-2.83-1.91-0.28-.2-0.66-0.47-0.4-0.87s0.58,0,.85.1a41.63,41.63,0,0,0,19.31,3.75,39.86,39.86,0,0,0,18.94-5.85c0.42-.25.85-0.62,1.28-0.08s0,0.91-.36,1.24A28.92,28.92,0,0,1,483.61,486,32.53,32.53,0,0,1,474.92,487.13Z" transform="translate(-453.2 -442.18)"/><path class="cls-4" d="M500.65,476.21a10.9,10.9,0,0,1-1.84,5.8c-0.17.24-.34,0.56-0.67,0.43s-0.08-.5,0-0.76a27,27,0,0,0,.66-4.62c0-1.34-.47-1.7-1.79-1.57a28.48,28.48,0,0,0-3.73.66c-0.24.06-.55,0.21-0.71-0.08s0.16-.52.37-0.7a8.43,8.43,0,0,1,5.88-1.89C500.38,473.53,500.61,473.91,500.65,476.21Z" transform="translate(-453.2 -442.18)"/><path class="cls-5" d="M480.15,465.48a9.37,9.37,0,0,1-1.68,6.1,4.38,4.38,0,0,1-4.11,1.94c-2.16-.24-3.45-2.14-3.27-4.63,0.23-3.18,1.88-5,5.2-5.57,1.11-.2,2.26-0.23,3.38-0.36,0.43,0,.49.16,0.48,0.5C480.14,464.09,480.15,464.71,480.15,465.48Z" transform="translate(-453.2 -442.18)"/></svg>