<svg xmlns="http://www.w3.org/2000/svg" xmlns:xlink="http://www.w3.org/1999/xlink" viewBox="0 0 1792 1792"><defs><style>.cls-1{fill:none;}.cls-2{clip-path:url(#clip-path);}.cls-3{clip-path:url(#clip-path-2);}.cls-4{font-size:353.56px;font-family:Dosis-Medium, Dosis;}.cls-5{letter-spacing:-0.01em;}</style><clipPath id="clip-path"><rect class="cls-1" x="344.3" y="114.64" width="1058.4" height="1092.53"/></clipPath><clipPath id="clip-path-2"><rect class="cls-1" x="344.3" y="114.64" width="1058.39" height="1092.53"/></clipPath></defs><title>amazon</title><g id="Logo"><g id="amazon"><g class="cls-2"><g class="cls-3"><path d="M1272.7,1014.51q9.15-3.66,15.85-1.83t6.71,10.67q0,8.84-9.15,20.42-7.93,9.76-26.83,26.52t-58.22,41.46a657,657,0,0,1-86,45.12q-46.64,20.42-114.62,35.36a650.09,650.09,0,0,1-139.92,14.94,573.53,573.53,0,0,1-145.1-18.9q-72.55-18.9-127.42-46.64a825.34,825.34,0,0,1-105.17-63.41q-50.3-35.67-80.78-64t-51.21-53.35q-4.88-5.49-6.1-10.06t.61-7.32a12.42,12.42,0,0,1,4.88-4.27,13.15,13.15,0,0,1,7-1.22,12.5,12.5,0,0,1,7,2.74q117.06,71.33,182.9,101.21,237.16,107.3,487.13,54.87,115.84-24.39,238.38-82.31m126.2-70.11q6.71,9.76,1.52,42.37a281.8,281.8,0,0,1-17.38,62.49q-20.73,50.6-51.82,75.6-10.36,8.54-15.85,5.49t0-14.63q12.8-27.44,27.13-74.08t4-60.05q-3-4.27-9.45-7a55,55,0,0,0-16.46-3.66q-10.06-.91-18-1.52a183.69,183.69,0,0,0-21.34,0q-13.41.61-19.2,1.22t-18.9,1.83q-13.11,1.22-13.72,1.22-3.66.61-7.93.91t-6.71.61q-2.44.3-5.18.61a41.34,41.34,0,0,1-4.27.3h-6.1l-1.83-.3-1.22-.91-.91-1.83q-3.66-9.76,28.65-24.39t62.8-18.29q28-4.27,65.84-.61t46.34,14.63M1158.7,674.32q0,18.9,8.23,39a162.73,162.73,0,0,0,19.51,35.36q11.28,15.24,22.86,28t20.12,19.51l7.93,6.71-138.4,136.57q-24.39-22.56-48.16-46t-35.36-35.67l-11.58-12.19q-6.71-6.71-15.24-20.12A234.27,234.27,0,0,1,929.16,888a251,251,0,0,1-77.73,38.71,353.5,353.5,0,0,1-85.35,14,215.23,215.23,0,0,1-83.83-12.8A254,254,0,0,1,610.6,888q-31.7-25.3-50.6-68.89T541.1,720q0-51.21,17.07-93.89t43.9-71q26.83-28.35,64.93-50.6t74.68-34.75a623.33,623.33,0,0,1,79.26-21q42.68-8.54,72.86-11.28t60.66-4V356.07q0-39.63-12.8-59.14-20.73-32.31-73.77-32.31-3.66,0-10.06.61t-24.69,7.32a144.32,144.32,0,0,0-34.14,18q-15.85,11.28-34.14,36.28t-29.26,58.53L556.34,368.87a206.27,206.27,0,0,1,13.41-72.55q13.41-36,40.85-68.89a292.87,292.87,0,0,1,65.84-57.92q38.41-25,92.37-39.93T885,114.64q61,0,110.35,15.24t79,37.49a223.75,223.75,0,0,1,49.38,50.6q19.81,28.35,27.44,52.43t7.62,44.81ZM749,687.12q0,52.43,42.68,81.09,40.24,26.83,84.74,13.41,51.21-15.24,69.5-75,8.54-27.44,8.54-61.58V546.29a436.75,436.75,0,0,0-67.67,7.32A314,314,0,0,0,821.85,574q-33.23,14.33-53,43.29T749,687.12"/></g></g></g></g><g id="Name"><text class="cls-4" transform="translate(304.97 1751.35)">AMA<tspan class="cls-5" x="627.55" y="0">Z</tspan><tspan x="799.38" y="0">ON</tspan></text></g></svg>