<svg id="Layer_1" data-name="Layer 1" xmlns="http://www.w3.org/2000/svg" viewBox="0 0 50 50"><defs><style>.cls-1{fill:#fff;}</style></defs><title>apple</title><path d="M493.29,525.08h-1.2c-0.38-.12-0.77-0.21-1.13-0.35a8.42,8.42,0,0,1-3.25-2.44,31.37,31.37,0,0,1-5.57-8.83,29.4,29.4,0,0,1-2.39-11.6,16.61,16.61,0,0,1,2.06-8.23,12.12,12.12,0,0,1,8-6,8.23,8.23,0,0,1,4.26,0c1.41,0.42,2.8.91,4.19,1.41a4.69,4.69,0,0,0,3.64.2c0.83-.36,1.69-0.64,2.54-1a13.63,13.63,0,0,1,4.29-1,12.34,12.34,0,0,1,7.91,2.35,10.22,10.22,0,0,1,2.46,2.6l-0.24.18a12.76,12.76,0,0,0-2.69,2.47,10.58,10.58,0,0,0-2.29,8.63,10.4,10.4,0,0,0,2.88,5.8,11.62,11.62,0,0,0,3.31,2.39c0.25,0.12.37,0.24,0.25,0.54-0.22.51-.38,1-0.59,1.57a28.53,28.53,0,0,1-3.46,6.18,17.67,17.67,0,0,1-3.34,3.78,5.94,5.94,0,0,1-4.19,1.33,9.64,9.64,0,0,1-3.4-1,9.78,9.78,0,0,0-7.26-.53c-0.62.19-1.2,0.5-1.82,0.7C495.28,524.51,494.28,524.79,493.29,525.08Z" transform="translate(-475.08 -475.08)"/><path class="cls-1" d="M493.29,525.08c1-.29,2-0.57,3-0.89,0.62-.2,1.2-0.51,1.82-0.7a9.78,9.78,0,0,1,7.26.53,9.64,9.64,0,0,0,3.4,1,5.94,5.94,0,0,0,4.19-1.33,17.67,17.67,0,0,0,3.34-3.78,28.53,28.53,0,0,0,3.46-6.18c0.21-.52.37-1.05,0.59-1.57,0.13-.3,0-0.42-0.25-0.54a11.62,11.62,0,0,1-3.31-2.39,10.4,10.4,0,0,1-2.88-5.8,10.58,10.58,0,0,1,2.29-8.63,12.76,12.76,0,0,1,2.69-2.47l0.24-.18a10.22,10.22,0,0,0-2.46-2.6,12.34,12.34,0,0,0-7.91-2.35,13.63,13.63,0,0,0-4.29,1c-0.85.31-1.71,0.59-2.54,1a4.69,4.69,0,0,1-3.64-.2c-1.39-.5-2.78-1-4.19-1.41a8.23,8.23,0,0,0-4.26,0,12.12,12.12,0,0,0-8,6,16.61,16.61,0,0,0-2.06,8.23,29.4,29.4,0,0,0,2.39,11.6,31.37,31.37,0,0,0,5.57,8.83,8.42,8.42,0,0,0,3.25,2.44c0.37,0.14.76,0.24,1.13,0.35h-17v-50h34.5a1.37,1.37,0,0,1-.22.07,10.64,10.64,0,0,0-4.38,1.72,11.16,11.16,0,0,0-4.85,7.13,7.05,7.05,0,0,0-.09,2.57,8.28,8.28,0,0,0,5.84-2,11,11,0,0,0,4.06-7.1,16.51,16.51,0,0,0,0-2.38h15.1v50H493.29Z" transform="translate(-475.08 -475.08)"/><path d="M510,475.08a16.51,16.51,0,0,1,0,2.38,11,11,0,0,1-4.06,7.1,8.28,8.28,0,0,1-5.84,2,7.05,7.05,0,0,1,.09-2.57,11.16,11.16,0,0,1,4.85-7.13,10.64,10.64,0,0,1,4.38-1.72,1.37,1.37,0,0,0,.22-0.07H510Z" transform="translate(-475.08 -475.08)"/></svg>