<svg xmlns="http://www.w3.org/2000/svg" viewBox="0 0 1792 1792"><defs><style>.cls-1{font-size:353.56px;font-family:Dosis-Medium, Dosis;}</style></defs><title>apple</title><g id="Logo"><path d="M1352.66,879.59q-25.76,82.56-81.24,165.12-85.2,129.45-169.74,129.45-32.36,0-92.47-21.14-56.8-21.14-99.73-21.14-40.29,0-93.79,21.8-53.5,22.46-87.18,22.46-100.39,0-198.8-171.06Q432.63,832.7,432.63,672.87q0-150.59,74.63-247,74-95.11,187.57-95.11,47.55,0,116.9,19.81,68.69,19.81,91.15,19.81,29.72,0,94.45-22.46,67.37-22.46,114.26-22.46,78.6,0,140.68,42.93,34.34,23.78,68.69,66-52.18,44.25-75.29,77.94-42.93,62.08-42.93,136.72,0,81.9,45.57,147.29T1352.66,879.59ZM1104.32,104.86q0,40.29-19.15,89.82-19.81,49.54-61.42,91.15-35.67,35.67-71.33,47.55-24.44,7.27-68.69,11.23,2-98.41,51.52-169.74,48.87-70.67,165.12-97.75a64.47,64.47,0,0,1,1.65,7.27,64.47,64.47,0,0,0,1.65,7.27q0,2.64.33,6.6T1104.32,104.86Z"/></g><g id="Name"><text class="cls-1" transform="translate(446.22 1751.35)">APPLE</text></g></svg>