<svg id="Layer_1" data-name="Layer 1" xmlns="http://www.w3.org/2000/svg" viewBox="0 0 50.03 50.03"><defs><style>.cls-1{fill:#fefefe;}.cls-2{fill:#fed019;}.cls-3{fill:#f45934;}.cls-4{fill:#f34b22;}.cls-5{fill:#f6c119;}.cls-6{fill:#f45028;}.cls-7{fill:#f4542c;}.cls-8{fill:#fee168;}.cls-9{fill:#fe8b00;}.cls-10{fill:#f9c718;}.cls-11{fill:#fac818;}.cls-12{fill:#f98600;}.cls-13{fill:#f9f7f5;}.cls-14{fill:#f68001;}.cls-15{fill:#f08401;}.cls-16{fill:#e87e03;}</style></defs><title>google</title><path class="cls-1" d="M501.17,557.17q-12.21,0-24.42,0c-0.5,0-.6-0.1-0.6-0.6q0-24.42,0-48.83c0-.5.1-0.6,0.6-0.6q24.42,0,48.83,0c0.5,0,.6.1,0.6,0.6q0,24.42,0,48.83c0,0.5-.1.6-0.6,0.6Q513.38,557.15,501.17,557.17Zm9.66-38.49h0a1.41,1.41,0,0,0-1-.66h0a1,1,0,0,0-.21-0.24,16.49,16.49,0,0,0-7.31-2.26,20.85,20.85,0,0,0-5.61.5c-3.68-2.1-7.34-4.24-11-6.29-2.19-1.21-4.22-.09-4.26,2.39-0.07,4.57,0,9.15,0,13.73v14.5c0,4-.08,7.94,0,11.91,0,2.46,2,3.59,4.19,2.4,3.74-2,7.42-4.21,11.13-6.33,2.85-1.6,5.7-3.19,8.54-4.81q6-3.43,12.06-6.88c1.18-.66,2.39-1.28,3.54-2,2.26-1.41,2.26-3.51,0-4.91-1.15-.71-2.36-1.33-3.54-2l-0.45-1.15a16,16,0,0,0-4.74-6.87,0.68,0.68,0,0,0-.62-0.52l-0.2-.15A0.44,0.44,0,0,0,510.83,518.67Z" transform="translate(-476.15 -507.15)"/><path class="cls-2" d="M511.29,519l0.2,0.15a0.57,0.57,0,0,0,.62.52,16,16,0,0,1,4.74,6.87l0.45,1.15a18.35,18.35,0,0,1,.39,2.61,0.76,0.76,0,0,0-.91.12,57.4,57.4,0,0,0-5.25,3.21c0-.61,0-1.22,0-1.83a9.41,9.41,0,0,0-2.78-6.82,10.42,10.42,0,0,0-15.94,1,10.55,10.55,0,0,0-.31,11.94,12.49,12.49,0,0,0,4.54,3.91,19.81,19.81,0,0,0-4,2,4.91,4.91,0,0,0-2.06,1.47,17.31,17.31,0,0,1-4.94-5.92l-0.46-1.24a17,17,0,0,1-.54-10.37c0.29-1.13.95-2.12,1.13-3.27h0l0.17-.17a29.81,29.81,0,0,1,2.16-2.9h0a0.24,0.24,0,0,1,.08-0.08,0.31,0.31,0,0,0,.25-0.35h0l0.18-.18h0l0.18-.18h0l0.18-.18h0l0.18-.18h0a0.32,0.32,0,0,0,.34-0.18h0a0.32,0.32,0,0,0,.18-0.33h0a0.28,0.28,0,0,0,.34-0.26l1.36-1.08a0.26,0.26,0,0,0,.31-0.17h0c0.25,0,.49,0,0.51-0.34h0a0.29,0.29,0,0,0,.34-0.18h0a1.79,1.79,0,0,0,1-.34,16.62,16.62,0,0,1,13.41-.57,13.35,13.35,0,0,0,2.58,1.09h0a1.09,1.09,0,0,0,1,.66h0A0.38,0.38,0,0,0,511.29,519Z" transform="translate(-476.15 -507.15)"/><path class="cls-3" d="M491.69,518.49l-1.36,1.08a0.45,0.45,0,0,0-.33.26h0a0.29,0.29,0,0,0-.18.33h0a0.28,0.28,0,0,0-.34.18h0l-0.18.18h0l-0.18.18h0l-0.18.18h0l-0.18.18h0a0.4,0.4,0,0,0-.25.35,0.24,0.24,0,0,0-.08.08h-0.07l0.07,0a29.82,29.82,0,0,0-2.16,2.9l-0.17.17h0a20,20,0,0,1-3.56.14c-0.38,0-.63.06-0.65,0.53a0.55,0.55,0,0,1-.59.64c0-4.58-.07-9.15,0-13.73,0-2.48,2.07-3.6,4.26-2.39,3.71,2,7.37,4.19,11,6.29a3,3,0,0,1-.91.37,10,10,0,0,0-3,1.45h0a0.35,0.35,0,0,0-.34.18h0a0.65,0.65,0,0,0-.51.34h0A0.26,0.26,0,0,0,491.69,518.49Z" transform="translate(-476.15 -507.15)"/><path class="cls-4" d="M486.06,539.41a17.31,17.31,0,0,0,4.94,5.92,11.39,11.39,0,0,0,3.33,2l2.37,1c-3.71,2.12-7.38,4.28-11.13,6.33-2.17,1.19-4.14.06-4.19-2.4-0.08-4,0-7.94,0-11.91a3.19,3.19,0,0,1,2.36-.5h1.39A1,1,0,0,0,486.06,539.41Z" transform="translate(-476.15 -507.15)"/><path class="cls-5" d="M496.7,548.32l-2.37-1a0.74,0.74,0,0,1,.29-0.8c2.17-1.11,4.1-2.67,6.43-3.47a0.45,0.45,0,0,0,.44-0.4c0.49-.08,1-0.14,1.47-0.23a10.58,10.58,0,0,0,6.86-4.42,0.85,0.85,0,0,0,.55-0.14c1.95-1.45,4.15-2.47,6.21-3.74a1.62,1.62,0,0,1,1.1-.29,21.71,21.71,0,0,1-.39,2.79q-6,3.44-12.06,6.88C502.4,545.12,499.55,546.71,496.7,548.32Z" transform="translate(-476.15 -507.15)"/><path class="cls-6" d="M486.06,539.41a1,1,0,0,1-.92.43h-1.39a3.19,3.19,0,0,0-2.36.5v-14.5a0.55,0.55,0,0,0,.59-0.64c0-.47.26-0.53,0.65-0.53a20,20,0,0,0,3.56-.14c-0.18,1.16-.84,2.14-1.13,3.27a17,17,0,0,0,.54,10.37Z" transform="translate(-476.15 -507.15)"/><path class="cls-7" d="M517.3,536.63a21.69,21.69,0,0,0,.39-2.79,8.72,8.72,0,0,0,0-3.5,18.36,18.36,0,0,0-.39-2.61c1.18,0.66,2.39,1.28,3.54,2,2.26,1.41,2.27,3.5,0,4.91C519.69,535.34,518.48,536,517.3,536.63Z" transform="translate(-476.15 -507.15)"/><path class="cls-8" d="M492.83,517.83a10,10,0,0,1,3-1.45,3,3,0,0,0,.91-0.37,20.86,20.86,0,0,1,5.61-.5,16.49,16.49,0,0,1,7.31,2.26,1,1,0,0,1,.21.24,13.34,13.34,0,0,1-2.58-1.09,16.62,16.62,0,0,0-13.41.57A1.79,1.79,0,0,1,492.83,517.83Z" transform="translate(-476.15 -507.15)"/><path class="cls-8" d="M510.83,518.67a1.09,1.09,0,0,1-1-.66A1.41,1.41,0,0,1,510.83,518.67Z" transform="translate(-476.15 -507.15)"/><path class="cls-8" d="M512.11,519.7a0.57,0.57,0,0,1-.62-0.52A0.68,0.68,0,0,1,512.11,519.7Z" transform="translate(-476.15 -507.15)"/><path class="cls-8" d="M511.29,519a0.38,0.38,0,0,1-.47-0.35A0.44,0.44,0,0,1,511.29,519Z" transform="translate(-476.15 -507.15)"/><path class="cls-9" d="M497,541.82a12.49,12.49,0,0,1-4.54-3.91,10.55,10.55,0,0,1,.31-11.94,10.42,10.42,0,0,1,15.94-1,9.41,9.41,0,0,1,2.78,6.82c0,0.61,0,1.22,0,1.83l-0.16.18a5.17,5.17,0,0,0-1.41.82c-1.62.9-3.21,1.85-4.82,2.77-0.29.17-.71,0.54-0.8-0.24a35.74,35.74,0,0,1-.35-4.87,1.71,1.71,0,0,1,1-1.72,2.35,2.35,0,0,0,1.32-1.89,1.67,1.67,0,0,0-1.5-2,0.16,0.16,0,0,1-.13,0,7.7,7.7,0,0,0-3.33,0c-0.35.47-.07,1-0.2,1.53a4.69,4.69,0,0,0-.12,2c0,1,.09,1.92-0.87,2.53-1.75.25-2.37,0.82-2.66,2.44-0.35.06-.29,0.33-0.32,0.58-0.18,1.95,1.26,2.8,2.53,3.77,0.2,0.16.63,0.05,0.6,0.45a1,1,0,0,1-.61.62c-0.68.52-1.55,0.69-2.19,1.26Z" transform="translate(-476.15 -507.15)"/><path class="cls-10" d="M511.36,533.84l0.16-.18a57.41,57.41,0,0,1,5.25-3.21,0.76,0.76,0,0,1,.91-0.12,8.72,8.72,0,0,1,0,3.5,1.62,1.62,0,0,0-1.1.29c-2.06,1.27-4.26,2.29-6.21,3.74a0.85,0.85,0,0,1-.55.14A9.85,9.85,0,0,0,511.36,533.84Z" transform="translate(-476.15 -507.15)"/><path class="cls-11" d="M497,541.82l0.47,0a6.13,6.13,0,0,0,1.39.5c0.86,0.28,1.77,0,2.62.31a0.45,0.45,0,0,1-.44.4c-2.34.8-4.26,2.36-6.43,3.47a0.74,0.74,0,0,0-.29.8,11.39,11.39,0,0,1-3.33-2,4.91,4.91,0,0,1,2.06-1.47A19.81,19.81,0,0,1,497,541.82Z" transform="translate(-476.15 -507.15)"/><path class="cls-8" d="M492,518.33a0.65,0.65,0,0,1,.51-0.34C492.48,518.34,492.24,518.34,492,518.33Z" transform="translate(-476.15 -507.15)"/><path class="cls-8" d="M490,519.84a0.45,0.45,0,0,1,.33-0.26A0.28,0.28,0,0,1,490,519.84Z" transform="translate(-476.15 -507.15)"/><path class="cls-8" d="M488.59,521.34a0.4,0.4,0,0,1,.25-0.35A0.31,0.31,0,0,1,488.59,521.34Z" transform="translate(-476.15 -507.15)"/><path class="cls-8" d="M489.82,520.16a0.29,0.29,0,0,1,.18-0.33A0.32,0.32,0,0,1,489.82,520.16Z" transform="translate(-476.15 -507.15)"/><path class="cls-8" d="M491.69,518.49a0.26,0.26,0,0,1,.31-0.17A0.26,0.26,0,0,1,491.69,518.49Z" transform="translate(-476.15 -507.15)"/><path class="cls-8" d="M492.49,518a0.35,0.35,0,0,1,.34-0.18A0.29,0.29,0,0,1,492.49,518Z" transform="translate(-476.15 -507.15)"/><path class="cls-8" d="M489.49,520.33a0.28,0.28,0,0,1,.34-0.18A0.32,0.32,0,0,1,489.49,520.33Z" transform="translate(-476.15 -507.15)"/><path class="cls-6" d="M486.18,524.51l0.17-.17Z" transform="translate(-476.15 -507.15)"/><polygon class="cls-8" points="12.35 14.29 12.29 14.27 12.36 14.28 12.35 14.29"/><path class="cls-8" d="M488.83,521l0.18-.18Z" transform="translate(-476.15 -507.15)"/><path class="cls-8" d="M489,520.84l0.18-.18Z" transform="translate(-476.15 -507.15)"/><path class="cls-8" d="M489.16,520.67l0.18-.18Z" transform="translate(-476.15 -507.15)"/><path class="cls-8" d="M489.33,520.5l0.18-.18Z" transform="translate(-476.15 -507.15)"/><path class="cls-12" d="M501.5,542.66c-0.85-.31-1.76,0-2.62-0.31a6.13,6.13,0,0,1-1.39-.5c0.64-.57,1.52-0.74,2.19-1.26a1,1,0,0,0,.61-0.62c0-.4-0.4-0.29-0.6-0.45-1.26-1-2.71-1.83-2.53-3.77,0-.24,0-0.52.32-0.58a2.72,2.72,0,0,0,.54,1.61,1.2,1.2,0,0,0,.33,1,3.59,3.59,0,0,0,3.31.82,2.76,2.76,0,0,0,1.84-2.6c0-1,0-2,0-3-0.07-1.32-.09-2.58,1.51-3.06a0.7,0.7,0,0,0,.27-0.19,1.64,1.64,0,0,0-.41-2.57l-0.06-.48a1.67,1.67,0,0,1,1.5,2A2.35,2.35,0,0,1,505,530.6a1.71,1.71,0,0,0-1,1.72,35.74,35.74,0,0,0,.35,4.87c0.09,0.78.51,0.41,0.8,0.24,1.61-.91,3.2-1.87,4.82-2.77a5.17,5.17,0,0,1,1.41-.82,9.84,9.84,0,0,1-1.52,4.16,10.58,10.58,0,0,1-6.86,4.42C502.48,542.52,502,542.58,501.5,542.66Z" transform="translate(-476.15 -507.15)"/><path class="cls-13" d="M498,536.77a2.72,2.72,0,0,1-.54-1.61c0.29-1.62.91-2.19,2.66-2.44l1,0.28v-4.83c0.13-.5-0.16-1.05.2-1.53h3.33a0.16,0.16,0,0,0,.13,0l0.06,0.48c0,0.55,0,1.1,0,1.64a0.58,0.58,0,0,1-.66.71,7.11,7.11,0,0,1-.83,0c-0.68-.11-0.9.13-0.87,0.84,0.06,1.44,0,2.88,0,4.32,0,2.11-1,3.08-3.14,3l0,0-0.19-.1-0.17,0-0.34-.17Z" transform="translate(-476.15 -507.15)"/><path class="cls-14" d="M501.14,528.17V533l-1-.28c1-.61.88-1.57,0.87-2.53A4.69,4.69,0,0,1,501.14,528.17Z" transform="translate(-476.15 -507.15)"/><path class="cls-14" d="M504.66,526.65h-3.33A7.7,7.7,0,0,1,504.66,526.65Z" transform="translate(-476.15 -507.15)"/><path class="cls-15" d="M504.17,529.52a0.58,0.58,0,0,0,.66-0.71c0-.55,0-1.1,0-1.64a1.64,1.64,0,0,1,.41,2.57,0.7,0.7,0,0,1-.27.19c-1.6.49-1.58,1.74-1.51,3.06,0.05,1,0,2,0,3a2.76,2.76,0,0,1-1.84,2.6,3.59,3.59,0,0,1-3.31-.82,1.2,1.2,0,0,1-.33-1l0.65,0.56a0.34,0.34,0,0,0,.34.17l0.17,0,0.19,0.1,0,0a0.72,0.72,0,0,0,.66.24c1.62,0.54,2.81-.16,3-1.84a7.24,7.24,0,0,0-.17-2.64,3.12,3.12,0,0,1,.42-3A2.47,2.47,0,0,0,504.17,529.52Z" transform="translate(-476.15 -507.15)"/><path class="cls-16" d="M504.17,529.52a2.47,2.47,0,0,1-.94.88,3.12,3.12,0,0,0-.42,3A7.24,7.24,0,0,1,503,536c-0.15,1.68-1.34,2.37-3,1.84a0.72,0.72,0,0,1-.66-0.24c2.12,0.09,3.14-.88,3.14-3,0-1.44,0-2.88,0-4.32,0-.71.2-0.95,0.87-0.84A7.11,7.11,0,0,0,504.17,529.52Z" transform="translate(-476.15 -507.15)"/><path class="cls-16" d="M499,537.5a0.34,0.34,0,0,1-.34-0.17Z" transform="translate(-476.15 -507.15)"/><path class="cls-16" d="M499.37,537.64l-0.19-.1Z" transform="translate(-476.15 -507.15)"/></svg>