<svg xmlns="http://www.w3.org/2000/svg" xmlns:xlink="http://www.w3.org/1999/xlink" viewBox="0 0 1792 1792"><defs><style>.cls-1{fill:none;}.cls-2{clip-path:url(#clip-path);}.cls-3{font-size:353.56px;font-family:Dosis-Medium, Dosis;}</style><clipPath id="clip-path"><rect class="cls-1" x="356.53" y="131.26" width="1037.42" height="1058.79"/></clipPath></defs><title>google</title><g id="Logo"><g id="google"><g class="cls-2"><g class="cls-2"><path d="M885.92,584.83h499.75a500.84,500.84,0,0,1,8.27,88.23q0,149.58-62.73,267.11t-178.88,183.7q-116.15,66.17-266.42,66.17-108.22,0-206.11-41.7t-168.88-112.7q-71-71-112.7-168.88t-41.7-206.11q0-108.22,41.7-206.11t112.7-168.88q71-71,168.88-112.7t206.11-41.7q206.79,0,355,138.55L1096.85,408.37q-84.79-82-210.93-82-88.92,0-164.4,44.81T601.93,492.81q-44.12,76.86-44.12,167.85t44.12,167.85Q646,905.36,721.52,950.17T885.92,995q60,0,110.29-16.54t82.72-41.36a299.27,299.27,0,0,0,56.52-56.52q24.13-31.71,35.5-60t15.51-53.77H885.92Z"/></g></g></g></g><g id="Name"><text class="cls-3" transform="translate(341.21 1751.35)">GOOGLE</text></g></svg>