<svg xmlns="http://www.w3.org/2000/svg" xmlns:xlink="http://www.w3.org/1999/xlink" viewBox="0 0 1792 1792"><defs><style>.cls-1{fill:none;}.cls-2{clip-path:url(#clip-path);}.cls-3{fill:#fff;}.cls-4{font-size:353.56px;font-family:Dosis-Medium, Dosis;}</style><clipPath id="clip-path"><rect class="cls-1" x="330.05" y="107.06" width="1130.91" height="1127.93"/></clipPath></defs><title>itunes</title><g id="Logo"><g class="cls-2"><path class="cls-3" d="M895.22,1166.57c138-1.26,253.22-46.77,348.63-138.48,98.62-94.8,150.07-212.31,153.73-348.91,3.58-133.45-40.52-250.9-131.32-348.88C1168.67,225,1046.36,170.86,903,169.5c-138.1-1.3-257.87,48-355.76,145.41-91.94,91.53-141.27,203.66-145.84,333.5-4.92,140,41,262.54,137.92,363.77C637.28,1114.49,758.85,1164.76,895.22,1166.57Z"/><path d="M895.22,1166.57c-136.37-1.81-257.94-52.08-355.94-154.39C442.33,911,396.44,788.4,401.36,648.41c4.57-129.84,53.9-242,145.84-333.5C645.09,217.46,764.86,168.2,903,169.5c143.39,1.35,265.71,55.48,363.3,160.8,90.8,98,134.89,215.43,131.32,348.88-3.66,136.6-55.12,254.11-153.73,348.91C1148.44,1119.8,1033.2,1165.31,895.22,1166.57ZM1168,325.3c-2.52-.16-3.65-.33-4.78-.29-15.2.64-30.41,1.26-45.61,2-12.37.59-24.74,1.3-37.1,2-4.77.27-9.55.55-14.3,1.07-11.08,1.22-22.13,2.64-33.21,3.9-9.62,1.09-19.3,1.75-28.88,3.15q-24.48,3.58-48.85,7.9c-16.71,2.92-33.45,5.76-50,9.44-19.69,4.38-39.4,8.93-58.72,14.67-30.87,9.16-61.49,19.18-92.07,29.25-6,2-9.58,6-9.57,14.35q.18,205.25.08,410.5v6.91c-2.1-.31-3.7-.42-5.23-.8-18.22-4.51-36.42-7.78-55.46-5.54a124.17,124.17,0,0,0-51.73,17.88c-17.89,11.07-33,24.92-43.09,43.48-9.75,17.85-12.63,37.07-9.53,57.19,4.74,30.77,21.6,52.77,49.11,66.56,24.61,12.34,50.72,14.66,77.67,10.11,27.82-4.7,50.86-17.86,68.37-39.84,17.31-21.72,25.51-47.41,25.66-74.73.58-104.83.23-209.66.26-314.5,0-5.26-1.56-12.14,1.11-15.34,2.82-3.38,9.81-3.38,15-4.62,29.62-7,59.2-14.21,88.9-20.87,17.18-3.85,34.5-7.11,51.86-10.05,18.21-3.08,36.51-5.72,54.83-8.08,20.32-2.62,40.72-4.7,61.08-7,5.37-.61,10.72-1.56,16.11-1.84,6.18-.32,12.4-.07,18.79-.07V751.56c-8.93-2-17.64-4-26.37-5.84a118.23,118.23,0,0,0-45.48-.47c-25,4.43-46.2,16.75-64.53,34-15.56,14.63-26,32.48-30,53.49a86.79,86.79,0,0,0,3.45,46.65c8.14,22.28,24.25,37.38,44.11,49,23.62,13.81,49,16.59,75.62,11.69,23.76-4.37,45.29-13.9,63.87-29.15,24.61-20.19,36.07-47.33,36.47-78.63.85-65.59.85-131.2,1.15-196.8q.54-115.4,1-230.8c.05-12.5,0-25,0-37.5Z"/><path class="cls-3" d="M1168,325.3v41.87c0,12.5,0,25,0,37.5q-.48,115.4-1,230.8c-.31,65.6-.3,131.21-1.15,196.8-.41,31.3-11.86,58.44-36.47,78.63-18.59,15.25-40.11,24.77-63.87,29.15-26.6,4.9-52,2.12-75.62-11.69-19.86-11.61-36-26.71-44.11-49a86.79,86.79,0,0,1-3.45-46.65c4-21,14.49-38.86,30-53.49,18.34-17.24,39.56-29.56,64.53-34a118.23,118.23,0,0,1,45.48.47c8.73,1.86,17.44,3.86,26.37,5.84V522.08c-6.39,0-12.61-.25-18.79.07-5.39.28-10.74,1.23-16.11,1.84-20.36,2.33-40.76,4.4-61.08,7-18.32,2.36-36.62,5-54.83,8.08-17.36,2.94-34.68,6.21-51.86,10.05-29.7,6.65-59.28,13.84-88.9,20.87-5.22,1.24-12.21,1.24-15,4.62-2.67,3.2-1.11,10.08-1.11,15.34,0,104.83.32,209.67-.26,314.5-.15,27.32-8.35,53-25.66,74.73-17.52,22-40.55,35.13-68.37,39.84-26.95,4.56-53.06,2.23-77.67-10.11-27.51-13.79-44.37-35.78-49.11-66.56-3.1-20.11-.22-39.33,9.53-57.19,10.13-18.56,25.2-32.41,43.09-43.48a124.17,124.17,0,0,1,51.73-17.88c19-2.24,37.24,1,55.46,5.54,1.53.38,3.13.48,5.23.8v-6.91q0-205.25-.08-410.5c0-8.4,3.54-12.37,9.57-14.35,30.59-10.07,61.21-20.09,92.07-29.25,19.33-5.73,39-10.28,58.72-14.67,16.55-3.68,33.29-6.52,50-9.44q24.37-4.27,48.85-7.9c9.57-1.4,19.26-2.06,28.88-3.15,11.07-1.25,22.13-2.67,33.21-3.9,4.75-.52,9.53-.8,14.3-1.07,12.37-.71,24.73-1.41,37.1-2,15.2-.73,30.41-1.35,45.61-2C1164.35,325,1165.48,325.14,1168,325.3Z"/></g></g><g id="Name"><text class="cls-4" transform="translate(395.3 1751.35)">ITUNES</text></g></svg>