<svg id="Layer_1" data-name="Layer 1" xmlns="http://www.w3.org/2000/svg" viewBox="0 0 50.03 50.2"><defs><style>.cls-1{fill:#fefefe;}.cls-2{fill:#fa5c5d;}.cls-3{fill:#b0b5b8;}.cls-4{fill:#e6e7ec;}.cls-5{fill:#d86699;}.cls-6{fill:#ee607b;}.cls-7{fill:#d9e0e4;}.cls-8{fill:#fcfbfb;}.cls-9{fill:#f5f1f4;}.cls-10{fill:#24bdf9;}.cls-11{fill:#8c62fc;}.cls-12{fill:#c64ed6;}.cls-13{fill:#509bf9;}.cls-14{fill:#b77bb5;}.cls-15{fill:#efe9f0;}.cls-16{fill:#dde5e8;}</style></defs><title>itunes</title><path class="cls-1" d="M468.17,484.16q0-12.2,0-24.41c0-.47.07-0.61,0.59-0.61q24.41,0,48.81,0c0.55,0,.62.16,0.62,0.65q0,24.45,0,48.9c0,0.5-.09.65-0.63,0.65q-24.36,0-48.73,0c-0.6,0-.67-0.15-0.67-0.7Q468.18,496.41,468.17,484.16Zm9.47-12.51h0l-0.15.18-0.15.06c0-.14-0.09-0.43-0.25-0.26s-0.72.47-.51,1l-0.06.22a0.63,0.63,0,0,0-.67.51,7.54,7.54,0,0,1-.63,1.16,12.83,12.83,0,0,0-1.56,4.49v0.33a4.18,4.18,0,0,0-.57,2.41,0.46,0.46,0,0,0,.22.09v0.32c-0.61.49-.72,3.28-0.16,3.86v0.32c-0.17.37-.39,0.76,0.17,1v0.33c-0.18.52-.48,1.07,0.35,1.33l0,0.32c-0.31.26-.26,0.43,0.12,0.52H474l0,0.32a0.3,0.3,0,0,0-.19.34,0.63,0.63,0,0,0,.48.68v0.32a2.82,2.82,0,0,0,1.35,2.65,2.82,2.82,0,0,1,.62.85c-0.61.27,0,.51,0.08,0.65a3.15,3.15,0,0,0,1.64,2h0c0.09,0.55.23,1,1,.87l1.14,1c-0.26.73,0.2,0.79,0.73,0.8H481v0.18a0.9,0.9,0,0,0,.62.68,7.67,7.67,0,0,1,1.87,1.24,1,1,0,0,0,1.06.37l0.3,0c0,0.48.39,0.32,0.65,0.36h0.16c0.49,0.87,1.41.75,2.18,1a2.74,2.74,0,0,1,1,0c0,0.21.09,0.4,0.34,0.15h0.32c0.08,0.34.24,0.42,0.51,0.16h0.33c0.25,0.56.63,0.33,1,.16h0.49a0.31,0.31,0,0,0,.24.29q1.52,0,3,0a0.31,0.31,0,0,0,.24-0.3h0.49a2,2,0,0,0,2-.34H498a7.27,7.27,0,0,0,3.13-.79,0.48,0.48,0,0,0,.37-0.54l0.32,0c0.19,0.32.42,0.12,0.65,0.06a6.6,6.6,0,0,0,2.33-1.41,22.46,22.46,0,0,0,3.64-2.93,23.55,23.55,0,0,0,2.61-3.29,20.48,20.48,0,0,0,2.75-7,21.76,21.76,0,0,0,.16-7.87,21.22,21.22,0,0,0-3.78-8.69,0.84,0.84,0,0,0-.86-0.52,15.1,15.1,0,0,0-3.79-3.55,13.94,13.94,0,0,0-3.71-2.28,1.63,1.63,0,0,0-1.32-.34,0.66,0.66,0,0,0-.42-0.35,19.7,19.7,0,0,0-11.86-.38,20.44,20.44,0,0,0-9.74,6.06c-0.62.06-1.16,0.18-.81,1A0.24,0.24,0,0,0,477.63,471.65Z" transform="translate(-468.15 -459.15)"/><path class="cls-2" d="M478.48,470.49a20.44,20.44,0,0,1,9.74-6.06,19.7,19.7,0,0,1,11.86.38,0.66,0.66,0,0,1,.42.35c0.35,0.29.77,0.57-.08,0.77a2,2,0,0,0-.61.48c-0.32-.08-0.64-0.15-1-0.24a18.18,18.18,0,0,0-10.69,0,18.88,18.88,0,0,0-6,3.13,0.85,0.85,0,0,0-.55.49c-1.11.69-1.75,1.88-2.78,2.65,0.14-.61.28-1.22-0.73-1a0.32,0.32,0,0,1-.11-0.11A2.38,2.38,0,0,1,478.48,470.49Z" transform="translate(-468.15 -459.15)"/><path class="cls-3" d="M480.14,499.51l-1.14-1a1.64,1.64,0,0,0-1-.87h0a18.71,18.71,0,0,0-1.72-2.63,2.81,2.81,0,0,0-.62-0.85c0-.82-0.81-1.34-0.86-2.15a0.32,0.32,0,0,0-.15-0.34l-0.15-.17a0.59,0.59,0,0,0-.18-0.5l0-.48a0.28,0.28,0,0,0-.29-0.34l0-.32c0.25-.28.3-0.49-0.17-0.54l-0.11,0,0-.32-0.17-1.33,0.17-.68a0.73,0.73,0,0,1,.16.45,18.73,18.73,0,0,0,2,5.73,18.19,18.19,0,0,0,3.75,5.11,16.42,16.42,0,0,0,4.93,3.41,16.78,16.78,0,0,0,6.1,2,10.68,10.68,0,0,0,4.35.07l1,0a0.13,0.13,0,0,0,.24,0,18.78,18.78,0,0,0,10.57-4.86,19,19,0,0,0,3.7-4.3,6,6,0,0,0,1.06-2.2,1.66,1.66,0,0,0,.4-0.79,1,1,0,0,1,.59-0.91,6.11,6.11,0,0,1-1,2.93,19.22,19.22,0,0,1-5,6.22,11.55,11.55,0,0,1-2.38,1.73l-0.17.16a16.56,16.56,0,0,0-2.17,1.3l-0.32,0h-0.33a0.32,0.32,0,0,0-.37.29h-0.13a2.65,2.65,0,0,0-1.86.66l-0.8.16a0.29,0.29,0,0,0-.5,0l-0.66,0a0.28,0.28,0,0,0-.34.13l-0.66,0a0.93,0.93,0,0,0-.84.14h-3a0.66,0.66,0,0,0-.67-0.13l-1,0a0.3,0.3,0,0,0-.34-0.13l-0.33,0a0.43,0.43,0,0,0-.5-0.14l-0.33,0a2.39,2.39,0,0,0-1-.32l-0.48,0a0.38,0.38,0,0,0-.52-0.3l-1-.21a0.42,0.42,0,0,0-.53-0.31l-0.49,0-0.3,0a18.62,18.62,0,0,0-3.22-2.29,0.32,0.32,0,0,0-.32-0.18h-0.15A1.52,1.52,0,0,0,480.14,499.51Z" transform="translate(-468.15 -459.15)"/><path class="cls-4" d="M501.83,503a16.56,16.56,0,0,1,2.17-1.3l0.17-.16a11.55,11.55,0,0,0,2.38-1.73,19.22,19.22,0,0,0,5-6.22,6.11,6.11,0,0,0,1-2.93,37.22,37.22,0,0,0,1-4.6,8.17,8.17,0,0,0,.13-2.92l0-.38a7.16,7.16,0,0,0-.14-1.59c-0.05-.3-0.09-0.6-0.15-0.89a17.62,17.62,0,0,0-2.46-6.42l-1.55-2.49a0.84,0.84,0,0,1,.86.52,21.22,21.22,0,0,1,3.78,8.69,21.76,21.76,0,0,1-.16,7.87,20.48,20.48,0,0,1-2.75,7,23.55,23.55,0,0,1-2.61,3.29,22.46,22.46,0,0,1-3.64,2.93,6.6,6.6,0,0,1-2.33,1.41C502.25,503.08,502,503.28,501.83,503Z" transform="translate(-468.15 -459.15)"/><path class="cls-5" d="M509.32,471.34l1.55,2.49a3.28,3.28,0,0,0-1.58.23l0,0-0.18-.18a15.41,15.41,0,0,0-1.56-2.11,34.52,34.52,0,0,1-2.74-2.7c0-.56.52-0.8,0.7-1.25A15.1,15.1,0,0,1,509.32,471.34Z" transform="translate(-468.15 -459.15)"/><path class="cls-6" d="M478,471.31a0.32,0.32,0,0,0,.11.11c1-.19.86,0.42,0.73,1a2.85,2.85,0,0,1-.54,1,9,9,0,0,0-1.38,2.56c-0.61.78-.63,1.8-1.08,2.65,0-.79-0.21-1.45-1.17-1.5a15.41,15.41,0,0,1,1.6-3.51,0.86,0.86,0,0,0,.28-0.8l0.06-.23a0.87,0.87,0,0,0,.76-0.73l0.15-.06,0.15-.18h0l0.19-.17Z" transform="translate(-468.15 -459.15)"/><path class="cls-6" d="M505.53,467.79c-0.18.45-.73,0.69-0.7,1.25a43.77,43.77,0,0,0-5-2.63,2,2,0,0,1,.61-0.48c0.85-.2.42-0.48,0.08-0.77a1.63,1.63,0,0,1,1.32.34A13.94,13.94,0,0,1,505.53,467.79Z" transform="translate(-468.15 -459.15)"/><path class="cls-4" d="M476.53,472.85a0.86,0.86,0,0,1-.28.8,15.41,15.41,0,0,0-1.6,3.51l-0.11,0a0.61,0.61,0,0,0-.2.67L474,479h-0.34a12.83,12.83,0,0,1,1.56-4.49,7.54,7.54,0,0,0,.63-1.16A0.63,0.63,0,0,1,476.53,472.85Z" transform="translate(-468.15 -459.15)"/><path class="cls-4" d="M481.33,500.5a18.62,18.62,0,0,1,3.22,2.29,1,1,0,0,1-1.06-.37,7.67,7.67,0,0,0-1.87-1.24,0.9,0.9,0,0,1-.62-0.68h0.33Z" transform="translate(-468.15 -459.15)"/><path class="cls-4" d="M473.16,486c-0.56-.58-0.44-3.37.16-3.86A19.06,19.06,0,0,1,473.16,486Z" transform="translate(-468.15 -459.15)"/><path class="cls-4" d="M492,504.5h3a0.38,0.38,0,0,0,.34.17,0.31,0.31,0,0,1-.24.3q-1.52,0-3,0a0.31,0.31,0,0,1-.24-0.29Z" transform="translate(-468.15 -459.15)"/><path class="cls-4" d="M474.83,492c0.06,0.81.83,1.33,0.86,2.15a2.82,2.82,0,0,1-1.35-2.65l0.19,0,0.15,0.17A0.34,0.34,0,0,0,474.83,492Z" transform="translate(-468.15 -459.15)"/><path class="cls-7" d="M473.16,486a19.06,19.06,0,0,0,.16-3.86q0-.16,0-0.32h0.2q0,0.67,0,1.33a20.43,20.43,0,0,0,.16,3.81l-0.17.68h-0.18v-0.33a1.35,1.35,0,0,0-.17-1V486Z" transform="translate(-468.15 -459.15)"/><path class="cls-4" d="M476.31,495a18.71,18.71,0,0,1,1.72,2.63,3.15,3.15,0,0,1-1.64-2C476.32,495.51,475.69,495.27,476.31,495Z" transform="translate(-468.15 -459.15)"/><path class="cls-4" d="M500.67,503.32h0.13a0.29,0.29,0,0,0,.37-0.29h0.33a0.48,0.48,0,0,1-.37.54,7.27,7.27,0,0,1-3.13.79v-0.19l0.8-.16A3.81,3.81,0,0,0,500.67,503.32Z" transform="translate(-468.15 -459.15)"/><path class="cls-4" d="M473.51,481.83h-0.2a0.46,0.46,0,0,1-.22-0.09,4.18,4.18,0,0,1,.57-2.41v1.19l0,0.31a1.08,1.08,0,0,0-.14.86A0.19,0.19,0,0,1,473.51,481.83Z" transform="translate(-468.15 -459.15)"/><path class="cls-4" d="M487.35,503.65l0.48,0v0.47c-0.77-.22-1.7-0.11-2.18-1l0.21,0,1,0.21C486.87,503.69,487.11,503.67,487.35,503.65Z" transform="translate(-468.15 -459.15)"/><path class="cls-4" d="M496.84,504.21l0.66,0a0.36,0.36,0,0,0,.34.16,2,2,0,0,1-2,.34v-0.31l0.66,0C496.73,504.58,496.79,504.42,496.84,504.21Z" transform="translate(-468.15 -459.15)"/><path class="cls-4" d="M473.33,487.67h0.18l0.17,1.33C472.85,488.74,473.14,488.19,473.33,487.67Z" transform="translate(-468.15 -459.15)"/><path class="cls-4" d="M478,497.64a1.64,1.64,0,0,1,1,.87C478.26,498.68,478.12,498.19,478,497.64Z" transform="translate(-468.15 -459.15)"/><path class="cls-4" d="M490.33,504.32l1,0v0.31c-0.37.17-.75,0.4-1-0.16v-0.19Z" transform="translate(-468.15 -459.15)"/><path class="cls-4" d="M477.35,471.89a0.87,0.87,0,0,1-.76.73c-0.21-.52.27-0.73,0.51-1S477.31,471.75,477.35,471.89Z" transform="translate(-468.15 -459.15)"/><path class="cls-4" d="M478,471.31l-0.16.16a0.35,0.35,0,0,1-.16,0c-0.35-.83.19-1,0.81-1A2.38,2.38,0,0,0,478,471.31Z" transform="translate(-468.15 -459.15)"/><path class="cls-4" d="M480.14,499.51a1.52,1.52,0,0,1,.72.8C480.34,500.3,479.87,500.23,480.14,499.51Z" transform="translate(-468.15 -459.15)"/><path class="cls-7" d="M487.84,504.15v-0.47a2.39,2.39,0,0,1,1,.32v0.18A2.74,2.74,0,0,0,487.84,504.15Z" transform="translate(-468.15 -459.15)"/><path class="cls-4" d="M473.16,486.33a1.35,1.35,0,0,1,.17,1C472.76,487.09,473,486.71,473.16,486.33Z" transform="translate(-468.15 -459.15)"/><path class="cls-7" d="M473.68,480.52V479H474A6.23,6.23,0,0,1,473.68,480.52Z" transform="translate(-468.15 -459.15)"/><path class="cls-4" d="M474.32,490.5l0,0.48,0,0.2a0.63,0.63,0,0,1-.48-0.68h0.48Z" transform="translate(-468.15 -459.15)"/><path class="cls-7" d="M495.84,504.36v0.31h-0.49a0.38,0.38,0,0,1-.34-0.17A0.93,0.93,0,0,1,495.84,504.36Z" transform="translate(-468.15 -459.15)"/><path class="cls-4" d="M489.67,504.17l0.33,0v0.31c-0.27.26-.43,0.18-0.51-0.16Z" transform="translate(-468.15 -459.15)"/><path class="cls-7" d="M491.33,504.67v-0.31a0.66,0.66,0,0,1,.67.14l-0.18.18h-0.49Z" transform="translate(-468.15 -459.15)"/><path class="cls-7" d="M473.82,489.3c0.47,0,.43.26,0.17,0.54h-0.16V489.3Z" transform="translate(-468.15 -459.15)"/><path class="cls-4" d="M484.85,502.81l0.49,0,0.16,0.34C485.24,503.13,484.86,503.29,484.85,502.81Z" transform="translate(-468.15 -459.15)"/><path class="cls-7" d="M497.84,504.34a0.36,0.36,0,0,1-.34-0.16,0.29,0.29,0,0,1,.5,0v0.19h-0.16Z" transform="translate(-468.15 -459.15)"/><path class="cls-4" d="M488.83,504.18V504l0.33,0v0.31C488.92,504.58,488.87,504.39,488.83,504.18Z" transform="translate(-468.15 -459.15)"/><path class="cls-7" d="M489.17,504.34V504a0.43,0.43,0,0,1,.5.14l-0.17.17h-0.32Z" transform="translate(-468.15 -459.15)"/><path class="cls-4" d="M473.82,489.3v0.54c-0.38-.1-0.44-0.27-0.12-0.52Z" transform="translate(-468.15 -459.15)"/><path class="cls-7" d="M474.32,490.5h-0.48a0.3,0.3,0,0,1,.19-0.34A0.28,0.28,0,0,1,474.32,490.5Z" transform="translate(-468.15 -459.15)"/><path class="cls-7" d="M485.5,503.17l-0.16-.34a0.42,0.42,0,0,1,.53.31l-0.21,0H485.5Z" transform="translate(-468.15 -459.15)"/><path class="cls-7" d="M490,504.5v-0.31a0.3,0.3,0,0,1,.34.13v0.19H490Z" transform="translate(-468.15 -459.15)"/><path class="cls-7" d="M474.32,491.18l0-.2a0.59,0.59,0,0,1,.18.5l-0.19,0v-0.32Z" transform="translate(-468.15 -459.15)"/><path class="cls-7" d="M481.33,500.5H481v-0.18A0.32,0.32,0,0,1,481.33,500.5Z" transform="translate(-468.15 -459.15)"/><path class="cls-2" d="M477.66,471.64l-0.15.18Z" transform="translate(-468.15 -459.15)"/><path class="cls-2" d="M477.67,471.5a0.35,0.35,0,0,0,.16,0l-0.19.17A0.24,0.24,0,0,1,477.67,471.5Z" transform="translate(-468.15 -459.15)"/><path class="cls-8" d="M499.81,466.41a43.77,43.77,0,0,1,5,2.63,34.51,34.51,0,0,0,2.74,2.7,15.42,15.42,0,0,1,1.56,2.11L509.3,474l0,0a24.29,24.29,0,0,1,2.51,7.13v0.47l-0.3,0a1.36,1.36,0,0,0-.17-0.84,1,1,0,0,0-.16-0.83,11.06,11.06,0,0,0-.64-2.48,0.3,0.3,0,0,0-.32-0.29,36.75,36.75,0,0,1-4.54-.11c-1.13-.15-1.73.69-2.55,1.05-0.37.16-.09,1-0.12,1.58s0,0.94,0,1.41v3.17h-0.28L502.67,482V471.5a0.88,0.88,0,0,0-1.2-.95,19,19,0,0,0-2.82.61l-0.32.05-0.25.09c-0.3,0-.6.06-0.9,0.12l-6.6,1.27a0.39,0.39,0,0,0-.41.12c-0.49.3-1.36-.07-1.51,0.85a0.43,0.43,0,0,0-.36.34,0.15,0.15,0,0,0-.05,0,0.66,0.66,0,0,0,0,.12l0.06,0.16v5.33q0,1.75,0,3.51l-0.06,1.49c-0.41-.09-0.28-0.42-0.29-0.67,0-.66,0-1.33,0-2v-3q0-1.41,0-2.82c0-1.14,0-1.17-1.16-1.18a39,39,0,0,1-4.31-.06c-1.42-.17-2.79.2-4.19,0.13-0.76,0-.81.85-1.43,0.94a9,9,0,0,1,1.38-2.56,2.85,2.85,0,0,0,.54-1c1-.77,1.67-2,2.78-2.65,0.39,0.07.59-.07,0.55-0.49a18.88,18.88,0,0,1,6-3.13,18.18,18.18,0,0,1,10.69,0C499.16,466.27,499.49,466.33,499.81,466.41Z" transform="translate(-468.15 -459.15)"/><path class="cls-9" d="M482.16,469.32c0,0.42-.16.56-0.55,0.49A0.85,0.85,0,0,1,482.16,469.32Z" transform="translate(-468.15 -459.15)"/><path class="cls-10" d="M511.51,492.33a6,6,0,0,1-1.06,2.2,19,19,0,0,1-3.7,4.3,18.78,18.78,0,0,1-10.57,4.86l-0.24,0-1,0a2.26,2.26,0,0,0-.45-1.43,18.67,18.67,0,0,0,4.54-.86,16.76,16.76,0,0,0,5.79-3.08,1.21,1.21,0,0,0,.71-0.65l0,0a1.92,1.92,0,0,0,.78-0.71l0.16-.15a10.94,10.94,0,0,0,.9-0.81,17.44,17.44,0,0,0,2.78-4.22,0.3,0.3,0,0,1,.29.23c0.05,0.28,0,.63.35,0.74S511.27,492.46,511.51,492.33Z" transform="translate(-468.15 -459.15)"/><path class="cls-11" d="M484.51,501.69a16.42,16.42,0,0,1-4.93-3.41,18.19,18.19,0,0,1-3.75-5.11,1.28,1.28,0,0,0,1.22-1,9.33,9.33,0,0,0,1.07,1.72h0l0.17,0.33a14.77,14.77,0,0,0,3.68,4h0a3.41,3.41,0,0,0,1.16.85h0l0.18,0.17a13.06,13.06,0,0,0,1.86,1.14A3.25,3.25,0,0,0,484.51,501.69Z" transform="translate(-468.15 -459.15)"/><path class="cls-12" d="M477.06,492.14a1.28,1.28,0,0,1-1.22,1,18.73,18.73,0,0,1-2-5.73,0.73,0.73,0,0,0-.16-0.45,20.44,20.44,0,0,1-.16-3.82,0.73,0.73,0,0,0,.13-0.29c-0.07-1,.41-0.58,1-0.49s0.27,0.58.52,0.77l0,0.85v0.67a12.33,12.33,0,0,0,.32,2.66,5.93,5.93,0,0,0,.11,1.05C476,489.67,476.55,490.9,477.06,492.14Z" transform="translate(-468.15 -459.15)"/><path class="cls-13" d="M484.51,501.69a3.25,3.25,0,0,1,.68-1.37,19.09,19.09,0,0,0,9.32,2,2.26,2.26,0,0,1,.45,1.43,10.66,10.66,0,0,1-4.35-.07A16.78,16.78,0,0,1,484.51,501.69Z" transform="translate(-468.15 -459.15)"/><path class="cls-13" d="M511.51,492.33c-0.24.14-.29,0.57-0.68,0.47s-0.3-.46-0.35-0.74a0.3,0.3,0,0,0-.29-0.23,19.6,19.6,0,0,0,1-2.66,17.76,17.76,0,0,0,.83-6.66l1.63,0.23,0,0.38a11,11,0,0,0-.13,2.92,37.22,37.22,0,0,1-1,4.6,1,1,0,0,0-.59.91A1.66,1.66,0,0,1,511.51,492.33Z" transform="translate(-468.15 -459.15)"/><path class="cls-7" d="M500.67,503.32a3.81,3.81,0,0,1-1.86.66A2.64,2.64,0,0,1,500.67,503.32Z" transform="translate(-468.15 -459.15)"/><path class="cls-7" d="M487.35,503.65c-0.24,0-.48,0-0.52-0.3A0.38,0.38,0,0,1,487.35,503.65Z" transform="translate(-468.15 -459.15)"/><path class="cls-7" d="M496.84,504.21c0,0.21-.11.37-0.34,0.13A0.28,0.28,0,0,1,496.84,504.21Z" transform="translate(-468.15 -459.15)"/><path class="cls-7" d="M501.17,503a0.29,0.29,0,0,1-.37.29A0.32,0.32,0,0,1,501.17,503Z" transform="translate(-468.15 -459.15)"/><path class="cls-7" d="M474.83,492a0.34,0.34,0,0,1-.15-0.34A0.32,0.32,0,0,1,474.83,492Z" transform="translate(-468.15 -459.15)"/><path class="cls-13" d="M495.95,503.71l0.24,0A0.13,0.13,0,0,1,495.95,503.71Z" transform="translate(-468.15 -459.15)"/><path class="cls-7" d="M504.17,501.5l-0.17.16Z" transform="translate(-468.15 -459.15)"/><path class="cls-14" d="M511.8,481.18a24.29,24.29,0,0,0-2.51-7.13,3.28,3.28,0,0,1,1.58-.22,17.62,17.62,0,0,1,2.46,6.42c0.06,0.3.1,0.6,0.15,0.89Z" transform="translate(-468.15 -459.15)"/><path class="cls-3" d="M511.8,481.18l1.67,0a7.17,7.17,0,0,1,.14,1.59l-1.63-.23-0.19-.85v-0.47Z" transform="translate(-468.15 -459.15)"/><path class="cls-3" d="M513.5,486a11,11,0,0,1,.13-2.92A8.17,8.17,0,0,1,513.5,486Z" transform="translate(-468.15 -459.15)"/><path class="cls-14" d="M509.3,474l-0.18-.18Z" transform="translate(-468.15 -459.15)"/><path class="cls-9" d="M475.17,484l0-.85a16.57,16.57,0,0,1,.71-4.49c0.45-.85.47-1.87,1.08-2.65,0.62-.09.67-1,1.43-0.94,1.39,0.07,2.76-.3,4.19-0.13a39,39,0,0,0,4.31.06c1.13,0,1.16,0,1.16,1.18q0,1.41,0,2.82c-3.63,0-7.25,0-10.88,0a1.14,1.14,0,0,0-1.29,1.09,15.29,15.29,0,0,0-.34,3.28C475.51,483.62,475.58,483.94,475.17,484Z" transform="translate(-468.15 -459.15)"/><path class="cls-5" d="M475.83,478.66a16.57,16.57,0,0,0-.71,4.49c-0.25-.19.07-0.67-0.52-0.77s-1-.49-1,0.49a0.73,0.73,0,0,1-.13.29v-1.33a0.19,0.19,0,0,0,0-.13,1.33,1.33,0,0,0,.14-0.86l0-.31A6.22,6.22,0,0,0,474,479l0.34-1.15a1.1,1.1,0,0,0,.2-0.67l0.11,0C475.62,477.21,475.81,477.87,475.83,478.66Z" transform="translate(-468.15 -459.15)"/><path class="cls-7" d="M474.54,477.18a1.1,1.1,0,0,1-.2.67A0.61,0.61,0,0,1,474.54,477.18Z" transform="translate(-468.15 -459.15)"/><path class="cls-7" d="M473.65,480.84a1.33,1.33,0,0,1-.14.86A1.08,1.08,0,0,1,473.65,480.84Z" transform="translate(-468.15 -459.15)"/><path class="cls-15" d="M475.17,484c0.41-.06.34-0.38,0.33-0.64a15.29,15.29,0,0,1,.34-3.28,1.14,1.14,0,0,1,1.29-1.09c3.63,0,7.25,0,10.88,0q0,0.92,0,1.83a8.3,8.3,0,0,0-3.18-.18,1.84,1.84,0,0,1-.57-0.1,5.47,5.47,0,0,0-1.82,0,33.75,33.75,0,0,1-4.77,0,4.33,4.33,0,0,0-1.33.22,0.34,0.34,0,0,0-.21.57c0.13,0.24.24,0.57,0.61,0.31a0.75,0.75,0,0,1,.7-0.16c1,0.39,2,0,3,.05,1.45,0,2.91,0,4.37,0A27.75,27.75,0,0,0,488,482c0,0.66,0,1.33,0,2,0,0.25-.12.58,0.29,0.67l0.07,2c0,0.3,0,.6,0,0.89-0.06.6,0.19,1.26-.3,1.79,0-.53,0-1.05,0-1.58s0-.51-0.55-0.51c-1.34,0-2.56,1.1-4,.4a0.47,0.47,0,0,0-.32.07,0.88,0.88,0,0,1-.87-0.09,3.37,3.37,0,0,0-2.16-.25c-1.11.08-2.18,0.66-3.33,0.27-0.42-.14-0.45.31-0.66,0.49,0-.15.06-0.34-0.14-0.42a0.14,0.14,0,0,0-.12.06,0.34,0.34,0,0,0,.26.35,5.11,5.11,0,0,0,.65,2,23.63,23.63,0,0,1,.86,2.51,2.06,2.06,0,0,1,.47,1.2,9.34,9.34,0,0,1-1.07-1.73c-0.51-1.24-1.06-2.47-1.45-3.75a5.93,5.93,0,0,1-.11-1.05,0.75,0.75,0,0,0,.16-0.67,0.27,0.27,0,0,0,.3-0.21c0-.22-0.13-0.26-0.3-0.29a1.65,1.65,0,0,1-.17-0.95c0-.24,0-0.51-0.32-0.55V484Z" transform="translate(-468.15 -459.15)"/><path class="cls-4" d="M511.8,481.65l0.19,0.85a17.76,17.76,0,0,1-.83,6.66,0.89,0.89,0,0,0-.95.87,0.59,0.59,0,0,1-.71.47,9.06,9.06,0,0,0-1.74.08,1.15,1.15,0,0,1-1.15-.25,1,1,0,0,0-1.42-.07c-0.21.14-.45,0.36-0.66,0.13a3.07,3.07,0,0,0-1.52-.56V483.5a3.64,3.64,0,0,0,1,.12c1.93-.28,3.87,0,5.79-0.15,0.54,0,1.16.6,1.59-.09a3.61,3.61,0,0,0,.14-1.71Z" transform="translate(-468.15 -459.15)"/><path class="cls-6" d="M488.35,479.66v-2.34c0.46-.11.3-0.48,0.29-0.75,0-.78-0.16-1.61,1.1-1.26a0.71,0.71,0,0,0,.24-0.06,16.45,16.45,0,0,0,4.64-1.89c0.55-.28.71-0.54,0.17-1l3.63-.75c0.26-.05.22-0.28,0.21-0.47a19,19,0,0,1,2.82-.61,0.88,0.88,0,0,1,1.2.95c-0.38.68,0,1.45-.28,2.15a5.83,5.83,0,0,1,0-1.06c0-.55-0.15-0.67-0.59-0.3-1,.85-2.19,1.46-3.21,2.32a22.21,22.21,0,0,1-4.16,2.53,0.55,0.55,0,0,0-.45.52c0.06,0.28.37,0.12,0.57,0.17h0v0.31c-1.4.1-2.72,0.6-4.09,0.81a0.68,0.68,0,0,0-.63.71c-0.3-.71-0.66-0.81-1.13-0.14A0.71,0.71,0,0,1,488.35,479.66Z" transform="translate(-468.15 -459.15)"/><path class="cls-9" d="M503,481.17c0-.47,0-0.94,0-1.41s-0.25-1.42.12-1.58c0.82-.36,1.42-1.2,2.55-1.05a36.75,36.75,0,0,0,4.54.11,0.3,0.3,0,0,1,.32.29,11.06,11.06,0,0,1,.64,2.48c-0.09.38-.63,0.4-0.66,0.83-1.06.09-2.16-.22-3.18,0.3a0.84,0.84,0,0,1-.72-0.08,2.64,2.64,0,0,0-2.25,0A2.15,2.15,0,0,1,503,481.17Z" transform="translate(-468.15 -459.15)"/><path class="cls-5" d="M494.49,478.14v-0.31l0.36-.07a0.15,0.15,0,0,0,0-.06,0.26,0.26,0,0,0-.32.13c-0.2,0-.51.12-0.57-0.17a0.55,0.55,0,0,1,.45-0.52,22.21,22.21,0,0,0,4.16-2.53c1-.86,2.19-1.48,3.21-2.32,0.44-.37.61-0.24,0.59,0.3a5.83,5.83,0,0,0,0,1.06c0.29-.7-0.1-1.47.28-2.15V475a1.79,1.79,0,0,1-1.71,1.87,4.09,4.09,0,0,0-.73,0Z" transform="translate(-468.15 -459.15)"/><path class="cls-15" d="M503,481.17a2.15,2.15,0,0,0,1.35-.13,2.64,2.64,0,0,1,2.25,0,0.84,0.84,0,0,0,.72.08c1-.52,2.12-0.21,3.18-0.3h0.83a1.36,1.36,0,0,1,.17.84,3.61,3.61,0,0,1-.14,1.71c-0.43.69-1.06,0.06-1.59,0.09-1.92.14-3.86-.13-5.79,0.15a3.64,3.64,0,0,1-1-.12Q503,482.33,503,481.17Z" transform="translate(-468.15 -459.15)"/><path class="cls-2" d="M498.65,471.17c0,0.19,0,.42-0.21.47l-3.63.75c0.54,0.44.39,0.69-.17,1a16.45,16.45,0,0,1-4.64,1.89,0.71,0.71,0,0,1-.24.06c-1.26-.35-1.12.48-1.1,1.26,0,0.27.17,0.64-.29,0.75v-3a1,1,0,0,0,.31-0.67c0.14-.92,1-0.55,1.51-0.85l0.41-.12,6.6-1.27c0.3-.06.6-0.08,0.9-0.12l0.25-.09Z" transform="translate(-468.15 -459.15)"/><path class="cls-9" d="M488,482a27.75,27.75,0,0,1-3.19-.39c-1.46-.06-2.92,0-4.37,0-1,0-2,.34-3-0.05a0.75,0.75,0,0,0-.7.16c-0.36.26-.48-0.06-0.61-0.31a0.34,0.34,0,0,1,.21-0.57,4.33,4.33,0,0,1,1.33-.22,33.75,33.75,0,0,0,4.77,0,5.47,5.47,0,0,1,1.82,0,1.84,1.84,0,0,0,.57.1,8.3,8.3,0,0,1,3.18.18V482Z" transform="translate(-468.15 -459.15)"/><path class="cls-14" d="M501,476.87a1.79,1.79,0,0,0,1.71-1.87v7c-0.63-.26-0.29-0.8-0.33-1.21s-0.1-.72-0.63-0.48a1.45,1.45,0,0,1-.49,0c0-.57,0-1.14,0-1.71A2.66,2.66,0,0,0,501,476.87Z" transform="translate(-468.15 -459.15)"/><path class="cls-12" d="M488.37,486.68l-0.07-2,0.06-1.49a2.35,2.35,0,0,0,1.41-1.15q0,0.58,0,1.16a0.12,0.12,0,0,0,0,.05,0.66,0.66,0,0,0,0,.12v1c-0.51.3-.17,0.78-0.26,1.17s0,0.77,0,1.15c0,0.22,0,.46-0.29.5a0.4,0.4,0,0,1-.53-0.24A0.32,0.32,0,0,0,488.37,486.68Z" transform="translate(-468.15 -459.15)"/><path class="cls-5" d="M489.77,482a2.35,2.35,0,0,1-1.41,1.15q0-1.75,0-3.51a0.71,0.71,0,0,0,.28-0.13c0.47-.67.84-0.57,1.13,0.14Q489.77,480.84,489.77,482Z" transform="translate(-468.15 -459.15)"/><path class="cls-3" d="M501.22,480.32a1.45,1.45,0,0,0,.49,0c0.53-.23.58,0,0.63,0.48s-0.3,1,.33,1.21l0.05,2.33h-0.06c-0.08-.88-0.4-1.45-1.42-1.11A16.14,16.14,0,0,1,501.22,480.32Z" transform="translate(-468.15 -459.15)"/><path class="cls-9" d="M503,484.33q0,2.75,0,5.5h-0.3l-0.05-4.48a1.39,1.39,0,0,0,.18-1H503Z" transform="translate(-468.15 -459.15)"/><path class="cls-4" d="M511.33,480.83H510.5c0-.43.57-0.45,0.66-0.83A1,1,0,0,1,511.33,480.83Z" transform="translate(-468.15 -459.15)"/><path class="cls-16" d="M502.84,484.33a1.39,1.39,0,0,1-.18,1,0.82,0.82,0,0,1,0-1h0.18Z" transform="translate(-468.15 -459.15)"/><path class="cls-6" d="M488.66,473.66a1,1,0,0,1-.31.67l-0.06-.16V474A0.43,0.43,0,0,1,488.66,473.66Z" transform="translate(-468.15 -459.15)"/><path class="cls-9" d="M490.58,472.69l-0.41.12A0.39,0.39,0,0,1,490.58,472.69Z" transform="translate(-468.15 -459.15)"/><path class="cls-4" d="M488.31,474v0.17a0.65,0.65,0,0,1,0-.12A0.15,0.15,0,0,1,488.31,474Z" transform="translate(-468.15 -459.15)"/><path class="cls-6" d="M498.33,471.22l-0.25.09Z" transform="translate(-468.15 -459.15)"/><path class="cls-7" d="M494.51,502.32a19.09,19.09,0,0,1-9.32-2,13.06,13.06,0,0,1-1.86-1.14l-0.18-.17h0c0.11-1-.68-0.7-1.16-0.85h0a1.59,1.59,0,0,0-.09-0.48,5.15,5.15,0,0,1-.26-1.5c0-.64.47-0.49,0.8-0.59a0.82,0.82,0,0,1,1,.41c0.17,0.68.22,1.21,0.95,0.39a0.19,0.19,0,0,1,.15,0,1.09,1.09,0,0,0,1.09.07c0.48-.06,1-0.05,1.46-0.07,0,0.83.49,0.35,0.68,0.24a5.91,5.91,0,0,1,2.76-.8c0.88,0,1.59-.67,2.49-0.56a63,63,0,0,0,6.86.17,4.26,4.26,0,0,0,.9-0.1c1.29-.26,2.6-0.62,3.79.34a1.19,1.19,0,0,0,.89.08,10.15,10.15,0,0,0,1.22-.24c0.16,0,.34-0.13.45,0.05s0,0.29-.19.37a0.78,0.78,0,0,0-.4.84l-0.16.15c-0.37.11-.86,0.1-0.78,0.71h0a0.6,0.6,0,0,0-.71.65,16.76,16.76,0,0,1-5.79,3.08A18.67,18.67,0,0,1,494.51,502.32Z" transform="translate(-468.15 -459.15)"/><path class="cls-16" d="M506.51,496.85a0.78,0.78,0,0,1,.4-0.84c0.17-.08.3-0.19,0.19-0.37s-0.28-.09-0.45-0.05a10.15,10.15,0,0,1-1.22.24,1.19,1.19,0,0,1-.89-0.08c-1.19-1-2.5-.6-3.79-0.34a4.26,4.26,0,0,1-.9.1,63,63,0,0,1-6.86-.17c-0.9-.11-1.61.51-2.49,0.56a5.91,5.91,0,0,0-2.76.8c-0.19.11-.72,0.59-0.68-0.24-0.49,0-1,0-1.46.07a1.09,1.09,0,0,1-1.09-.07,0.19,0.19,0,0,0-.15,0c-0.73.82-.78,0.29-0.95-0.39a0.82,0.82,0,0,0-1-.41c-0.33.1-.81,0-0.8,0.59a5.15,5.15,0,0,0,.26,1.5,1.59,1.59,0,0,1,.09.48,14.77,14.77,0,0,1-3.68-4c0.28-.29.06-0.31-0.17-0.33h0a2.06,2.06,0,0,0-.47-1.2c0.65-.33,1.55-0.27,2-0.71a6,6,0,0,1,3-1.27,2.16,2.16,0,0,0,0,1.16h0a1.65,1.65,0,0,0-.39,2c0.22,0.31.45,0.62,0.65,0.95a2.87,2.87,0,0,0,1.28,1.22,4.11,4.11,0,0,0,5.44-2.83c0.75-.45.38-1.2,0.48-1.83,1.29,0.11,2.59.55,3.83-.28a0.72,0.72,0,0,1,1,.27,0.45,0.45,0,0,0,.41.33h0a0.73,0.73,0,0,0,.51.84v0c0,0.12,0,.28.16,0.28a0.53,0.53,0,0,0,.15-0.22c1.15,1.4,2.58,1.1,4,.68a3.42,3.42,0,0,0,2.51-3.38H503a3.07,3.07,0,0,1,1.52.56c0.21,0.23.45,0,.66-0.13a1,1,0,0,1,1.42.07,1.15,1.15,0,0,0,1.15.25,9.06,9.06,0,0,1,1.74-.08,0.59,0.59,0,0,0,.71-0.47,0.89,0.89,0,0,1,.95-0.87,19.6,19.6,0,0,1-1,2.66,17.44,17.44,0,0,1-2.78,4.22A10.94,10.94,0,0,1,506.51,496.85Zm3.12-5.45a0.11,0.11,0,1,0,.13.06A0.27,0.27,0,0,0,509.62,491.4Zm-28.69,5.06a0.11,0.11,0,1,0-.06.13A0.27,0.27,0,0,0,480.94,496.45Z" transform="translate(-468.15 -459.15)"/><path class="cls-16" d="M504.83,498.38a0.6,0.6,0,0,1,.71-0.65A1.2,1.2,0,0,1,504.83,498.38Z" transform="translate(-468.15 -459.15)"/><path class="cls-16" d="M505.57,497.71c-0.08-.61.41-0.6,0.78-0.71A1.92,1.92,0,0,1,505.57,497.71Z" transform="translate(-468.15 -459.15)"/><path class="cls-16" d="M482,498.17c0.48,0.15,1.27-.11,1.16.85A3.4,3.4,0,0,1,482,498.17Z" transform="translate(-468.15 -459.15)"/><path class="cls-15" d="M478.14,493.85c0.23,0,.45,0,0.17.33Z" transform="translate(-468.15 -459.15)"/><path class="cls-16" d="M483.15,499l0.18,0.17Z" transform="translate(-468.15 -459.15)"/><path class="cls-9" d="M475.67,486.67a0.75,0.75,0,0,1-.16.67,12.33,12.33,0,0,1-.32-2.66c0.35,0,.32.31,0.32,0.55a1.65,1.65,0,0,0,.17.95v0.5Z" transform="translate(-468.15 -459.15)"/><path class="cls-11" d="M489.69,493.16a4.11,4.11,0,0,1-5.44,2.83,2.87,2.87,0,0,1-1.28-1.22c-0.19-.33-0.43-0.63-0.65-0.95-0.07-.7.49-1.27,0.39-2h0a2.19,2.19,0,0,1,1.51-1.27c0.61-.18,1.21-0.39,1.81-0.59s1.47,0,2-.64h0c0.49-.53.24-1.19,0.3-1.79,0-.3,0-0.6,0-0.89a0.32,0.32,0,0,1,.31.23,0.4,0.4,0,0,0,.53.24c0.3,0,.28-0.29.29-0.5,0-.38,0-0.77,0-1.15a4.28,4.28,0,0,1,.26.68l0,0.49C489.72,488.83,489.94,491,489.69,493.16Z" transform="translate(-468.15 -459.15)"/><path class="cls-4" d="M486,490c-0.6.2-1.2,0.41-1.81,0.59a2.19,2.19,0,0,0-1.51,1.27,2.16,2.16,0,0,1,0-1.16,6,6,0,0,0-3,1.27c-0.46.45-1.37,0.38-2,.71a23.62,23.62,0,0,0-.86-2.51,5.11,5.11,0,0,1-.65-2h0c0.21-.18.24-0.63,0.66-0.49,1.15,0.39,2.22-.19,3.33-0.27a3.37,3.37,0,0,1,2.16.25,0.88,0.88,0,0,0,.87.09,0.47,0.47,0,0,1,.32-0.07c1.4,0.71,2.62-.38,4-0.4,0.5,0,.55.11,0.55,0.51s0,1.05,0,1.58h0C487.36,489.6,486.5,489.23,486,490Z" transform="translate(-468.15 -459.15)"/><path class="cls-4" d="M475.67,486.67v-0.5c0.17,0,.33.07,0.3,0.29A0.27,0.27,0,0,1,475.67,486.67Z" transform="translate(-468.15 -459.15)"/><path class="cls-4" d="M476.17,488.17a0.34,0.34,0,0,1-.26-0.35,0.14,0.14,0,0,1,.12-0.06c0.2,0.08.12,0.27,0.14,0.42h0Z" transform="translate(-468.15 -459.15)"/><path class="cls-9" d="M489.83,486.67l0-.49a8.32,8.32,0,0,0,0-1.85q0-.49,0-1v-0.17q0-.58,0-1.16,0-1.17,0-2.35a0.68,0.68,0,0,1,.63-0.71c1.37-.22,2.7-0.71,4.09-0.81l5.72-1.24a4.09,4.09,0,0,1,.73,0,2.66,2.66,0,0,1,.24,1.73c0,0.57,0,1.14,0,1.71a16.19,16.19,0,0,0,0,2.9c0,0.85,0,1.69,0,2.54a1,1,0,0,1-.33,1c-0.15-1.66-.15-1.64-1.77-1.41a1.91,1.91,0,0,1-1.8-.34,1.3,1.3,0,0,0-.85-0.27,14,14,0,0,0-4.13.24,1,1,0,0,1-1.08-.32,3.06,3.06,0,0,0,1.84-.25,23.6,23.6,0,0,1,2.77-.64c1.47-.22,3,0.13,4.46-0.52,0.32-.15.53-0.2,0.51-0.58a2.85,2.85,0,0,1,0-.83c0.14-.54-0.13-0.65-0.56-0.61a10,10,0,0,1-2,.14,7.88,7.88,0,0,0-4,.36c-1.15.45-2.3-.14-3.46,0-0.52.05-.74,0.16-0.72,0.72,0,1.19,0,2.39,0,3.58C490.16,486.22,490.3,486.59,489.83,486.67Z" transform="translate(-468.15 -459.15)"/><path class="cls-6" d="M494.5,477.83a0.26,0.26,0,0,1,.32-0.13,0.15,0.15,0,0,1,0,.06l-0.36.07h0Z" transform="translate(-468.15 -459.15)"/><path class="cls-14" d="M489.77,484.32a8.32,8.32,0,0,1,0,1.85,4.29,4.29,0,0,0-.26-0.68C489.61,485.1,489.27,484.62,489.77,484.32Z" transform="translate(-468.15 -459.15)"/><path class="cls-14" d="M489.78,483.16v0.17a0.65,0.65,0,0,1,0-.12A0.12,0.12,0,0,1,489.78,483.16Z" transform="translate(-468.15 -459.15)"/><path class="cls-13" d="M500.88,486.71a1,1,0,0,0,.33-1c0-.85,0-1.69,0-2.54,1-.33,1.35.23,1.42,1.11a0.82,0.82,0,0,0,0,1l0.05,4.48a3.42,3.42,0,0,1-2.51,3.38c-1.45.43-2.89,0.73-4-.68l-0.32-.06v0a1.51,1.51,0,0,0-.51-0.84h0a4.85,4.85,0,0,1,.33-2.56l0.32-.41h0l0.16-.17h0l0.17-.16h0a6.82,6.82,0,0,1,2-.89c0.84-.27,1.8-0.1,2.52-0.76Z" transform="translate(-468.15 -459.15)"/><path class="cls-15" d="M498.34,487.46a6.83,6.83,0,0,0-2,.89,0.7,0.7,0,0,0-.84-0.85,5.72,5.72,0,0,0-1.23.09,10.3,10.3,0,0,1-3.47.57c-0.53-.05-0.66.2-0.65,0.68,0,0.83,0,1.66,0,2.49-0.1.63,0.27,1.37-.48,1.83,0.25-2.16,0-4.33.14-6.49,0.47-.07.33-0.45,0.33-0.72,0-1.19,0-2.39,0-3.58,0-.56.2-0.66,0.72-0.72,1.16-.11,2.31.47,3.46,0a7.88,7.88,0,0,1,4-.36,10,10,0,0,0,2-.14c0.44,0,.7.08,0.56,0.61a2.85,2.85,0,0,0,0,.83c0,0.38-.19.43-0.51,0.58-1.45.66-3,.3-4.46,0.52a23.6,23.6,0,0,0-2.77.64,3.06,3.06,0,0,1-1.84.25,1,1,0,0,0,1.08.32,14,14,0,0,1,4.13-.24,1.3,1.3,0,0,1,.85.27,1.91,1.91,0,0,0,1.8.34c1.62-.22,1.61-0.25,1.77,1.41l0,0-2.11.32A0.44,0.44,0,0,0,498.34,487.46Z" transform="translate(-468.15 -459.15)"/><path class="cls-4" d="M490.17,491.33c0-.83,0-1.66,0-2.49,0-.48.12-0.73,0.65-0.68a10.3,10.3,0,0,0,3.47-.57,5.72,5.72,0,0,1,1.23-.09,0.7,0.7,0,0,1,.84.85h0l-0.17.16h0l-0.16.17h0a0.31,0.31,0,0,0-.32.41,4.85,4.85,0,0,0-.33,2.56,0.45,0.45,0,0,1-.41-0.33,0.72,0.72,0,0,0-1-.27C492.75,491.88,491.46,491.44,490.17,491.33Z" transform="translate(-468.15 -459.15)"/><path class="cls-4" d="M482.71,491.85c0.1,0.7-.47,1.27-0.39,2A1.65,1.65,0,0,1,482.71,491.85Z" transform="translate(-468.15 -459.15)"/><path class="cls-4" d="M495.35,491.65a1.51,1.51,0,0,1,.51.84A0.73,0.73,0,0,1,495.35,491.65Z" transform="translate(-468.15 -459.15)"/><path class="cls-4" d="M509.62,491.4a0.11,0.11,0,1,1-.05.14A0.27,0.27,0,0,1,509.62,491.4Z" transform="translate(-468.15 -459.15)"/><path class="cls-4" d="M495.85,492.48l0.32,0.06a0.53,0.53,0,0,1-.15.22C495.83,492.76,495.86,492.6,495.85,492.48Z" transform="translate(-468.15 -459.15)"/><path class="cls-7" d="M480.94,496.45a0.11,0.11,0,1,1-.14-0.05A0.27,0.27,0,0,1,480.94,496.45Z" transform="translate(-468.15 -459.15)"/><path class="cls-15" d="M486,490c0.5-.76,1.36-0.39,2-0.64C487.48,490,486.68,489.78,486,490Z" transform="translate(-468.15 -459.15)"/><path class="cls-9" d="M498.34,487.46a0.44,0.44,0,0,1,.41-0.45l2.11-.32C500.14,487.36,499.18,487.19,498.34,487.46Z" transform="translate(-468.15 -459.15)"/><path class="cls-15" d="M495.69,489.09a0.31,0.31,0,0,1,.32-0.41Z" transform="translate(-468.15 -459.15)"/><path class="cls-15" d="M496.17,488.5l0.17-.16Z" transform="translate(-468.15 -459.15)"/><path class="cls-15" d="M496,488.68l0.16-.17Z" transform="translate(-468.15 -459.15)"/></svg>