<svg id="Layer_1" data-name="Layer 1" xmlns="http://www.w3.org/2000/svg" viewBox="0 0 50.03 50.03"><defs><style>.cls-1{fill:#fefefe;}.cls-2{fill:#1fd660;}.cls-3{fill:#191514;}.cls-4{fill:#191614;}.cls-5{fill:#191615;}.cls-6{fill:#1ed860;}.cls-7{fill:#190f11;}.cls-8{fill:#1ee766;}.cls-9{fill:#190c10;}.cls-10{fill:#19020d;}.cls-11{fill:#190e11;}.cls-12{fill:#1ff16a;}</style></defs><title>spotify</title><path class="cls-1" d="M483.17,470.17q-12.21,0-24.42,0c-0.5,0-.6-0.1-0.6-0.6q0-24.42,0-48.83c0-.5.1-0.6,0.6-0.6q24.42,0,48.83,0c0.5,0,.6.1,0.6,0.6q0,24.42,0,48.83c0,0.5-.1.6-0.6,0.6Q495.38,470.15,483.17,470.17Zm0-5.51a20,20,0,1,0-20-20A20.14,20.14,0,0,0,483.17,464.66Z" transform="translate(-458.15 -420.15)"/><path class="cls-2" d="M483.17,464.66a20,20,0,1,1,20-19.93A20.13,20.13,0,0,1,483.17,464.66Zm-7-25.3,0.65-.06c0.2,0.25.48,0.5,0.75,0.27a1.49,1.49,0,0,1,1.09-.22c1.07,0,2.14,0,3.22,0a1.6,1.6,0,0,1,.8.08,1.34,1.34,0,0,0,1.49-.11l0.32,0.05c0,0.27.14,0.52,0.46,0.4a1.06,1.06,0,0,1,.75.15c0.73,0.19,1.48.3,2.23,0.42a0.31,0.31,0,0,0,.39-0.31h0.33a0.34,0.34,0,0,0,.3.33,5.42,5.42,0,0,1,2.41,1,1,1,0,0,0,1.3,0l0.49,0.2a1.1,1.1,0,0,0,.73.72,2.78,2.78,0,0,0,4.19-.45,1.32,1.32,0,0,0-.64-2.1,4.89,4.89,0,0,0-1.07-.76,29.67,29.67,0,0,0-8.51-2.94c-1.7-.35-3.45-0.36-5.15-0.74a0.49,0.49,0,0,0-.42-0.23h-4.23a0.35,0.35,0,0,0-.41.31l-0.41.06a31,31,0,0,0-6.51,1.15,1.86,1.86,0,0,0-1.36,1.79,1.92,1.92,0,0,0,1.36,1.79,3.58,3.58,0,0,0,1.24,0c0.72,0.52,1.44.09,2.09-.11,0.26-.08,1,0.34.93-0.49l0.32-.05C475.65,439.8,476,440.07,476.17,439.35Zm15.35,12.25c-0.31-.18-0.61-0.39-0.93-0.55a24.22,24.22,0,0,0-14.5-2.14,26.88,26.88,0,0,0-3.59.67,1.15,1.15,0,0,0-.93,1.3,1.08,1.08,0,0,0,1.15,1.09,17.07,17.07,0,0,0,3.72-.73,2.58,2.58,0,0,0,1.23-.05l0.08,0,0.08,0h0.34l3.89-.08a1,1,0,0,0,.61.23,19.16,19.16,0,0,1,7.64,2.41c0.88,0.53,1.6.44,2-.24S492.44,452.09,491.52,451.6Zm-7-9.06a27.78,27.78,0,0,0-8.68-.13,23.8,23.8,0,0,0-3.89.83,1.55,1.55,0,1,0,.85,3l0.64-.17a20.52,20.52,0,0,1,5.58-.73,1.82,1.82,0,0,0,1.67,0,24.1,24.1,0,0,1,12.28,3.42,0.56,0.56,0,0,0,.5.21,2.08,2.08,0,0,0,1.5-1.41,1.47,1.47,0,0,0-.73-1.63,19.8,19.8,0,0,0-5.54-2.42l-0.33-.12a1.72,1.72,0,0,0-.8-0.06c-0.07-.2-0.17-0.29-0.37-0.15l-0.29,0A4.58,4.58,0,0,0,484.5,442.54Z" transform="translate(-458.15 -420.15)"/><path class="cls-3" d="M493.17,441.51l-0.49-.2a15.52,15.52,0,0,0-4-1.31h-0.33a3.13,3.13,0,0,1-.84-0.21c-0.46-.2-1.06.1-1.41-0.4l0.09-.13a0.07,0.07,0,0,0,0-.06,10.49,10.49,0,0,0-3.27-.34,0.68,0.68,0,0,0-.25.2l-0.3-.05a0.34,0.34,0,0,0-.38-0.34h-3.4a0.34,0.34,0,0,0-.38.34l-0.32,0c-0.86-.5-1.71,0-2.56.06l0,0.23a0.87,0.87,0,0,1,0,.14l-0.32.05a11,11,0,0,0-3,.6,3.58,3.58,0,0,1-1.24,0,1.92,1.92,0,0,1-1.36-1.79,1.86,1.86,0,0,1,1.36-1.79,31,31,0,0,1,6.51-1.15l0.41-.06,5.05-.07c1.7,0.37,3.44.39,5.15,0.74a29.67,29.67,0,0,1,8.51,2.94,4.89,4.89,0,0,1,1.07.76,2,2,0,0,1-.3,2.49c-0.7.63-1.41,0.63-2.51,0.05C494.16,442,493.66,441.75,493.17,441.51Z" transform="translate(-458.15 -420.15)"/><path class="cls-4" d="M488.67,443.5a19.8,19.8,0,0,1,5.54,2.42,1.47,1.47,0,0,1,.73,1.63,2.08,2.08,0,0,1-1.5,1.41,0.56,0.56,0,0,1-.5-0.21,24.1,24.1,0,0,0-12.28-3.42H479a20.52,20.52,0,0,0-5.58.73l-0.64.17a1.55,1.55,0,1,1-.85-3,23.8,23.8,0,0,1,3.89-.83,27.78,27.78,0,0,1,8.68.13,4.54,4.54,0,0,0,2.37.61l0.29,0a0.35,0.35,0,0,0,.37.15,1.72,1.72,0,0,1,.8.06C488.38,443.6,488.46,443.74,488.67,443.5Z" transform="translate(-458.15 -420.15)"/><path class="cls-5" d="M476.44,451.24a17.07,17.07,0,0,1-3.72.73,1.08,1.08,0,0,1-1.15-1.09,1.15,1.15,0,0,1,.93-1.3,26.88,26.88,0,0,1,3.59-.67,24.22,24.22,0,0,1,14.5,2.14c0.32,0.16.62,0.37,0.93,0.55a0.54,0.54,0,0,0,.33.52,0.85,0.85,0,0,1,.21,1.18,0.83,0.83,0,0,1-1.18.4c-0.17-.09-0.38-0.29-0.56,0a19.16,19.16,0,0,0-7.64-2.41,1,1,0,0,1-.61-0.23,0.88,0.88,0,0,0-.34-0.21c-1.08,0-2.15,0-3.23,0a0.31,0.31,0,0,0-.33.3H478c-0.06-.1-0.12-0.08-0.17,0l-0.08,0-0.08,0A0.91,0.91,0,0,0,476.44,451.24Z" transform="translate(-458.15 -420.15)"/><path class="cls-6" d="M493.17,441.51c0.49,0.24,1,.46,1.48.71,1.09,0.58,1.81.57,2.51-.05a2,2,0,0,0,.3-2.49,1.32,1.32,0,0,1,.64,2.1,2.78,2.78,0,0,1-4.19.45A1.1,1.1,0,0,1,493.17,441.51Z" transform="translate(-458.15 -420.15)"/><path class="cls-6" d="M477.85,439l0.32,0h4.17l0.3,0.05c0.48,0.29,1.07-.11,1.54.24a1.34,1.34,0,0,1-1.49.11,1.6,1.6,0,0,0-.8-0.08c-1.07,0-2.14,0-3.22,0a1.49,1.49,0,0,0-1.09.22c-0.28.23-.56,0-0.75-0.27C477.11,439,477.54,439.24,477.85,439Z" transform="translate(-458.15 -420.15)"/><path class="cls-6" d="M486.08,439.4c0.35,0.5.95,0.21,1.41,0.4a3.13,3.13,0,0,0,.84.21,0.31,0.31,0,0,1-.39.31c-0.75-.13-1.5-0.24-2.23-0.42a1.06,1.06,0,0,0-.75-0.15c-0.32.12-.42-0.13-0.46-0.4Z" transform="translate(-458.15 -420.15)"/><path class="cls-6" d="M488.67,440a15.52,15.52,0,0,1,4,1.31,1,1,0,0,1-1.3,0,5.42,5.42,0,0,0-2.41-1A0.34,0.34,0,0,1,488.67,440Z" transform="translate(-458.15 -420.15)"/><path class="cls-7" d="M490.32,453.7c0.18-.3.38-0.1,0.56,0a0.83,0.83,0,0,0,1.18-.4,0.85,0.85,0,0,0-.21-1.18,0.54,0.54,0,0,1-.33-0.52c0.92,0.49,1.21,1.16.8,1.86S491.2,454.24,490.32,453.7Z" transform="translate(-458.15 -420.15)"/><path class="cls-6" d="M472,440.12a11,11,0,0,1,3-.6c0.09,0.83-.67.41-0.93,0.49C473.42,440.21,472.69,440.64,472,440.12Z" transform="translate(-458.15 -420.15)"/><path class="cls-8" d="M482.72,435.24l-5.05.07a0.35,0.35,0,0,1,.41-0.31h4.23A0.49,0.49,0,0,1,482.72,435.24Z" transform="translate(-458.15 -420.15)"/><path class="cls-9" d="M486.08,439.4l-1.58,0-0.32-.05c-0.47-.34-1.06.05-1.54-0.24a0.68,0.68,0,0,1,.25-0.2,10.49,10.49,0,0,1,3.27.34,0.07,0.07,0,0,1,0,.06Z" transform="translate(-458.15 -420.15)"/><path class="cls-9" d="M477.85,439c-0.31.21-.74,0-1,0.26l-0.65.06-0.83,0,0-.23C476.14,439,477,438.53,477.85,439Z" transform="translate(-458.15 -420.15)"/><path class="cls-10" d="M478.17,451.15a0.31,0.31,0,0,1,.33-0.3c1.08,0,2.15,0,3.23,0a0.88,0.88,0,0,1,.34.21Z" transform="translate(-458.15 -420.15)"/><path class="cls-11" d="M486.88,443.15a4.54,4.54,0,0,1-2.37-.61A4.58,4.58,0,0,1,486.88,443.15Z" transform="translate(-458.15 -420.15)"/><path class="cls-6" d="M475.33,439.33l0.83,0c-0.19.71-.51,0.44-0.85,0.12A0.87,0.87,0,0,0,475.33,439.33Z" transform="translate(-458.15 -420.15)"/><path class="cls-12" d="M479,445.33h1.67A1.82,1.82,0,0,1,479,445.33Z" transform="translate(-458.15 -420.15)"/><path class="cls-10" d="M476.44,451.24a0.91,0.91,0,0,1,1.23-.05A2.58,2.58,0,0,1,476.44,451.24Z" transform="translate(-458.15 -420.15)"/><path class="cls-11" d="M487.54,443.32a0.35,0.35,0,0,1-.37-0.15C487.37,443,487.47,443.12,487.54,443.32Z" transform="translate(-458.15 -420.15)"/><path class="cls-11" d="M488.67,443.5c-0.21.24-.28,0.1-0.33-0.12Z" transform="translate(-458.15 -420.15)"/><path class="cls-10" d="M477.83,451.17c0-.09.1-0.11,0.17,0h-0.17Z" transform="translate(-458.15 -420.15)"/><path class="cls-9" d="M482.33,439h-4.17a0.34,0.34,0,0,1,.38-0.34H482A0.34,0.34,0,0,1,482.33,439Z" transform="translate(-458.15 -420.15)"/></svg>