<svg xmlns="http://www.w3.org/2000/svg" viewBox="0 0 1792 1792"><defs><style>.cls-1{font-size:353.56px;font-family:Dosis-Medium, Dosis;}.cls-2{letter-spacing:-0.01em;}.cls-3{letter-spacing:0em;}</style></defs><title>spotify</title><g id="Logo"><path d="M1159.77,886q0-23.56-22.08-37.54-142.07-84.66-329.05-84.66-97.91,0-211.27,25-30.92,6.63-30.92,38.28a36,36,0,0,0,9.94,25.4q9.94,10.67,26.13,10.67,3.68,0,27.24-5.89,97.17-19.88,178.88-19.88,166.37,0,292.25,75.82,14,8.1,24.29,8.1a33.84,33.84,0,0,0,24.29-9.94Q1159.77,901.41,1159.77,886Zm70.67-158.27q0-29.45-25.76-44.9Q1030.21,579,801.27,579A823.61,823.61,0,0,0,578.22,609.9q-35.33,9.57-35.33,47.11a44,44,0,0,0,44.17,44.17q5.15,0,27.24-5.89A704.5,704.5,0,0,1,799.07,671q205.38,0,359.24,91.28,17.67,9.57,28,9.57a44,44,0,0,0,44.17-44.17Zm79.5-182.56q0-34.6-29.45-51.53-92.75-53.74-215.69-81.34a1148.92,1148.92,0,0,0-252.5-27.61q-150.17,0-268,34.6A58.43,58.43,0,0,0,516,438q-11.41,13.62-11.41,35.7,0,22.82,15.09,38.28t37.91,15.46q8.1,0,29.45-5.89,97.91-27.24,226-27.24a1030.73,1030.73,0,0,1,227.84,25q110.79,25,186.61,69.93,15.46,8.83,29.45,8.83,21.35,0,37.18-15.09T1309.95,545.12Zm150.91,109.68q0,153.85-75.82,283.78t-205.75,205.75q-129.93,75.82-283.78,75.82t-283.78-75.82Q481.79,1068.52,406,938.59T330.14,654.81Q330.14,501,406,371T611.72,165.27Q741.65,89.45,895.5,89.45t283.78,75.82Q1309.21,241.1,1385,371T1460.86,654.81Z"/></g><g id="Name"><text class="cls-1" transform="translate(315.22 1751.35)">SP<tspan class="cls-2" x="366.63" y="0">O</tspan><tspan class="cls-3" x="558.97" y="0">TIFY</tspan></text></g></svg>