<svg xmlns="http://www.w3.org/2000/svg" xmlns:xlink="http://www.w3.org/1999/xlink" viewBox="0 0 1792 1792"><defs><style>.cls-1{fill:none;}.cls-2{clip-path:url(#clip-path);}.cls-3{fill:#010101;}.cls-4{font-size:353.56px;font-family:Dosis-Medium, Dosis;}</style><clipPath id="clip-path"><rect class="cls-1" x="330.14" y="105.67" width="1086.6" height="1086.6"/></clipPath></defs><title>tidal</title><g id="Logo"><g id="tidal"><g class="cls-2"><g class="cls-2"><path class="cls-3" d="M873.55,1192.27H343.18c-10.86,0-13-2.17-13-13V118.7c0-10.86,2.17-13,13-13H1403.71c10.86,0,13,2.17,13,13V1179.24c0,10.86-2.17,13-13,13q-265-.42-530.16,0m148.34-698.7c8.47-4.13,11.73,3.48,15.85,7.82,44.74,44.52,89.7,89,133.79,134.44,8.69,8.9,13,8.25,21.72,0q67.54-69.07,136.4-137c7.38-7.38,7-11.08,0-18.24q-68.64-68-136.4-137c-8.25-8.47-12.6-8.25-21.72,0-43.44,45.18-89,89.7-134,134.44-4.13,4.13-7,12.6-15.85,8q-72.1-73-144-146.17a7.39,7.39,0,0,0-10.08-2.74,7.52,7.52,0,0,0-2.74,2.74q-71.67,73.4-143.78,146.39c-8.69,4.13-11.51-4.13-15.64-8.25-44.74-44.52-89.7-89.26-133.79-134.44-8.25-8.47-12.6-8.9-21.72,0q-67.54,69.07-136.4,137c-7.38,7.38-7.38,11.08,0,18.24q68.64,68,136.4,137c8.25,8.47,12.6,8.69,21.72,0,43.44-45.18,89-89.7,133.79-134.44,4.34-4.34,7.6-11.73,16.07-7.38L871.38,637.35Zm3.48,309.28a14.35,14.35,0,0,0-7.17-10.64c-45.83-46.26-92.09-92.31-137.48-138.78-7.6-7.82-11.51-6.08-18.24,0q-68,69.07-136.61,137.26c-8,7.82-8,11.95,0,19.76q68.84,68,136.61,137c6.73,6.73,10.64,8.47,18.24,0C926.33,901,972.37,855,1018.42,808.71Z"/></g></g></g></g><g id="Name"><text class="cls-4" transform="translate(498.89 1751.35)">TIDAL</text></g></svg>