<svg id="Layer_1" data-name="Layer 1" xmlns="http://www.w3.org/2000/svg" viewBox="0 0 50.03 50.03"><defs><style>.cls-1{fill:#010101;}.cls-2{fill:#fafafa;}.cls-3{fill:#fcfcfc;}.cls-4{fill:#fdfdfd;}</style></defs><title>tidal</title><path class="cls-1" d="M480.17,494.17q-12.21,0-24.42,0c-0.5,0-.6-0.1-0.6-0.6q0-24.42,0-48.83c0-.5.1-0.6,0.6-0.6q24.42,0,48.83,0c0.5,0,.6.1,0.6,0.6q0,24.42,0,48.83c0,0.5-.1.6-0.6,0.6Q492.38,494.15,480.17,494.17ZM487,462c0.39-.19.54,0.16,0.73,0.36,2.06,2.05,4.13,4.1,6.16,6.19,0.4,0.41.6,0.38,1,0q3.11-3.18,6.28-6.31c0.34-.34.32-0.51,0-0.84q-3.16-3.13-6.28-6.31c-0.38-.39-0.58-0.38-1,0-2,2.08-4.1,4.13-6.17,6.19-0.19.19-.32,0.58-0.73,0.37q-3.32-3.36-6.63-6.73a0.34,0.34,0,0,0-.59,0q-3.3,3.38-6.62,6.74c-0.4.19-.53-0.19-0.72-0.38-2.06-2.05-4.13-4.11-6.16-6.19-0.38-.39-0.58-0.41-1,0q-3.11,3.18-6.28,6.31c-0.34.34-.34,0.51,0,0.84q3.16,3.13,6.28,6.31c0.38,0.39.58,0.4,1,0,2-2.08,4.1-4.13,6.16-6.19,0.2-.2.35-0.54,0.74-0.34l6.9,6.6Zm0.16,14.24a0.66,0.66,0,0,0-.33-0.49c-2.11-2.13-4.24-4.25-6.33-6.39-0.35-.36-0.53-0.28-0.84,0q-3.13,3.18-6.29,6.32c-0.37.36-.37,0.55,0,0.91q3.17,3.13,6.29,6.31c0.31,0.31.49,0.39,0.84,0,2.1-2.14,4.22-4.26,6.34-6.39Z" transform="translate(-455.15 -444.15)"/><path class="cls-2" d="M473.17,462c-0.39-.2-0.54.15-0.74,0.34-2.06,2.06-4.13,4.1-6.16,6.19-0.39.4-.59,0.39-1,0q-3.11-3.18-6.28-6.31c-0.33-.33-0.34-0.5,0-0.84q3.17-3.13,6.28-6.31c0.39-.39.59-0.38,1,0,2,2.08,4.1,4.13,6.16,6.19,0.19,0.19.32,0.57,0.72,0.38Z" transform="translate(-455.15 -444.15)"/><path class="cls-2" d="M487,461.62c0.41,0.2.54-.18,0.73-0.37,2.07-2.05,4.13-4.1,6.17-6.19,0.38-.39.58-0.4,1,0q3.11,3.18,6.28,6.31c0.33,0.33.35,0.5,0,.84q-3.16,3.13-6.28,6.31c-0.37.38-.58,0.41-1,0-2-2.08-4.1-4.13-6.16-6.19-0.2-.2-0.34-0.55-0.73-0.36v-0.35Z" transform="translate(-455.15 -444.15)"/><path class="cls-3" d="M487.15,476.22l-0.32.34c-2.12,2.13-4.24,4.24-6.34,6.39-0.35.36-.53,0.28-0.84,0q-3.13-3.18-6.29-6.31c-0.37-.36-0.37-0.55,0-0.91q3.17-3.13,6.29-6.32c0.31-.31.49-0.39,0.84,0,2.1,2.14,4.22,4.26,6.33,6.39A0.66,0.66,0,0,1,487.15,476.22Z" transform="translate(-455.15 -444.15)"/><path class="cls-4" d="M487,461.62V462l-6.92,6.61-6.9-6.6,0-.35q3.31-3.37,6.62-6.74a0.34,0.34,0,0,1,.59,0Q483.68,458.27,487,461.62Z" transform="translate(-455.15 -444.15)"/></svg>