<svg id="Layer_1" data-name="Layer 1" xmlns="http://www.w3.org/2000/svg" viewBox="0 0 50.03 50.2"><defs><style>.cls-1{fill:#333;}.cls-2{fill:#3d3d3d;}.cls-3{fill:#fdfdfd;}.cls-4{fill:#e03229;}.cls-5{fill:#c6322a;}.cls-6{fill:#fdfbfb;}.cls-7{fill:#e6dbdb;}.cls-8{fill:#c31b0c;}</style></defs><title>youtube</title><path class="cls-1" d="M581.9,547.43h5.17a10.86,10.86,0,0,0,2.39.48,25.07,25.07,0,0,1,19.63,19.63,11.17,11.17,0,0,0,.48,2.39v5.17a0.37,0.37,0,0,0-.18.42,24.68,24.68,0,0,1-.67,3.42,25,25,0,0,1-31.26,17.45A24,24,0,0,1,564,586.61a1.77,1.77,0,0,0,.32-0.1l11.45-5.95h0.13A11.7,11.7,0,1,0,593,564.65c-4.63-5-13-4.83-17.15.26l-0.15,0c-0.23-.09-0.46-0.17-0.68-0.28l-11.39-5.91a24.72,24.72,0,0,1,15.84-10.81A9.81,9.81,0,0,0,581.9,547.43Z" transform="translate(-559.55 -547.42)"/><path class="cls-2" d="M563.67,558.74l11.39,5.91c0.22,0.11.45,0.19,0.68,0.28l-0.3.4a11.71,11.71,0,0,0-2.36,9.86,12.2,12.2,0,0,0,2.7,5.37l-11.45,5.95a1.77,1.77,0,0,1-.32.1,23.49,23.49,0,0,1-3.77-8.24,25.25,25.25,0,0,0-.68-3.11V569.6c0.21-.07.15-0.26,0.18-0.42A23.89,23.89,0,0,1,563.67,558.74Z" transform="translate(-559.55 -547.42)"/><path class="cls-3" d="M559.56,575.26a25.25,25.25,0,0,1,.68,3.11,23.49,23.49,0,0,0,3.77,8.24,24,24,0,0,0,13.44,9.78,25,25,0,0,0,31.26-17.45,24.68,24.68,0,0,0,.67-3.42,0.37,0.37,0,0,1,.18-0.42q0,10.95,0,21.9c0,0.44,0,.62-0.57.62q-24.44,0-48.87,0c-0.55,0-.57-0.18-0.57-0.62Q559.57,586.13,559.56,575.26Z" transform="translate(-559.55 -547.42)"/><path class="cls-3" d="M609.56,569.93a11.17,11.17,0,0,1-.48-2.39,25.07,25.07,0,0,0-19.63-19.63,10.86,10.86,0,0,1-2.39-.48q10.94,0,21.88,0c0.52,0,.64.12,0.64,0.64Q609.55,559,609.56,569.93Z" transform="translate(-559.55 -547.42)"/><path class="cls-3" d="M563.67,558.74a23.89,23.89,0,0,0-3.93,10.44c0,0.15,0,.34-0.18.42q0-10.77,0-21.54c0-.52.12-0.64,0.64-0.64q10.85,0,21.71,0a9.81,9.81,0,0,1-2.39.5A24.72,24.72,0,0,0,563.67,558.74Z" transform="translate(-559.55 -547.42)"/><path class="cls-4" d="M575.88,564.91c4.19-5.09,12.52-5.24,17.15-.26a11.7,11.7,0,1,1-17.13,15.94c1.31-.84,2.71-1.51,4.09-2.21a1,1,0,0,0,.74-0.6h0.18a1.08,1.08,0,0,0,.32-0.06l8.17-4.27,1.36-.67-7.86-4h0a0.34,0.34,0,0,0-.33-0.17h0a0.36,0.36,0,0,0-.34-0.18,3.65,3.65,0,0,0-1.32-.65h-0.18a4.67,4.67,0,0,0-1.46-.89A28.36,28.36,0,0,1,575.88,564.91Z" transform="translate(-559.55 -547.42)"/><path class="cls-5" d="M580.74,577.77a1,1,0,0,1-.74.6c-1.38.7-2.78,1.37-4.09,2.21h-0.13a12.2,12.2,0,0,1-2.7-5.37,11.71,11.71,0,0,1,2.36-9.86l0.3-.4,0.15,0a28.36,28.36,0,0,0,3.4,2,4.67,4.67,0,0,1,1.46.89Q580.74,572.77,580.74,577.77Z" transform="translate(-559.55 -547.42)"/><path class="cls-6" d="M589.4,573.44l-8.17,4.27a1.08,1.08,0,0,1-.32.06q0-5,0-10a3.65,3.65,0,0,1,1.32.65,0.35,0.35,0,0,0,.34.18h0a0.34,0.34,0,0,0,.33.17h0a1,1,0,0,0,.62.63c1.1,0.75,2.23,1.46,3.32,2.22A16.66,16.66,0,0,1,589.4,573.44Z" transform="translate(-559.55 -547.42)"/><path class="cls-7" d="M589.4,573.44a16.66,16.66,0,0,0-2.57-1.82c-1.09-.76-2.22-1.48-3.32-2.22a1,1,0,0,1-.62-0.63l7.86,4Z" transform="translate(-559.55 -547.42)"/><path class="cls-8" d="M580.92,567.77q0,5,0,10h-0.18q0-5,0-10h0.18Z" transform="translate(-559.55 -547.42)"/><path class="cls-7" d="M582.57,568.59a0.35,0.35,0,0,1-.34-0.18A0.36,0.36,0,0,1,582.57,568.59Z" transform="translate(-559.55 -547.42)"/><path class="cls-7" d="M582.9,568.76a0.34,0.34,0,0,1-.33-0.17A0.34,0.34,0,0,1,582.9,568.76Z" transform="translate(-559.55 -547.42)"/></svg>