<svg xmlns="http://www.w3.org/2000/svg" xmlns:xlink="http://www.w3.org/1999/xlink" viewBox="0 0 1792 1792"><defs><style>.cls-1{fill:none;}.cls-2{clip-path:url(#clip-path);}.cls-3{font-size:353.56px;font-family:Dosis-Medium, Dosis;}.cls-4{letter-spacing:-0.01em;}</style><clipPath id="clip-path"><rect class="cls-1" x="197.68" y="198.99" width="1395.64" height="996.88"/></clipPath></defs><title>youtube</title><g id="Logo"><g id="Artwork_4" data-name="Artwork 4"><g class="cls-2"><g class="cls-2"><path d="M1194.56,697.43q0-28.82-23.36-42.06L772.45,406.16q-24.14-15.58-50.62-1.56-25.7,14-25.7,43.61V946.65q0,29.59,25.7,43.61,12.46,6.23,24.14,6.23,15.58,0,26.48-7.79L1171.2,739.49q23.36-13.24,23.36-42.06m398.75,0q0,74.77-.78,116.82t-6.62,106.31q-5.84,64.25-17.52,114.88-12.46,56.85-53.74,95.79t-96.57,45.17q-172.9,19.47-522.58,19.47T372.92,1176.4q-55.3-6.23-97-45.17t-54.13-95.79q-10.9-50.62-16.74-114.88t-6.62-106.31q-.78-42.06-.78-116.82t.78-116.82q.78-42.06,6.62-106.31T222.6,359.43q12.46-56.85,53.74-95.79t96.57-45.17Q545.81,199,895.5,199t522.58,19.47q55.3,6.23,97,45.17t54.13,95.79q10.9,50.62,16.74,114.88t6.62,106.31q.78,42.06.78,116.82"/></g></g></g></g><g id="Name"><text class="cls-3" transform="translate(236.02 1751.35)"><tspan class="cls-4">Y</tspan><tspan x="188.45" y="0">OUTUBE</tspan></text></g></svg>